  0
SECTION
  2
HEADER
  9
$ANGBASE
  50
0.0
  9
$ANGDIR
  70
1
  9
$MEASUREMENT
  70
1
  0
ENDSEC
  0
SECTION
  2
TABLES
  0
TABLE
  2
LTYPE
  70
4
  0
LTYPE
  5
40F
  2
CONTINUOUS
  70
0
  3
Solid line
  72
65
  73
0
  40
0.0
  0
LTYPE
  5
410
  2
DASHDOT
 70
0
  3
Dash Dot ____ _ ____ _
 72
65
 73
4
 40
2.0
 49
1.25
 49
-0.25
 49
0.25
 49
-0.25
  0
LTYPE
  5
411
  2
DASHED
 70
0
  3
Dashed __ __ __ __ __
 72
65
 73
2
 40
0.75
 49
0.5
 49
-0.25
  0
LTYPE
  5
43B
  2
DOTTED
 70
0
  3
Dotted .  .  .  .
 72
65
 73
2
 40
0.2
 49
0.0
 49
-0.2
  0
ENDTAB
  0
TABLE
  2
STYLE
  70
4
  0
STYLE
  2
KICAD
  70
0
  40
0
  41
1
  42
1
  50
0
  71
0
  3
isocp.shx
  0
STYLE
  2
KICADB
  70
0
  40
0
  41
1
  42
1
  50
0
  71
0
  3
isocp.shx
  0
STYLE
  2
KICADI
  70
0
  40
0
  41
1
  42
1
  50
15
  71
0
  3
isocp.shx
  0
STYLE
  2
KICADBI
  70
0
  40
0
  41
1
  42
1
  50
15
  71
0
  3
isocp.shx
  0
ENDTAB
  0
TABLE
  2
LAYER
  70
1
  0
LAYER
  2
BLACK
  70
0
  62
7
  6
CONTINUOUS
  0
ENDTAB
  0
ENDSEC
  0
SECTION
  2
ENTITIES
0
LINE
8
BLACK
6
CONTINUOUS
10
150
20
-145
11
150
21
-55
0
ARC
8
BLACK
10
55
20
-55
40
5
50
90
51
180
0
LINE
8
BLACK
6
CONTINUOUS
10
55
20
-150
11
145
21
-150
0
LINE
8
BLACK
6
CONTINUOUS
10
120
20
-80
11
120
21
-50
0
ARC
8
BLACK
10
145
20
-55
40
5
50
-0
51
90
0
LINE
8
BLACK
6
CONTINUOUS
10
80
20
-50
11
80
21
-80
0
LINE
8
BLACK
6
CONTINUOUS
10
50
20
-55
11
50
21
-145
0
ARC
8
BLACK
10
55
20
-145
40
5
50
-180
51
-90
0
ARC
8
BLACK
10
145
20
-145
40
5
50
-90
51
-0
0
LINE
8
BLACK
6
CONTINUOUS
10
55
20
-50
11
80
21
-50
0
LINE
8
BLACK
6
CONTINUOUS
10
80
20
-80
11
120
21
-80
0
LINE
8
BLACK
6
CONTINUOUS
10
120
20
-50
11
145
21
-50
0
LINE
8
BLACK
6
CONTINUOUS
10
52.4262
20
-152.985
11
52.4262
21
-150.985
0
LINE
8
BLACK
6
CONTINUOUS
10
52.4262
20
-150.985
11
52.9024
21
-150.985
0
LINE
8
BLACK
6
CONTINUOUS
10
52.9024
20
-150.985
11
53.1881
21
-151.08
0
LINE
8
BLACK
6
CONTINUOUS
10
53.1881
20
-151.08
11
53.3786
21
-151.27
0
LINE
8
BLACK
6
CONTINUOUS
10
53.3786
20
-151.27
11
53.4738
21
-151.461
0
LINE
8
BLACK
6
CONTINUOUS
10
53.4738
20
-151.461
11
53.569
21
-151.842
0
LINE
8
BLACK
6
CONTINUOUS
10
53.569
20
-151.842
11
53.569
21
-152.128
0
LINE
8
BLACK
6
CONTINUOUS
10
53.569
20
-152.128
11
53.4738
21
-152.509
0
LINE
8
BLACK
6
CONTINUOUS
10
53.4738
20
-152.509
11
53.3786
21
-152.699
0
LINE
8
BLACK
6
CONTINUOUS
10
53.3786
20
-152.699
11
53.1881
21
-152.89
0
LINE
8
BLACK
6
CONTINUOUS
10
53.1881
20
-152.89
11
52.9024
21
-152.985
0
LINE
8
BLACK
6
CONTINUOUS
10
52.9024
20
-152.985
11
52.4262
21
-152.985
0
LINE
8
BLACK
6
CONTINUOUS
10
54.4262
20
-152.985
11
54.4262
21
-151.651
0
LINE
8
BLACK
6
CONTINUOUS
10
54.4262
20
-152.032
11
54.5214
21
-151.842
0
LINE
8
BLACK
6
CONTINUOUS
10
54.5214
20
-151.842
11
54.6167
21
-151.747
0
LINE
8
BLACK
6
CONTINUOUS
10
54.6167
20
-151.747
11
54.8071
21
-151.651
0
LINE
8
BLACK
6
CONTINUOUS
10
54.8071
20
-151.651
11
54.9976
21
-151.651
0
LINE
8
BLACK
6
CONTINUOUS
10
55.6643
20
-152.985
11
55.6643
21
-151.651
0
LINE
8
BLACK
6
CONTINUOUS
10
55.6643
20
-150.985
11
55.569
21
-151.08
0
LINE
8
BLACK
6
CONTINUOUS
10
55.569
20
-151.08
11
55.6643
21
-151.175
0
LINE
8
BLACK
6
CONTINUOUS
10
55.6643
20
-151.175
11
55.7595
21
-151.08
0
LINE
8
BLACK
6
CONTINUOUS
10
55.7595
20
-151.08
11
55.6643
21
-150.985
0
LINE
8
BLACK
6
CONTINUOUS
10
55.6643
20
-150.985
11
55.6643
21
-151.175
0
LINE
8
BLACK
6
CONTINUOUS
10
56.9024
20
-152.985
11
56.7119
21
-152.89
0
LINE
8
BLACK
6
CONTINUOUS
10
56.7119
20
-152.89
11
56.6167
21
-152.699
0
LINE
8
BLACK
6
CONTINUOUS
10
56.6167
20
-152.699
11
56.6167
21
-150.985
0
LINE
8
BLACK
6
CONTINUOUS
10
57.95
20
-152.985
11
57.7595
21
-152.89
0
LINE
8
BLACK
6
CONTINUOUS
10
57.7595
20
-152.89
11
57.6643
21
-152.699
0
LINE
8
BLACK
6
CONTINUOUS
10
57.6643
20
-152.699
11
57.6643
21
-150.985
0
LINE
8
BLACK
6
CONTINUOUS
10
59.9119
20
-152.985
11
59.9119
21
-150.985
0
LINE
8
BLACK
6
CONTINUOUS
10
59.9119
20
-150.985
11
60.5786
21
-152.413
0
LINE
8
BLACK
6
CONTINUOUS
10
60.5786
20
-152.413
11
61.2452
21
-150.985
0
LINE
8
BLACK
6
CONTINUOUS
10
61.2452
20
-150.985
11
61.2452
21
-152.985
0
LINE
8
BLACK
6
CONTINUOUS
10
63.0548
20
-152.985
11
63.0548
21
-151.937
0
LINE
8
BLACK
6
CONTINUOUS
10
63.0548
20
-151.937
11
62.9595
21
-151.747
0
LINE
8
BLACK
6
CONTINUOUS
10
62.9595
20
-151.747
11
62.769
21
-151.651
0
LINE
8
BLACK
6
CONTINUOUS
10
62.769
20
-151.651
11
62.3881
21
-151.651
0
LINE
8
BLACK
6
CONTINUOUS
10
62.3881
20
-151.651
11
62.1976
21
-151.747
0
LINE
8
BLACK
6
CONTINUOUS
10
63.0548
20
-152.89
11
62.8643
21
-152.985
0
LINE
8
BLACK
6
CONTINUOUS
10
62.8643
20
-152.985
11
62.3881
21
-152.985
0
LINE
8
BLACK
6
CONTINUOUS
10
62.3881
20
-152.985
11
62.1976
21
-152.89
0
LINE
8
BLACK
6
CONTINUOUS
10
62.1976
20
-152.89
11
62.1024
21
-152.699
0
LINE
8
BLACK
6
CONTINUOUS
10
62.1024
20
-152.699
11
62.1024
21
-152.509
0
LINE
8
BLACK
6
CONTINUOUS
10
62.1024
20
-152.509
11
62.1976
21
-152.318
0
LINE
8
BLACK
6
CONTINUOUS
10
62.1976
20
-152.318
11
62.3881
21
-152.223
0
LINE
8
BLACK
6
CONTINUOUS
10
62.3881
20
-152.223
11
62.8643
21
-152.223
0
LINE
8
BLACK
6
CONTINUOUS
10
62.8643
20
-152.223
11
63.0548
21
-152.128
0
LINE
8
BLACK
6
CONTINUOUS
10
64.0071
20
-151.651
11
64.0071
21
-153.651
0
LINE
8
BLACK
6
CONTINUOUS
10
64.0071
20
-151.747
11
64.1976
21
-151.651
0
LINE
8
BLACK
6
CONTINUOUS
10
64.1976
20
-151.651
11
64.5786
21
-151.651
0
LINE
8
BLACK
6
CONTINUOUS
10
64.5786
20
-151.651
11
64.769
21
-151.747
0
LINE
8
BLACK
6
CONTINUOUS
10
64.769
20
-151.747
11
64.8643
21
-151.842
0
LINE
8
BLACK
6
CONTINUOUS
10
64.8643
20
-151.842
11
64.9595
21
-152.032
0
LINE
8
BLACK
6
CONTINUOUS
10
64.9595
20
-152.032
11
64.9595
21
-152.604
0
LINE
8
BLACK
6
CONTINUOUS
10
64.9595
20
-152.604
11
64.8643
21
-152.794
0
LINE
8
BLACK
6
CONTINUOUS
10
64.8643
20
-152.794
11
64.769
21
-152.89
0
LINE
8
BLACK
6
CONTINUOUS
10
64.769
20
-152.89
11
64.5786
21
-152.985
0
LINE
8
BLACK
6
CONTINUOUS
10
64.5786
20
-152.985
11
64.1976
21
-152.985
0
LINE
8
BLACK
6
CONTINUOUS
10
64.1976
20
-152.985
11
64.0071
21
-152.89
0
LINE
8
BLACK
6
CONTINUOUS
10
65.8167
20
-152.794
11
65.9119
21
-152.89
0
LINE
8
BLACK
6
CONTINUOUS
10
65.9119
20
-152.89
11
65.8167
21
-152.985
0
LINE
8
BLACK
6
CONTINUOUS
10
65.8167
20
-152.985
11
65.7214
21
-152.89
0
LINE
8
BLACK
6
CONTINUOUS
10
65.7214
20
-152.89
11
65.8167
21
-152.794
0
LINE
8
BLACK
6
CONTINUOUS
10
65.8167
20
-152.794
11
65.8167
21
-152.985
0
LINE
8
BLACK
6
CONTINUOUS
10
65.8167
20
-151.747
11
65.9119
21
-151.842
0
LINE
8
BLACK
6
CONTINUOUS
10
65.9119
20
-151.842
11
65.8167
21
-151.937
0
LINE
8
BLACK
6
CONTINUOUS
10
65.8167
20
-151.937
11
65.7214
21
-151.842
0
LINE
8
BLACK
6
CONTINUOUS
10
65.7214
20
-151.842
11
65.8167
21
-151.747
0
LINE
8
BLACK
6
CONTINUOUS
10
65.8167
20
-151.747
11
65.8167
21
-151.937
  0
ENDSEC
  0
EOF
