%TF.GenerationSoftware,KiCad,Pcbnew,(7.0.0)*%
%TF.CreationDate,2023-04-14T09:52:48+02:00*%
%TF.ProjectId,EEE3088,45454533-3038-4382-9e6b-696361645f70,Rev_0*%
%TF.SameCoordinates,Original*%
%TF.FileFunction,Paste,Top*%
%TF.FilePolarity,Positive*%
%FSLAX46Y46*%
G04 Gerber Fmt 4.6, Leading zero omitted, Abs format (unit mm)*
G04 Created by KiCad (PCBNEW (7.0.0)) date 2023-04-14 09:52:48*
%MOMM*%
%LPD*%
G01*
G04 APERTURE LIST*
G04 Aperture macros list*
%AMRoundRect*
0 Rectangle with rounded corners*
0 $1 Rounding radius*
0 $2 $3 $4 $5 $6 $7 $8 $9 X,Y pos of 4 corners*
0 Add a 4 corners polygon primitive as box body*
4,1,4,$2,$3,$4,$5,$6,$7,$8,$9,$2,$3,0*
0 Add four circle primitives for the rounded corners*
1,1,$1+$1,$2,$3*
1,1,$1+$1,$4,$5*
1,1,$1+$1,$6,$7*
1,1,$1+$1,$8,$9*
0 Add four rect primitives between the rounded corners*
20,1,$1+$1,$2,$3,$4,$5,0*
20,1,$1+$1,$4,$5,$6,$7,0*
20,1,$1+$1,$6,$7,$8,$9,0*
20,1,$1+$1,$8,$9,$2,$3,0*%
%AMFreePoly0*
4,1,9,3.862500,-0.866500,0.737500,-0.866500,0.737500,-0.450000,-0.737500,-0.450000,-0.737500,0.450000,0.737500,0.450000,0.737500,0.866500,3.862500,0.866500,3.862500,-0.866500,3.862500,-0.866500,$1*%
G04 Aperture macros list end*
%ADD10RoundRect,0.250000X-0.262500X-0.450000X0.262500X-0.450000X0.262500X0.450000X-0.262500X0.450000X0*%
%ADD11RoundRect,0.250000X-0.475000X0.250000X-0.475000X-0.250000X0.475000X-0.250000X0.475000X0.250000X0*%
%ADD12R,1.200000X0.600000*%
%ADD13RoundRect,0.230000X-0.375000X0.230000X-0.375000X-0.230000X0.375000X-0.230000X0.375000X0.230000X0*%
%ADD14RoundRect,0.150000X-0.150000X0.825000X-0.150000X-0.825000X0.150000X-0.825000X0.150000X0.825000X0*%
%ADD15RoundRect,0.250000X0.262500X0.450000X-0.262500X0.450000X-0.262500X-0.450000X0.262500X-0.450000X0*%
%ADD16R,0.950000X0.900000*%
%ADD17RoundRect,0.250000X-0.450000X0.262500X-0.450000X-0.262500X0.450000X-0.262500X0.450000X0.262500X0*%
%ADD18R,0.900000X1.300000*%
%ADD19FreePoly0,90.000000*%
%ADD20R,0.400000X1.250000*%
%ADD21R,0.600000X1.350000*%
%ADD22RoundRect,0.250000X0.250000X0.475000X-0.250000X0.475000X-0.250000X-0.475000X0.250000X-0.475000X0*%
%ADD23R,0.820000X0.460000*%
%ADD24RoundRect,0.250000X0.670000X0.645000X-0.670000X0.645000X-0.670000X-0.645000X0.670000X-0.645000X0*%
%ADD25RoundRect,0.175000X1.250000X0.175000X-1.250000X0.175000X-1.250000X-0.175000X1.250000X-0.175000X0*%
%ADD26RoundRect,0.250000X0.475000X-0.250000X0.475000X0.250000X-0.475000X0.250000X-0.475000X-0.250000X0*%
%ADD27R,1.050000X0.880000*%
%ADD28R,0.450000X1.050000*%
%ADD29RoundRect,0.250000X0.450000X-0.262500X0.450000X0.262500X-0.450000X0.262500X-0.450000X-0.262500X0*%
%ADD30RoundRect,0.075000X-0.250000X-0.075000X0.250000X-0.075000X0.250000X0.075000X-0.250000X0.075000X0*%
%ADD31R,0.650000X0.400000*%
%ADD32RoundRect,0.075000X0.250000X0.075000X-0.250000X0.075000X-0.250000X-0.075000X0.250000X-0.075000X0*%
G04 APERTURE END LIST*
D10*
%TO.C,R30*%
X123571000Y-74918000D03*
X125396000Y-74918000D03*
%TD*%
D11*
%TO.C,C9*%
X100330000Y-96774000D03*
X100330000Y-98674000D03*
%TD*%
D12*
%TO.C,N1*%
X117658999Y-133817999D03*
X117658999Y-135717999D03*
X120158999Y-134767999D03*
%TD*%
D10*
%TO.C,R20*%
X144018000Y-94996000D03*
X145843000Y-94996000D03*
%TD*%
D13*
%TO.C,U6*%
X131306000Y-62992000D03*
X129806000Y-62992000D03*
X131306000Y-64132000D03*
X129806000Y-64132000D03*
D14*
X132461000Y-61087000D03*
X131191000Y-61087000D03*
X129921000Y-61087000D03*
X128651000Y-61087000D03*
X128651000Y-66037000D03*
X129921000Y-66037000D03*
X131191000Y-66037000D03*
X132461000Y-66037000D03*
%TD*%
D15*
%TO.C,R8*%
X114888500Y-134448000D03*
X113063500Y-134448000D03*
%TD*%
%TO.C,R24*%
X145843000Y-97282000D03*
X144018000Y-97282000D03*
%TD*%
D11*
%TO.C,C5*%
X105410000Y-96774000D03*
X105410000Y-98674000D03*
%TD*%
D16*
%TO.C,LED2*%
X72770999Y-129539999D03*
X72770999Y-128039999D03*
%TD*%
D17*
%TO.C,R3*%
X90170000Y-132969000D03*
X90170000Y-134794000D03*
%TD*%
D11*
%TO.C,C8*%
X107950000Y-96774000D03*
X107950000Y-98674000D03*
%TD*%
D10*
%TO.C,R25*%
X56132000Y-102862000D03*
X57957000Y-102862000D03*
%TD*%
%TO.C,R32*%
X92837000Y-135382000D03*
X94662000Y-135382000D03*
%TD*%
%TO.C,R27*%
X56132000Y-100068000D03*
X57957000Y-100068000D03*
%TD*%
D18*
%TO.C,U1*%
X96138999Y-128142999D03*
D19*
X97639000Y-128055500D03*
D18*
X99138999Y-128142999D03*
%TD*%
D17*
%TO.C,R9*%
X105213000Y-131652000D03*
X105213000Y-133477000D03*
%TD*%
D20*
%TO.C,J1*%
X67936999Y-54440999D03*
X67286999Y-54440999D03*
X66636999Y-54440999D03*
X65986999Y-54440999D03*
X65336999Y-54440999D03*
D21*
X65836999Y-51790999D03*
X67436999Y-51790999D03*
%TD*%
D22*
%TO.C,C3*%
X62479000Y-96002000D03*
X60579000Y-96002000D03*
%TD*%
D10*
%TO.C,R33*%
X92837000Y-137795000D03*
X94662000Y-137795000D03*
%TD*%
%TO.C,R23*%
X56132000Y-97528000D03*
X57957000Y-97528000D03*
%TD*%
%TO.C,R18*%
X56235500Y-105656000D03*
X58060500Y-105656000D03*
%TD*%
D23*
%TO.C,Z1*%
X127705999Y-131907999D03*
X125405999Y-131907999D03*
%TD*%
D10*
%TO.C,R2*%
X125636500Y-129368000D03*
X127461500Y-129368000D03*
%TD*%
%TO.C,R19*%
X56235500Y-94480000D03*
X58060500Y-94480000D03*
%TD*%
D24*
%TO.C,U8*%
X81351000Y-140028000D03*
X81351000Y-137808000D03*
X79071000Y-140028000D03*
X79071000Y-137808000D03*
D25*
X84361000Y-140823000D03*
X84361000Y-139553000D03*
X84361000Y-138283000D03*
X84361000Y-137013000D03*
X76061000Y-137013000D03*
X76061000Y-138283000D03*
X76061000Y-139553000D03*
X76061000Y-140823000D03*
%TD*%
D12*
%TO.C,P1*%
X130064999Y-129814999D03*
X130064999Y-131714999D03*
X132564999Y-130764999D03*
%TD*%
D17*
%TO.C,R13*%
X63119000Y-56595000D03*
X63119000Y-58420000D03*
%TD*%
D26*
%TO.C,C4*%
X139065000Y-95377000D03*
X139065000Y-93477000D03*
%TD*%
D16*
%TO.C,LED1*%
X70103999Y-129539999D03*
X70103999Y-128039999D03*
%TD*%
D15*
%TO.C,R4*%
X127692000Y-134448000D03*
X125867000Y-134448000D03*
%TD*%
D27*
%TO.C,U7*%
X69789999Y-66313199D03*
X68539999Y-66313199D03*
X67289999Y-66313199D03*
X66039999Y-66313199D03*
X69789999Y-67446599D03*
X68539999Y-67446599D03*
X67289999Y-67446599D03*
X66039999Y-67446599D03*
X69789999Y-68579999D03*
X68539999Y-68579999D03*
X67289999Y-68579999D03*
X66039999Y-68579999D03*
D28*
X70189999Y-64671599D03*
X69539999Y-64671599D03*
X68889999Y-64671599D03*
X68239999Y-64671599D03*
X67589999Y-64671599D03*
X66939999Y-64671599D03*
X66289999Y-64671599D03*
X65639999Y-64671599D03*
X65639999Y-70221599D03*
X66289999Y-70221599D03*
X66939999Y-70221599D03*
X67589999Y-70221599D03*
X68239999Y-70221599D03*
X68889999Y-70221599D03*
X69539999Y-70221599D03*
X70189999Y-70221599D03*
%TD*%
D17*
%TO.C,R28*%
X77089000Y-64492500D03*
X77089000Y-66317500D03*
%TD*%
D15*
%TO.C,R29*%
X135822000Y-71120000D03*
X133997000Y-71120000D03*
%TD*%
D11*
%TO.C,C7*%
X97790000Y-96774000D03*
X97790000Y-98674000D03*
%TD*%
D26*
%TO.C,C2*%
X75438000Y-134747000D03*
X75438000Y-132847000D03*
%TD*%
D17*
%TO.C,R5*%
X72771000Y-132922000D03*
X72771000Y-134747000D03*
%TD*%
D29*
%TO.C,R11*%
X143002000Y-130937000D03*
X143002000Y-129112000D03*
%TD*%
D26*
%TO.C,C1*%
X87249000Y-134874000D03*
X87249000Y-132974000D03*
%TD*%
D18*
%TO.C,U2*%
X102188999Y-128142999D03*
D19*
X103689000Y-128055500D03*
D18*
X105188999Y-128142999D03*
%TD*%
D30*
%TO.C,U3*%
X138800000Y-99172000D03*
X138800000Y-99822000D03*
X138800000Y-100472000D03*
X140600000Y-100472000D03*
X140600000Y-99822000D03*
X140600000Y-99172000D03*
%TD*%
D11*
%TO.C,C6*%
X102870000Y-96774000D03*
X102870000Y-98674000D03*
%TD*%
D15*
%TO.C,R22*%
X145843000Y-102362000D03*
X144018000Y-102362000D03*
%TD*%
%TO.C,R21*%
X145923000Y-104902000D03*
X144098000Y-104902000D03*
%TD*%
D29*
%TO.C,R1*%
X70104000Y-134794000D03*
X70104000Y-132969000D03*
%TD*%
D31*
%TO.C,Q1*%
X96138999Y-136494999D03*
X96138999Y-137144999D03*
X96138999Y-137794999D03*
X98038999Y-137794999D03*
X98038999Y-137144999D03*
X98038999Y-136494999D03*
%TD*%
D17*
%TO.C,R12*%
X58420000Y-129657000D03*
X58420000Y-131482000D03*
%TD*%
%TO.C,R10*%
X99244000Y-131572000D03*
X99244000Y-133397000D03*
%TD*%
D15*
%TO.C,R7*%
X114888500Y-136861000D03*
X113063500Y-136861000D03*
%TD*%
%TO.C,R26*%
X145843000Y-99822000D03*
X144018000Y-99822000D03*
%TD*%
D13*
%TO.C,U9*%
X119298000Y-126893000D03*
X117798000Y-126893000D03*
X119298000Y-128033000D03*
X117798000Y-128033000D03*
D14*
X120453000Y-124988000D03*
X119183000Y-124988000D03*
X117913000Y-124988000D03*
X116643000Y-124988000D03*
X116643000Y-129938000D03*
X117913000Y-129938000D03*
X119183000Y-129938000D03*
X120453000Y-129938000D03*
%TD*%
D29*
%TO.C,R6*%
X78105000Y-134667000D03*
X78105000Y-132842000D03*
%TD*%
D32*
%TO.C,U4*%
X62624000Y-101095000D03*
X62624000Y-100445000D03*
X62624000Y-99795000D03*
X60824000Y-99795000D03*
X60824000Y-100445000D03*
X60824000Y-101095000D03*
%TD*%
D29*
%TO.C,R31*%
X74676000Y-66294000D03*
X74676000Y-64469000D03*
%TD*%
M02*
