M48
; DRILL file {KiCad (7.0.0)} date Mon Apr  3 20:41:53 2023
; FORMAT={-:-/ absolute / metric / decimal}
; #@! TF.CreationDate,2023-04-03T20:41:53+02:00
; #@! TF.GenerationSoftware,Kicad,Pcbnew,(7.0.0)
; #@! TF.FileFunction,Plated,1,2,PTH
FMAT,2
METRIC
; #@! TA.AperFunction,Plated,PTH,ViaDrill
T1C0.400
; #@! TA.AperFunction,Plated,PTH,ViaDrill
T2C0.500
; #@! TA.AperFunction,Plated,PTH,ComponentDrill
T3C0.500
; #@! TA.AperFunction,Plated,PTH,ComponentDrill
T4C0.700
; #@! TA.AperFunction,Plated,PTH,ComponentDrill
T5C0.762
; #@! TA.AperFunction,Plated,PTH,ComponentDrill
T6C0.800
; #@! TA.AperFunction,Plated,PTH,ComponentDrill
T7C1.380
; #@! TA.AperFunction,Plated,PTH,ViaDrill
T8C3.000
%
G90
G05
T1
X65.405Y-60.452
X68.072Y-60.452
X92.583Y-109.347
X99.441Y-109.347
T2
X56.261Y-91.948
X58.42Y-114.554
X58.42Y-120.523
X60.579Y-93.98
X65.786Y-93.345
X68.961Y-72.263
X69.215Y-62.484
X70.866Y-62.611
X72.136Y-64.008
X74.422Y-72.263
X75.438Y-131.064
X78.105Y-129.032
X79.375Y-83.058
X80.899Y-82.042
X81.788Y-120.777
X82.677Y-81.153
X87.249Y-129.921
X90.043Y-102.235
X94.107Y-102.235
X94.107Y-137.922
X97.028Y-130.623
X101.219Y-115.062
X101.981Y-133.477
X103.632Y-130.556
X103.632Y-138.43
X107.569Y-115.062
X107.696Y-81.534
X107.696Y-83.439
X110.236Y-98.679
X110.236Y-136.906
X110.49Y-134.366
X114.484Y-127.336
X119.126Y-122.428
X121.158Y-74.803
X125.66Y-127.59
X127.127Y-116.078
X127.127Y-119.634
X128.524Y-109.347
X129.159Y-101.473
X132.461Y-68.834
X135.128Y-100.457
X135.693Y-131.146
X135.822Y-74.803
X145.796Y-92.71
T4
X64.212Y-54.466
X69.062Y-54.466
T5
X71.98Y-89.6
X71.98Y-106.11
X74.52Y-89.6
X74.52Y-106.11
X77.06Y-89.6
X77.06Y-106.11
X79.6Y-89.6
X79.6Y-106.11
X82.14Y-89.6
X82.14Y-106.11
X84.68Y-89.6
X84.68Y-106.11
X87.22Y-89.6
X87.22Y-106.11
X89.76Y-89.6
X89.76Y-106.11
X92.3Y-89.6
X92.3Y-106.11
X94.84Y-89.6
X94.84Y-106.11
X97.38Y-89.6
X97.38Y-106.11
X99.92Y-89.6
X99.92Y-106.11
X102.46Y-89.6
X102.46Y-106.11
X105.0Y-89.6
X105.0Y-106.11
X107.54Y-89.6
X107.54Y-106.11
X110.08Y-89.6
X110.08Y-106.11
X112.62Y-89.6
X112.62Y-106.11
X115.16Y-89.6
X115.16Y-106.11
X117.7Y-89.6
X117.7Y-106.11
X120.24Y-89.6
X120.24Y-106.11
X122.78Y-89.6
X122.78Y-106.11
X125.32Y-89.6
X125.32Y-106.11
X127.86Y-89.6
X127.86Y-106.11
X130.4Y-89.6
X130.4Y-106.11
T6
X56.388Y-53.594
X56.388Y-61.194
X58.547Y-138.303
X58.547Y-145.903
X142.748Y-53.721
X142.748Y-61.321
X143.002Y-138.821
X143.002Y-146.421
T8
X75.0Y-55.0
X75.0Y-145.0
X125.0Y-55.0
X125.0Y-145.0
T3
X63.037Y-51.416G85X63.037Y-52.216
G05
X70.237Y-51.416G85X70.237Y-52.216
G05
T7
X64.897Y-123.696G85X64.897Y-124.716
G05
X137.797Y-123.696G85X137.797Y-124.716
G05
T0
M30
