%TF.GenerationSoftware,KiCad,Pcbnew,(7.0.0)*%
%TF.CreationDate,2023-03-21T11:43:52+02:00*%
%TF.ProjectId,EEE3088,45454533-3038-4382-9e6b-696361645f70,rev?*%
%TF.SameCoordinates,Original*%
%TF.FileFunction,Legend,Bot*%
%TF.FilePolarity,Positive*%
%FSLAX46Y46*%
G04 Gerber Fmt 4.6, Leading zero omitted, Abs format (unit mm)*
G04 Created by KiCad (PCBNEW (7.0.0)) date 2023-03-21 11:43:52*
%MOMM*%
%LPD*%
G01*
G04 APERTURE LIST*
%ADD10C,0.150000*%
%ADD11C,0.127000*%
G04 APERTURE END LIST*
D10*
%TO.C,Battery-Holder1*%
X116029334Y-65313000D02*
X115829334Y-65379666D01*
X115829334Y-65379666D02*
X115762667Y-65446333D01*
X115762667Y-65446333D02*
X115696000Y-65579666D01*
X115696000Y-65579666D02*
X115696000Y-65779666D01*
X115696000Y-65779666D02*
X115762667Y-65913000D01*
X115762667Y-65913000D02*
X115829334Y-65979666D01*
X115829334Y-65979666D02*
X115962667Y-66046333D01*
X115962667Y-66046333D02*
X116496000Y-66046333D01*
X116496000Y-66046333D02*
X116496000Y-64646333D01*
X116496000Y-64646333D02*
X116029334Y-64646333D01*
X116029334Y-64646333D02*
X115896000Y-64713000D01*
X115896000Y-64713000D02*
X115829334Y-64779666D01*
X115829334Y-64779666D02*
X115762667Y-64913000D01*
X115762667Y-64913000D02*
X115762667Y-65046333D01*
X115762667Y-65046333D02*
X115829334Y-65179666D01*
X115829334Y-65179666D02*
X115896000Y-65246333D01*
X115896000Y-65246333D02*
X116029334Y-65313000D01*
X116029334Y-65313000D02*
X116496000Y-65313000D01*
X114496000Y-66046333D02*
X114496000Y-65313000D01*
X114496000Y-65313000D02*
X114562667Y-65179666D01*
X114562667Y-65179666D02*
X114696000Y-65113000D01*
X114696000Y-65113000D02*
X114962667Y-65113000D01*
X114962667Y-65113000D02*
X115096000Y-65179666D01*
X114496000Y-65979666D02*
X114629334Y-66046333D01*
X114629334Y-66046333D02*
X114962667Y-66046333D01*
X114962667Y-66046333D02*
X115096000Y-65979666D01*
X115096000Y-65979666D02*
X115162667Y-65846333D01*
X115162667Y-65846333D02*
X115162667Y-65713000D01*
X115162667Y-65713000D02*
X115096000Y-65579666D01*
X115096000Y-65579666D02*
X114962667Y-65513000D01*
X114962667Y-65513000D02*
X114629334Y-65513000D01*
X114629334Y-65513000D02*
X114496000Y-65446333D01*
X114029333Y-65113000D02*
X113496000Y-65113000D01*
X113829333Y-64646333D02*
X113829333Y-65846333D01*
X113829333Y-65846333D02*
X113762667Y-65979666D01*
X113762667Y-65979666D02*
X113629333Y-66046333D01*
X113629333Y-66046333D02*
X113496000Y-66046333D01*
X113229333Y-65113000D02*
X112696000Y-65113000D01*
X113029333Y-64646333D02*
X113029333Y-65846333D01*
X113029333Y-65846333D02*
X112962667Y-65979666D01*
X112962667Y-65979666D02*
X112829333Y-66046333D01*
X112829333Y-66046333D02*
X112696000Y-66046333D01*
X111696000Y-65979666D02*
X111829333Y-66046333D01*
X111829333Y-66046333D02*
X112096000Y-66046333D01*
X112096000Y-66046333D02*
X112229333Y-65979666D01*
X112229333Y-65979666D02*
X112296000Y-65846333D01*
X112296000Y-65846333D02*
X112296000Y-65313000D01*
X112296000Y-65313000D02*
X112229333Y-65179666D01*
X112229333Y-65179666D02*
X112096000Y-65113000D01*
X112096000Y-65113000D02*
X111829333Y-65113000D01*
X111829333Y-65113000D02*
X111696000Y-65179666D01*
X111696000Y-65179666D02*
X111629333Y-65313000D01*
X111629333Y-65313000D02*
X111629333Y-65446333D01*
X111629333Y-65446333D02*
X112296000Y-65579666D01*
X111029333Y-66046333D02*
X111029333Y-65113000D01*
X111029333Y-65379666D02*
X110962667Y-65246333D01*
X110962667Y-65246333D02*
X110896000Y-65179666D01*
X110896000Y-65179666D02*
X110762667Y-65113000D01*
X110762667Y-65113000D02*
X110629333Y-65113000D01*
X110296000Y-65113000D02*
X109962666Y-66046333D01*
X109629333Y-65113000D02*
X109962666Y-66046333D01*
X109962666Y-66046333D02*
X110096000Y-66379666D01*
X110096000Y-66379666D02*
X110162666Y-66446333D01*
X110162666Y-66446333D02*
X110296000Y-66513000D01*
X109095999Y-65513000D02*
X108029333Y-65513000D01*
X107362666Y-66046333D02*
X107362666Y-64646333D01*
X107362666Y-65313000D02*
X106562666Y-65313000D01*
X106562666Y-66046333D02*
X106562666Y-64646333D01*
X105695999Y-66046333D02*
X105829333Y-65979666D01*
X105829333Y-65979666D02*
X105895999Y-65913000D01*
X105895999Y-65913000D02*
X105962666Y-65779666D01*
X105962666Y-65779666D02*
X105962666Y-65379666D01*
X105962666Y-65379666D02*
X105895999Y-65246333D01*
X105895999Y-65246333D02*
X105829333Y-65179666D01*
X105829333Y-65179666D02*
X105695999Y-65113000D01*
X105695999Y-65113000D02*
X105495999Y-65113000D01*
X105495999Y-65113000D02*
X105362666Y-65179666D01*
X105362666Y-65179666D02*
X105295999Y-65246333D01*
X105295999Y-65246333D02*
X105229333Y-65379666D01*
X105229333Y-65379666D02*
X105229333Y-65779666D01*
X105229333Y-65779666D02*
X105295999Y-65913000D01*
X105295999Y-65913000D02*
X105362666Y-65979666D01*
X105362666Y-65979666D02*
X105495999Y-66046333D01*
X105495999Y-66046333D02*
X105695999Y-66046333D01*
X104429332Y-66046333D02*
X104562666Y-65979666D01*
X104562666Y-65979666D02*
X104629332Y-65846333D01*
X104629332Y-65846333D02*
X104629332Y-64646333D01*
X103295999Y-66046333D02*
X103295999Y-64646333D01*
X103295999Y-65979666D02*
X103429333Y-66046333D01*
X103429333Y-66046333D02*
X103695999Y-66046333D01*
X103695999Y-66046333D02*
X103829333Y-65979666D01*
X103829333Y-65979666D02*
X103895999Y-65913000D01*
X103895999Y-65913000D02*
X103962666Y-65779666D01*
X103962666Y-65779666D02*
X103962666Y-65379666D01*
X103962666Y-65379666D02*
X103895999Y-65246333D01*
X103895999Y-65246333D02*
X103829333Y-65179666D01*
X103829333Y-65179666D02*
X103695999Y-65113000D01*
X103695999Y-65113000D02*
X103429333Y-65113000D01*
X103429333Y-65113000D02*
X103295999Y-65179666D01*
X102095999Y-65979666D02*
X102229332Y-66046333D01*
X102229332Y-66046333D02*
X102495999Y-66046333D01*
X102495999Y-66046333D02*
X102629332Y-65979666D01*
X102629332Y-65979666D02*
X102695999Y-65846333D01*
X102695999Y-65846333D02*
X102695999Y-65313000D01*
X102695999Y-65313000D02*
X102629332Y-65179666D01*
X102629332Y-65179666D02*
X102495999Y-65113000D01*
X102495999Y-65113000D02*
X102229332Y-65113000D01*
X102229332Y-65113000D02*
X102095999Y-65179666D01*
X102095999Y-65179666D02*
X102029332Y-65313000D01*
X102029332Y-65313000D02*
X102029332Y-65446333D01*
X102029332Y-65446333D02*
X102695999Y-65579666D01*
X101429332Y-66046333D02*
X101429332Y-65113000D01*
X101429332Y-65379666D02*
X101362666Y-65246333D01*
X101362666Y-65246333D02*
X101295999Y-65179666D01*
X101295999Y-65179666D02*
X101162666Y-65113000D01*
X101162666Y-65113000D02*
X101029332Y-65113000D01*
X99829332Y-66046333D02*
X100629332Y-66046333D01*
X100229332Y-66046333D02*
X100229332Y-64646333D01*
X100229332Y-64646333D02*
X100362665Y-64846333D01*
X100362665Y-64846333D02*
X100495999Y-64979666D01*
X100495999Y-64979666D02*
X100629332Y-65046333D01*
X97934332Y-80118000D02*
X96867666Y-80118000D01*
D11*
X99826000Y-70322000D02*
X177526000Y-70322000D01*
X99826000Y-91222000D02*
X99826000Y-70322000D01*
X177526000Y-70322000D02*
X177526000Y-91222000D01*
X177526000Y-91222000D02*
X99826000Y-91222000D01*
%TD*%
M02*
