%TF.GenerationSoftware,KiCad,Pcbnew,(7.0.0)*%
%TF.CreationDate,2023-04-03T20:42:17+02:00*%
%TF.ProjectId,EEE3088,45454533-3038-4382-9e6b-696361645f70,Rev_0*%
%TF.SameCoordinates,Original*%
%TF.FileFunction,Drillmap*%
%TF.FilePolarity,Positive*%
%FSLAX45Y45*%
G04 Gerber Fmt 4.5, Leading zero omitted, Abs format (unit mm)*
G04 Created by KiCad (PCBNEW (7.0.0)) date 2023-04-03 20:42:17*
%MOMM*%
%LPD*%
G01*
G04 APERTURE LIST*
%ADD10C,0.100000*%
%ADD11C,0.200000*%
%ADD12C,0.040000*%
%ADD13C,0.050000*%
%ADD14C,0.070000*%
%ADD15C,0.076200*%
%ADD16C,0.080000*%
%ADD17C,0.138000*%
%ADD18C,0.300000*%
G04 APERTURE END LIST*
D10*
X15000000Y-14500000D02*
X15000000Y-5500000D01*
X5500000Y-5000000D02*
G75*
G03*
X5000000Y-5500000I0J-500000D01*
G01*
X5500000Y-15000000D02*
X14500000Y-15000000D01*
X12000000Y-8000000D02*
X12000000Y-5000000D01*
X15000000Y-5500000D02*
G75*
G03*
X14500000Y-5000000I-500000J0D01*
G01*
X8000000Y-5000000D02*
X8000000Y-8000000D01*
X5000000Y-5500000D02*
X5000000Y-14500000D01*
X5000000Y-14500000D02*
G75*
G03*
X5500000Y-15000000I500000J0D01*
G01*
X14500000Y-15000000D02*
G75*
G03*
X15000000Y-14500000I0J500000D01*
G01*
X5500000Y-5000000D02*
X8000000Y-5000000D01*
X8000000Y-8000000D02*
X12000000Y-8000000D01*
X12000000Y-5000000D02*
X14500000Y-5000000D01*
D11*
D12*
X6520500Y-6025200D02*
X6560500Y-6065200D01*
X6560500Y-6025200D02*
X6520500Y-6065200D01*
X6787200Y-6025200D02*
X6827200Y-6065200D01*
X6827200Y-6025200D02*
X6787200Y-6065200D01*
X9238300Y-10914700D02*
X9278300Y-10954700D01*
X9278300Y-10914700D02*
X9238300Y-10954700D01*
X9924100Y-10914700D02*
X9964100Y-10954700D01*
X9964100Y-10914700D02*
X9924100Y-10954700D01*
D13*
X5651100Y-9194800D02*
G75*
G03*
X5651100Y-9194800I-25000J0D01*
G01*
X5867000Y-11455400D02*
G75*
G03*
X5867000Y-11455400I-25000J0D01*
G01*
X5867000Y-12052300D02*
G75*
G03*
X5867000Y-12052300I-25000J0D01*
G01*
X6082900Y-9398000D02*
G75*
G03*
X6082900Y-9398000I-25000J0D01*
G01*
X6603600Y-9334500D02*
G75*
G03*
X6603600Y-9334500I-25000J0D01*
G01*
X6921100Y-7226300D02*
G75*
G03*
X6921100Y-7226300I-25000J0D01*
G01*
X6946500Y-6248400D02*
G75*
G03*
X6946500Y-6248400I-25000J0D01*
G01*
X7111600Y-6261100D02*
G75*
G03*
X7111600Y-6261100I-25000J0D01*
G01*
X7238600Y-6400800D02*
G75*
G03*
X7238600Y-6400800I-25000J0D01*
G01*
X7467200Y-7226300D02*
G75*
G03*
X7467200Y-7226300I-25000J0D01*
G01*
X7568800Y-13106400D02*
G75*
G03*
X7568800Y-13106400I-25000J0D01*
G01*
X7835500Y-12903200D02*
G75*
G03*
X7835500Y-12903200I-25000J0D01*
G01*
X7962500Y-8305800D02*
G75*
G03*
X7962500Y-8305800I-25000J0D01*
G01*
X8114900Y-8204200D02*
G75*
G03*
X8114900Y-8204200I-25000J0D01*
G01*
X8203800Y-12077700D02*
G75*
G03*
X8203800Y-12077700I-25000J0D01*
G01*
X8292700Y-8115300D02*
G75*
G03*
X8292700Y-8115300I-25000J0D01*
G01*
X8749900Y-12992100D02*
G75*
G03*
X8749900Y-12992100I-25000J0D01*
G01*
X9029300Y-10223500D02*
G75*
G03*
X9029300Y-10223500I-25000J0D01*
G01*
X9435700Y-10223500D02*
G75*
G03*
X9435700Y-10223500I-25000J0D01*
G01*
X9435700Y-13792200D02*
G75*
G03*
X9435700Y-13792200I-25000J0D01*
G01*
X9727800Y-13062250D02*
G75*
G03*
X9727800Y-13062250I-25000J0D01*
G01*
X10146900Y-11506200D02*
G75*
G03*
X10146900Y-11506200I-25000J0D01*
G01*
X10223100Y-13347700D02*
G75*
G03*
X10223100Y-13347700I-25000J0D01*
G01*
X10388200Y-13055600D02*
G75*
G03*
X10388200Y-13055600I-25000J0D01*
G01*
X10388200Y-13843000D02*
G75*
G03*
X10388200Y-13843000I-25000J0D01*
G01*
X10781900Y-11506200D02*
G75*
G03*
X10781900Y-11506200I-25000J0D01*
G01*
X10794600Y-8153400D02*
G75*
G03*
X10794600Y-8153400I-25000J0D01*
G01*
X10794600Y-8343900D02*
G75*
G03*
X10794600Y-8343900I-25000J0D01*
G01*
X11048600Y-9867900D02*
G75*
G03*
X11048600Y-9867900I-25000J0D01*
G01*
X11048600Y-13690600D02*
G75*
G03*
X11048600Y-13690600I-25000J0D01*
G01*
X11074000Y-13436600D02*
G75*
G03*
X11074000Y-13436600I-25000J0D01*
G01*
X11473400Y-12733600D02*
G75*
G03*
X11473400Y-12733600I-25000J0D01*
G01*
X11937600Y-12242800D02*
G75*
G03*
X11937600Y-12242800I-25000J0D01*
G01*
X12140800Y-7480300D02*
G75*
G03*
X12140800Y-7480300I-25000J0D01*
G01*
X12591000Y-12759000D02*
G75*
G03*
X12591000Y-12759000I-25000J0D01*
G01*
X12737700Y-11607800D02*
G75*
G03*
X12737700Y-11607800I-25000J0D01*
G01*
X12737700Y-11963400D02*
G75*
G03*
X12737700Y-11963400I-25000J0D01*
G01*
X12877400Y-10934700D02*
G75*
G03*
X12877400Y-10934700I-25000J0D01*
G01*
X12940900Y-10147300D02*
G75*
G03*
X12940900Y-10147300I-25000J0D01*
G01*
X13271100Y-6883400D02*
G75*
G03*
X13271100Y-6883400I-25000J0D01*
G01*
X13537800Y-10045700D02*
G75*
G03*
X13537800Y-10045700I-25000J0D01*
G01*
X13594300Y-13114600D02*
G75*
G03*
X13594300Y-13114600I-25000J0D01*
G01*
X13607200Y-7480300D02*
G75*
G03*
X13607200Y-7480300I-25000J0D01*
G01*
X14604600Y-9271000D02*
G75*
G03*
X14604600Y-9271000I-25000J0D01*
G01*
X6303700Y-5156600D02*
X6303700Y-5206600D01*
X6278700Y-5181600D02*
X6328700Y-5181600D01*
D11*
X6278700Y-5141600D02*
X6278700Y-5221600D01*
X6278700Y-5221600D02*
G75*
G03*
X6328700Y-5221600I25000J0D01*
G01*
X6328700Y-5221600D02*
X6328700Y-5141600D01*
X6328700Y-5141600D02*
G75*
G03*
X6278700Y-5141600I-25000J0D01*
G01*
D13*
X7023700Y-5156600D02*
X7023700Y-5206600D01*
X6998700Y-5181600D02*
X7048700Y-5181600D01*
D11*
X6998700Y-5141600D02*
X6998700Y-5221600D01*
X6998700Y-5221600D02*
G75*
G03*
X7048700Y-5221600I25000J0D01*
G01*
X7048700Y-5221600D02*
X7048700Y-5141600D01*
X7048700Y-5141600D02*
G75*
G03*
X6998700Y-5141600I-25000J0D01*
G01*
D14*
X6445949Y-5471349D02*
X6445949Y-5421851D01*
X6396451Y-5421851D01*
X6396451Y-5471349D01*
X6445949Y-5471349D01*
X6930949Y-5471349D02*
X6930949Y-5421851D01*
X6881451Y-5421851D01*
X6881451Y-5471349D01*
X6930949Y-5471349D01*
D15*
X7198000Y-8998100D02*
X7236100Y-8960000D01*
X7198000Y-8921900D01*
X7159900Y-8960000D01*
X7198000Y-8998100D01*
X7198000Y-10649100D02*
X7236100Y-10611000D01*
X7198000Y-10572900D01*
X7159900Y-10611000D01*
X7198000Y-10649100D01*
X7452000Y-8998100D02*
X7490100Y-8960000D01*
X7452000Y-8921900D01*
X7413900Y-8960000D01*
X7452000Y-8998100D01*
X7452000Y-10649100D02*
X7490100Y-10611000D01*
X7452000Y-10572900D01*
X7413900Y-10611000D01*
X7452000Y-10649100D01*
X7706000Y-8998100D02*
X7744100Y-8960000D01*
X7706000Y-8921900D01*
X7667900Y-8960000D01*
X7706000Y-8998100D01*
X7706000Y-10649100D02*
X7744100Y-10611000D01*
X7706000Y-10572900D01*
X7667900Y-10611000D01*
X7706000Y-10649100D01*
X7960000Y-8998100D02*
X7998100Y-8960000D01*
X7960000Y-8921900D01*
X7921900Y-8960000D01*
X7960000Y-8998100D01*
X7960000Y-10649100D02*
X7998100Y-10611000D01*
X7960000Y-10572900D01*
X7921900Y-10611000D01*
X7960000Y-10649100D01*
X8214000Y-8998100D02*
X8252100Y-8960000D01*
X8214000Y-8921900D01*
X8175900Y-8960000D01*
X8214000Y-8998100D01*
X8214000Y-10649100D02*
X8252100Y-10611000D01*
X8214000Y-10572900D01*
X8175900Y-10611000D01*
X8214000Y-10649100D01*
X8468000Y-8998100D02*
X8506100Y-8960000D01*
X8468000Y-8921900D01*
X8429900Y-8960000D01*
X8468000Y-8998100D01*
X8468000Y-10649100D02*
X8506100Y-10611000D01*
X8468000Y-10572900D01*
X8429900Y-10611000D01*
X8468000Y-10649100D01*
X8722000Y-8998100D02*
X8760100Y-8960000D01*
X8722000Y-8921900D01*
X8683900Y-8960000D01*
X8722000Y-8998100D01*
X8722000Y-10649100D02*
X8760100Y-10611000D01*
X8722000Y-10572900D01*
X8683900Y-10611000D01*
X8722000Y-10649100D01*
X8976000Y-8998100D02*
X9014100Y-8960000D01*
X8976000Y-8921900D01*
X8937900Y-8960000D01*
X8976000Y-8998100D01*
X8976000Y-10649100D02*
X9014100Y-10611000D01*
X8976000Y-10572900D01*
X8937900Y-10611000D01*
X8976000Y-10649100D01*
X9230000Y-8998100D02*
X9268100Y-8960000D01*
X9230000Y-8921900D01*
X9191900Y-8960000D01*
X9230000Y-8998100D01*
X9230000Y-10649100D02*
X9268100Y-10611000D01*
X9230000Y-10572900D01*
X9191900Y-10611000D01*
X9230000Y-10649100D01*
X9484000Y-8998100D02*
X9522100Y-8960000D01*
X9484000Y-8921900D01*
X9445900Y-8960000D01*
X9484000Y-8998100D01*
X9484000Y-10649100D02*
X9522100Y-10611000D01*
X9484000Y-10572900D01*
X9445900Y-10611000D01*
X9484000Y-10649100D01*
X9738000Y-8998100D02*
X9776100Y-8960000D01*
X9738000Y-8921900D01*
X9699900Y-8960000D01*
X9738000Y-8998100D01*
X9738000Y-10649100D02*
X9776100Y-10611000D01*
X9738000Y-10572900D01*
X9699900Y-10611000D01*
X9738000Y-10649100D01*
X9992000Y-8998100D02*
X10030100Y-8960000D01*
X9992000Y-8921900D01*
X9953900Y-8960000D01*
X9992000Y-8998100D01*
X9992000Y-10649100D02*
X10030100Y-10611000D01*
X9992000Y-10572900D01*
X9953900Y-10611000D01*
X9992000Y-10649100D01*
X10246000Y-8998100D02*
X10284100Y-8960000D01*
X10246000Y-8921900D01*
X10207900Y-8960000D01*
X10246000Y-8998100D01*
X10246000Y-10649100D02*
X10284100Y-10611000D01*
X10246000Y-10572900D01*
X10207900Y-10611000D01*
X10246000Y-10649100D01*
X10500000Y-8998100D02*
X10538100Y-8960000D01*
X10500000Y-8921900D01*
X10461900Y-8960000D01*
X10500000Y-8998100D01*
X10500000Y-10649100D02*
X10538100Y-10611000D01*
X10500000Y-10572900D01*
X10461900Y-10611000D01*
X10500000Y-10649100D01*
X10754000Y-8998100D02*
X10792100Y-8960000D01*
X10754000Y-8921900D01*
X10715900Y-8960000D01*
X10754000Y-8998100D01*
X10754000Y-10649100D02*
X10792100Y-10611000D01*
X10754000Y-10572900D01*
X10715900Y-10611000D01*
X10754000Y-10649100D01*
X11008000Y-8998100D02*
X11046100Y-8960000D01*
X11008000Y-8921900D01*
X10969900Y-8960000D01*
X11008000Y-8998100D01*
X11008000Y-10649100D02*
X11046100Y-10611000D01*
X11008000Y-10572900D01*
X10969900Y-10611000D01*
X11008000Y-10649100D01*
X11262000Y-8998100D02*
X11300100Y-8960000D01*
X11262000Y-8921900D01*
X11223900Y-8960000D01*
X11262000Y-8998100D01*
X11262000Y-10649100D02*
X11300100Y-10611000D01*
X11262000Y-10572900D01*
X11223900Y-10611000D01*
X11262000Y-10649100D01*
X11516000Y-8998100D02*
X11554100Y-8960000D01*
X11516000Y-8921900D01*
X11477900Y-8960000D01*
X11516000Y-8998100D01*
X11516000Y-10649100D02*
X11554100Y-10611000D01*
X11516000Y-10572900D01*
X11477900Y-10611000D01*
X11516000Y-10649100D01*
X11770000Y-8998100D02*
X11808100Y-8960000D01*
X11770000Y-8921900D01*
X11731900Y-8960000D01*
X11770000Y-8998100D01*
X11770000Y-10649100D02*
X11808100Y-10611000D01*
X11770000Y-10572900D01*
X11731900Y-10611000D01*
X11770000Y-10649100D01*
X12024000Y-8998100D02*
X12062100Y-8960000D01*
X12024000Y-8921900D01*
X11985900Y-8960000D01*
X12024000Y-8998100D01*
X12024000Y-10649100D02*
X12062100Y-10611000D01*
X12024000Y-10572900D01*
X11985900Y-10611000D01*
X12024000Y-10649100D01*
X12278000Y-8998100D02*
X12316100Y-8960000D01*
X12278000Y-8921900D01*
X12239900Y-8960000D01*
X12278000Y-8998100D01*
X12278000Y-10649100D02*
X12316100Y-10611000D01*
X12278000Y-10572900D01*
X12239900Y-10611000D01*
X12278000Y-10649100D01*
X12532000Y-8998100D02*
X12570100Y-8960000D01*
X12532000Y-8921900D01*
X12493900Y-8960000D01*
X12532000Y-8998100D01*
X12532000Y-10649100D02*
X12570100Y-10611000D01*
X12532000Y-10572900D01*
X12493900Y-10611000D01*
X12532000Y-10649100D01*
X12786000Y-8998100D02*
X12824100Y-8960000D01*
X12786000Y-8921900D01*
X12747900Y-8960000D01*
X12786000Y-8998100D01*
X12786000Y-10649100D02*
X12824100Y-10611000D01*
X12786000Y-10572900D01*
X12747900Y-10611000D01*
X12786000Y-10649100D01*
X13040000Y-8998100D02*
X13078100Y-8960000D01*
X13040000Y-8921900D01*
X13001900Y-8960000D01*
X13040000Y-8998100D01*
X13040000Y-10649100D02*
X13078100Y-10611000D01*
X13040000Y-10572900D01*
X13001900Y-10611000D01*
X13040000Y-10649100D01*
D16*
X5598800Y-5319400D02*
X5678800Y-5399400D01*
X5678800Y-5319400D02*
X5598800Y-5399400D01*
X5678800Y-5359400D02*
G75*
G03*
X5678800Y-5359400I-40000J0D01*
G01*
X5598800Y-6079400D02*
X5678800Y-6159400D01*
X5678800Y-6079400D02*
X5598800Y-6159400D01*
X5678800Y-6119400D02*
G75*
G03*
X5678800Y-6119400I-40000J0D01*
G01*
X5814700Y-13790300D02*
X5894700Y-13870300D01*
X5894700Y-13790300D02*
X5814700Y-13870300D01*
X5894700Y-13830300D02*
G75*
G03*
X5894700Y-13830300I-40000J0D01*
G01*
X5814700Y-14550300D02*
X5894700Y-14630300D01*
X5894700Y-14550300D02*
X5814700Y-14630300D01*
X5894700Y-14590300D02*
G75*
G03*
X5894700Y-14590300I-40000J0D01*
G01*
X14234800Y-5332100D02*
X14314800Y-5412100D01*
X14314800Y-5332100D02*
X14234800Y-5412100D01*
X14314800Y-5372100D02*
G75*
G03*
X14314800Y-5372100I-40000J0D01*
G01*
X14234800Y-6092100D02*
X14314800Y-6172100D01*
X14314800Y-6092100D02*
X14234800Y-6172100D01*
X14314800Y-6132100D02*
G75*
G03*
X14314800Y-6132100I-40000J0D01*
G01*
X14260200Y-13842100D02*
X14340200Y-13922100D01*
X14340200Y-13842100D02*
X14260200Y-13922100D01*
X14340200Y-13882100D02*
G75*
G03*
X14340200Y-13882100I-40000J0D01*
G01*
X14260200Y-14602100D02*
X14340200Y-14682100D01*
X14340200Y-14602100D02*
X14260200Y-14682100D01*
X14340200Y-14642100D02*
G75*
G03*
X14340200Y-14642100I-40000J0D01*
G01*
D17*
X6420700Y-12351600D02*
X6558700Y-12489600D01*
X6558700Y-12351600D02*
X6420700Y-12489600D01*
X6489700Y-12351600D02*
X6489700Y-12489600D01*
X6420700Y-12420600D02*
X6558700Y-12420600D01*
D11*
X6420700Y-12369600D02*
X6420700Y-12471600D01*
X6420700Y-12471600D02*
G75*
G03*
X6558700Y-12471600I69000J0D01*
G01*
X6558700Y-12471600D02*
X6558700Y-12369600D01*
X6558700Y-12369600D02*
G75*
G03*
X6420700Y-12369600I-69000J0D01*
G01*
D17*
X13710700Y-12351600D02*
X13848700Y-12489600D01*
X13848700Y-12351600D02*
X13710700Y-12489600D01*
X13779700Y-12351600D02*
X13779700Y-12489600D01*
X13710700Y-12420600D02*
X13848700Y-12420600D01*
D11*
X13710700Y-12369600D02*
X13710700Y-12471600D01*
X13710700Y-12471600D02*
G75*
G03*
X13848700Y-12471600I69000J0D01*
G01*
X13848700Y-12471600D02*
X13848700Y-12369600D01*
X13848700Y-12369600D02*
G75*
G03*
X13710700Y-12369600I-69000J0D01*
G01*
D18*
X7350000Y-5350000D02*
X7650000Y-5650000D01*
X7650000Y-5350000D02*
X7350000Y-5650000D01*
X7606067Y-5606067D02*
X7606067Y-5393933D01*
X7393933Y-5393933D01*
X7393933Y-5606067D01*
X7606067Y-5606067D01*
X7350000Y-14350000D02*
X7650000Y-14650000D01*
X7650000Y-14350000D02*
X7350000Y-14650000D01*
X7606067Y-14606067D02*
X7606067Y-14393933D01*
X7393933Y-14393933D01*
X7393933Y-14606067D01*
X7606067Y-14606067D01*
X12350000Y-5350000D02*
X12650000Y-5650000D01*
X12650000Y-5350000D02*
X12350000Y-5650000D01*
X12606067Y-5606067D02*
X12606067Y-5393933D01*
X12393933Y-5393933D01*
X12393933Y-5606067D01*
X12606067Y-5606067D01*
X12350000Y-14350000D02*
X12650000Y-14650000D01*
X12650000Y-14350000D02*
X12350000Y-14650000D01*
X12606067Y-14606067D02*
X12606067Y-14393933D01*
X12393933Y-14393933D01*
X12393933Y-14606067D01*
X12606067Y-14606067D01*
D11*
X5242619Y-15298476D02*
X5242619Y-15098476D01*
X5242619Y-15098476D02*
X5290238Y-15098476D01*
X5290238Y-15098476D02*
X5318810Y-15108000D01*
X5318810Y-15108000D02*
X5337857Y-15127048D01*
X5337857Y-15127048D02*
X5347381Y-15146095D01*
X5347381Y-15146095D02*
X5356905Y-15184190D01*
X5356905Y-15184190D02*
X5356905Y-15212762D01*
X5356905Y-15212762D02*
X5347381Y-15250857D01*
X5347381Y-15250857D02*
X5337857Y-15269905D01*
X5337857Y-15269905D02*
X5318810Y-15288952D01*
X5318810Y-15288952D02*
X5290238Y-15298476D01*
X5290238Y-15298476D02*
X5242619Y-15298476D01*
X5442619Y-15298476D02*
X5442619Y-15165143D01*
X5442619Y-15203238D02*
X5452143Y-15184190D01*
X5452143Y-15184190D02*
X5461667Y-15174667D01*
X5461667Y-15174667D02*
X5480714Y-15165143D01*
X5480714Y-15165143D02*
X5499762Y-15165143D01*
X5566429Y-15298476D02*
X5566429Y-15165143D01*
X5566429Y-15098476D02*
X5556905Y-15108000D01*
X5556905Y-15108000D02*
X5566429Y-15117524D01*
X5566429Y-15117524D02*
X5575952Y-15108000D01*
X5575952Y-15108000D02*
X5566429Y-15098476D01*
X5566429Y-15098476D02*
X5566429Y-15117524D01*
X5690238Y-15298476D02*
X5671190Y-15288952D01*
X5671190Y-15288952D02*
X5661667Y-15269905D01*
X5661667Y-15269905D02*
X5661667Y-15098476D01*
X5795000Y-15298476D02*
X5775952Y-15288952D01*
X5775952Y-15288952D02*
X5766428Y-15269905D01*
X5766428Y-15269905D02*
X5766428Y-15098476D01*
X5991190Y-15298476D02*
X5991190Y-15098476D01*
X5991190Y-15098476D02*
X6057857Y-15241333D01*
X6057857Y-15241333D02*
X6124524Y-15098476D01*
X6124524Y-15098476D02*
X6124524Y-15298476D01*
X6305476Y-15298476D02*
X6305476Y-15193714D01*
X6305476Y-15193714D02*
X6295952Y-15174667D01*
X6295952Y-15174667D02*
X6276905Y-15165143D01*
X6276905Y-15165143D02*
X6238809Y-15165143D01*
X6238809Y-15165143D02*
X6219762Y-15174667D01*
X6305476Y-15288952D02*
X6286428Y-15298476D01*
X6286428Y-15298476D02*
X6238809Y-15298476D01*
X6238809Y-15298476D02*
X6219762Y-15288952D01*
X6219762Y-15288952D02*
X6210238Y-15269905D01*
X6210238Y-15269905D02*
X6210238Y-15250857D01*
X6210238Y-15250857D02*
X6219762Y-15231809D01*
X6219762Y-15231809D02*
X6238809Y-15222286D01*
X6238809Y-15222286D02*
X6286428Y-15222286D01*
X6286428Y-15222286D02*
X6305476Y-15212762D01*
X6400714Y-15165143D02*
X6400714Y-15365143D01*
X6400714Y-15174667D02*
X6419762Y-15165143D01*
X6419762Y-15165143D02*
X6457857Y-15165143D01*
X6457857Y-15165143D02*
X6476905Y-15174667D01*
X6476905Y-15174667D02*
X6486428Y-15184190D01*
X6486428Y-15184190D02*
X6495952Y-15203238D01*
X6495952Y-15203238D02*
X6495952Y-15260381D01*
X6495952Y-15260381D02*
X6486428Y-15279428D01*
X6486428Y-15279428D02*
X6476905Y-15288952D01*
X6476905Y-15288952D02*
X6457857Y-15298476D01*
X6457857Y-15298476D02*
X6419762Y-15298476D01*
X6419762Y-15298476D02*
X6400714Y-15288952D01*
X6581667Y-15279428D02*
X6591190Y-15288952D01*
X6591190Y-15288952D02*
X6581667Y-15298476D01*
X6581667Y-15298476D02*
X6572143Y-15288952D01*
X6572143Y-15288952D02*
X6581667Y-15279428D01*
X6581667Y-15279428D02*
X6581667Y-15298476D01*
X6581667Y-15174667D02*
X6591190Y-15184190D01*
X6591190Y-15184190D02*
X6581667Y-15193714D01*
X6581667Y-15193714D02*
X6572143Y-15184190D01*
X6572143Y-15184190D02*
X6581667Y-15174667D01*
X6581667Y-15174667D02*
X6581667Y-15193714D01*
D12*
X4955000Y-15625000D02*
X4995000Y-15665000D01*
X4995000Y-15625000D02*
X4955000Y-15665000D01*
D11*
X5280714Y-15518476D02*
X5299762Y-15518476D01*
X5299762Y-15518476D02*
X5318810Y-15528000D01*
X5318810Y-15528000D02*
X5328333Y-15537524D01*
X5328333Y-15537524D02*
X5337857Y-15556571D01*
X5337857Y-15556571D02*
X5347381Y-15594667D01*
X5347381Y-15594667D02*
X5347381Y-15642286D01*
X5347381Y-15642286D02*
X5337857Y-15680381D01*
X5337857Y-15680381D02*
X5328333Y-15699428D01*
X5328333Y-15699428D02*
X5318810Y-15708952D01*
X5318810Y-15708952D02*
X5299762Y-15718476D01*
X5299762Y-15718476D02*
X5280714Y-15718476D01*
X5280714Y-15718476D02*
X5261667Y-15708952D01*
X5261667Y-15708952D02*
X5252143Y-15699428D01*
X5252143Y-15699428D02*
X5242619Y-15680381D01*
X5242619Y-15680381D02*
X5233095Y-15642286D01*
X5233095Y-15642286D02*
X5233095Y-15594667D01*
X5233095Y-15594667D02*
X5242619Y-15556571D01*
X5242619Y-15556571D02*
X5252143Y-15537524D01*
X5252143Y-15537524D02*
X5261667Y-15528000D01*
X5261667Y-15528000D02*
X5280714Y-15518476D01*
X5433095Y-15699428D02*
X5442619Y-15708952D01*
X5442619Y-15708952D02*
X5433095Y-15718476D01*
X5433095Y-15718476D02*
X5423571Y-15708952D01*
X5423571Y-15708952D02*
X5433095Y-15699428D01*
X5433095Y-15699428D02*
X5433095Y-15718476D01*
X5614048Y-15585143D02*
X5614048Y-15718476D01*
X5566429Y-15508952D02*
X5518810Y-15651809D01*
X5518810Y-15651809D02*
X5642619Y-15651809D01*
X5756905Y-15518476D02*
X5775952Y-15518476D01*
X5775952Y-15518476D02*
X5795000Y-15528000D01*
X5795000Y-15528000D02*
X5804524Y-15537524D01*
X5804524Y-15537524D02*
X5814048Y-15556571D01*
X5814048Y-15556571D02*
X5823571Y-15594667D01*
X5823571Y-15594667D02*
X5823571Y-15642286D01*
X5823571Y-15642286D02*
X5814048Y-15680381D01*
X5814048Y-15680381D02*
X5804524Y-15699428D01*
X5804524Y-15699428D02*
X5795000Y-15708952D01*
X5795000Y-15708952D02*
X5775952Y-15718476D01*
X5775952Y-15718476D02*
X5756905Y-15718476D01*
X5756905Y-15718476D02*
X5737857Y-15708952D01*
X5737857Y-15708952D02*
X5728333Y-15699428D01*
X5728333Y-15699428D02*
X5718809Y-15680381D01*
X5718809Y-15680381D02*
X5709286Y-15642286D01*
X5709286Y-15642286D02*
X5709286Y-15594667D01*
X5709286Y-15594667D02*
X5718809Y-15556571D01*
X5718809Y-15556571D02*
X5728333Y-15537524D01*
X5728333Y-15537524D02*
X5737857Y-15528000D01*
X5737857Y-15528000D02*
X5756905Y-15518476D01*
X5947381Y-15518476D02*
X5966429Y-15518476D01*
X5966429Y-15518476D02*
X5985476Y-15528000D01*
X5985476Y-15528000D02*
X5995000Y-15537524D01*
X5995000Y-15537524D02*
X6004524Y-15556571D01*
X6004524Y-15556571D02*
X6014048Y-15594667D01*
X6014048Y-15594667D02*
X6014048Y-15642286D01*
X6014048Y-15642286D02*
X6004524Y-15680381D01*
X6004524Y-15680381D02*
X5995000Y-15699428D01*
X5995000Y-15699428D02*
X5985476Y-15708952D01*
X5985476Y-15708952D02*
X5966429Y-15718476D01*
X5966429Y-15718476D02*
X5947381Y-15718476D01*
X5947381Y-15718476D02*
X5928333Y-15708952D01*
X5928333Y-15708952D02*
X5918809Y-15699428D01*
X5918809Y-15699428D02*
X5909286Y-15680381D01*
X5909286Y-15680381D02*
X5899762Y-15642286D01*
X5899762Y-15642286D02*
X5899762Y-15594667D01*
X5899762Y-15594667D02*
X5909286Y-15556571D01*
X5909286Y-15556571D02*
X5918809Y-15537524D01*
X5918809Y-15537524D02*
X5928333Y-15528000D01*
X5928333Y-15528000D02*
X5947381Y-15518476D01*
X6099762Y-15718476D02*
X6099762Y-15585143D01*
X6099762Y-15604190D02*
X6109286Y-15594667D01*
X6109286Y-15594667D02*
X6128333Y-15585143D01*
X6128333Y-15585143D02*
X6156905Y-15585143D01*
X6156905Y-15585143D02*
X6175952Y-15594667D01*
X6175952Y-15594667D02*
X6185476Y-15613714D01*
X6185476Y-15613714D02*
X6185476Y-15718476D01*
X6185476Y-15613714D02*
X6195000Y-15594667D01*
X6195000Y-15594667D02*
X6214048Y-15585143D01*
X6214048Y-15585143D02*
X6242619Y-15585143D01*
X6242619Y-15585143D02*
X6261667Y-15594667D01*
X6261667Y-15594667D02*
X6271190Y-15613714D01*
X6271190Y-15613714D02*
X6271190Y-15718476D01*
X6366429Y-15718476D02*
X6366429Y-15585143D01*
X6366429Y-15604190D02*
X6375952Y-15594667D01*
X6375952Y-15594667D02*
X6395000Y-15585143D01*
X6395000Y-15585143D02*
X6423571Y-15585143D01*
X6423571Y-15585143D02*
X6442619Y-15594667D01*
X6442619Y-15594667D02*
X6452143Y-15613714D01*
X6452143Y-15613714D02*
X6452143Y-15718476D01*
X6452143Y-15613714D02*
X6461667Y-15594667D01*
X6461667Y-15594667D02*
X6480714Y-15585143D01*
X6480714Y-15585143D02*
X6509286Y-15585143D01*
X6509286Y-15585143D02*
X6528333Y-15594667D01*
X6528333Y-15594667D02*
X6537857Y-15613714D01*
X6537857Y-15613714D02*
X6537857Y-15718476D01*
X6895952Y-15508952D02*
X6724524Y-15766095D01*
X7120714Y-15518476D02*
X7139762Y-15518476D01*
X7139762Y-15518476D02*
X7158810Y-15528000D01*
X7158810Y-15528000D02*
X7168333Y-15537524D01*
X7168333Y-15537524D02*
X7177857Y-15556571D01*
X7177857Y-15556571D02*
X7187381Y-15594667D01*
X7187381Y-15594667D02*
X7187381Y-15642286D01*
X7187381Y-15642286D02*
X7177857Y-15680381D01*
X7177857Y-15680381D02*
X7168333Y-15699428D01*
X7168333Y-15699428D02*
X7158810Y-15708952D01*
X7158810Y-15708952D02*
X7139762Y-15718476D01*
X7139762Y-15718476D02*
X7120714Y-15718476D01*
X7120714Y-15718476D02*
X7101667Y-15708952D01*
X7101667Y-15708952D02*
X7092143Y-15699428D01*
X7092143Y-15699428D02*
X7082619Y-15680381D01*
X7082619Y-15680381D02*
X7073095Y-15642286D01*
X7073095Y-15642286D02*
X7073095Y-15594667D01*
X7073095Y-15594667D02*
X7082619Y-15556571D01*
X7082619Y-15556571D02*
X7092143Y-15537524D01*
X7092143Y-15537524D02*
X7101667Y-15528000D01*
X7101667Y-15528000D02*
X7120714Y-15518476D01*
X7273095Y-15699428D02*
X7282619Y-15708952D01*
X7282619Y-15708952D02*
X7273095Y-15718476D01*
X7273095Y-15718476D02*
X7263571Y-15708952D01*
X7263571Y-15708952D02*
X7273095Y-15699428D01*
X7273095Y-15699428D02*
X7273095Y-15718476D01*
X7406429Y-15518476D02*
X7425476Y-15518476D01*
X7425476Y-15518476D02*
X7444524Y-15528000D01*
X7444524Y-15528000D02*
X7454048Y-15537524D01*
X7454048Y-15537524D02*
X7463571Y-15556571D01*
X7463571Y-15556571D02*
X7473095Y-15594667D01*
X7473095Y-15594667D02*
X7473095Y-15642286D01*
X7473095Y-15642286D02*
X7463571Y-15680381D01*
X7463571Y-15680381D02*
X7454048Y-15699428D01*
X7454048Y-15699428D02*
X7444524Y-15708952D01*
X7444524Y-15708952D02*
X7425476Y-15718476D01*
X7425476Y-15718476D02*
X7406429Y-15718476D01*
X7406429Y-15718476D02*
X7387381Y-15708952D01*
X7387381Y-15708952D02*
X7377857Y-15699428D01*
X7377857Y-15699428D02*
X7368333Y-15680381D01*
X7368333Y-15680381D02*
X7358810Y-15642286D01*
X7358810Y-15642286D02*
X7358810Y-15594667D01*
X7358810Y-15594667D02*
X7368333Y-15556571D01*
X7368333Y-15556571D02*
X7377857Y-15537524D01*
X7377857Y-15537524D02*
X7387381Y-15528000D01*
X7387381Y-15528000D02*
X7406429Y-15518476D01*
X7663571Y-15718476D02*
X7549286Y-15718476D01*
X7606429Y-15718476D02*
X7606429Y-15518476D01*
X7606429Y-15518476D02*
X7587381Y-15547048D01*
X7587381Y-15547048D02*
X7568333Y-15566095D01*
X7568333Y-15566095D02*
X7549286Y-15575619D01*
X7844524Y-15518476D02*
X7749286Y-15518476D01*
X7749286Y-15518476D02*
X7739762Y-15613714D01*
X7739762Y-15613714D02*
X7749286Y-15604190D01*
X7749286Y-15604190D02*
X7768333Y-15594667D01*
X7768333Y-15594667D02*
X7815952Y-15594667D01*
X7815952Y-15594667D02*
X7835000Y-15604190D01*
X7835000Y-15604190D02*
X7844524Y-15613714D01*
X7844524Y-15613714D02*
X7854048Y-15632762D01*
X7854048Y-15632762D02*
X7854048Y-15680381D01*
X7854048Y-15680381D02*
X7844524Y-15699428D01*
X7844524Y-15699428D02*
X7835000Y-15708952D01*
X7835000Y-15708952D02*
X7815952Y-15718476D01*
X7815952Y-15718476D02*
X7768333Y-15718476D01*
X7768333Y-15718476D02*
X7749286Y-15708952D01*
X7749286Y-15708952D02*
X7739762Y-15699428D01*
X7920714Y-15518476D02*
X8054048Y-15518476D01*
X8054048Y-15518476D02*
X7968333Y-15718476D01*
X8120714Y-15518476D02*
X8120714Y-15556571D01*
X8196905Y-15518476D02*
X8196905Y-15556571D01*
X8459762Y-15794667D02*
X8450238Y-15785143D01*
X8450238Y-15785143D02*
X8431191Y-15756571D01*
X8431191Y-15756571D02*
X8421667Y-15737524D01*
X8421667Y-15737524D02*
X8412143Y-15708952D01*
X8412143Y-15708952D02*
X8402619Y-15661333D01*
X8402619Y-15661333D02*
X8402619Y-15623238D01*
X8402619Y-15623238D02*
X8412143Y-15575619D01*
X8412143Y-15575619D02*
X8421667Y-15547048D01*
X8421667Y-15547048D02*
X8431191Y-15528000D01*
X8431191Y-15528000D02*
X8450238Y-15499428D01*
X8450238Y-15499428D02*
X8459762Y-15489905D01*
X8621667Y-15585143D02*
X8621667Y-15718476D01*
X8574048Y-15508952D02*
X8526429Y-15651809D01*
X8526429Y-15651809D02*
X8650238Y-15651809D01*
X8846429Y-15718476D02*
X8846429Y-15518476D01*
X8932143Y-15718476D02*
X8932143Y-15613714D01*
X8932143Y-15613714D02*
X8922619Y-15594667D01*
X8922619Y-15594667D02*
X8903572Y-15585143D01*
X8903572Y-15585143D02*
X8875000Y-15585143D01*
X8875000Y-15585143D02*
X8855953Y-15594667D01*
X8855953Y-15594667D02*
X8846429Y-15604190D01*
X9055953Y-15718476D02*
X9036905Y-15708952D01*
X9036905Y-15708952D02*
X9027381Y-15699428D01*
X9027381Y-15699428D02*
X9017857Y-15680381D01*
X9017857Y-15680381D02*
X9017857Y-15623238D01*
X9017857Y-15623238D02*
X9027381Y-15604190D01*
X9027381Y-15604190D02*
X9036905Y-15594667D01*
X9036905Y-15594667D02*
X9055953Y-15585143D01*
X9055953Y-15585143D02*
X9084524Y-15585143D01*
X9084524Y-15585143D02*
X9103572Y-15594667D01*
X9103572Y-15594667D02*
X9113095Y-15604190D01*
X9113095Y-15604190D02*
X9122619Y-15623238D01*
X9122619Y-15623238D02*
X9122619Y-15680381D01*
X9122619Y-15680381D02*
X9113095Y-15699428D01*
X9113095Y-15699428D02*
X9103572Y-15708952D01*
X9103572Y-15708952D02*
X9084524Y-15718476D01*
X9084524Y-15718476D02*
X9055953Y-15718476D01*
X9236905Y-15718476D02*
X9217857Y-15708952D01*
X9217857Y-15708952D02*
X9208334Y-15689905D01*
X9208334Y-15689905D02*
X9208334Y-15518476D01*
X9389286Y-15708952D02*
X9370238Y-15718476D01*
X9370238Y-15718476D02*
X9332143Y-15718476D01*
X9332143Y-15718476D02*
X9313095Y-15708952D01*
X9313095Y-15708952D02*
X9303572Y-15689905D01*
X9303572Y-15689905D02*
X9303572Y-15613714D01*
X9303572Y-15613714D02*
X9313095Y-15594667D01*
X9313095Y-15594667D02*
X9332143Y-15585143D01*
X9332143Y-15585143D02*
X9370238Y-15585143D01*
X9370238Y-15585143D02*
X9389286Y-15594667D01*
X9389286Y-15594667D02*
X9398810Y-15613714D01*
X9398810Y-15613714D02*
X9398810Y-15632762D01*
X9398810Y-15632762D02*
X9303572Y-15651809D01*
X9475000Y-15708952D02*
X9494048Y-15718476D01*
X9494048Y-15718476D02*
X9532143Y-15718476D01*
X9532143Y-15718476D02*
X9551191Y-15708952D01*
X9551191Y-15708952D02*
X9560715Y-15689905D01*
X9560715Y-15689905D02*
X9560715Y-15680381D01*
X9560715Y-15680381D02*
X9551191Y-15661333D01*
X9551191Y-15661333D02*
X9532143Y-15651809D01*
X9532143Y-15651809D02*
X9503572Y-15651809D01*
X9503572Y-15651809D02*
X9484524Y-15642286D01*
X9484524Y-15642286D02*
X9475000Y-15623238D01*
X9475000Y-15623238D02*
X9475000Y-15613714D01*
X9475000Y-15613714D02*
X9484524Y-15594667D01*
X9484524Y-15594667D02*
X9503572Y-15585143D01*
X9503572Y-15585143D02*
X9532143Y-15585143D01*
X9532143Y-15585143D02*
X9551191Y-15594667D01*
X9627381Y-15794667D02*
X9636905Y-15785143D01*
X9636905Y-15785143D02*
X9655953Y-15756571D01*
X9655953Y-15756571D02*
X9665476Y-15737524D01*
X9665476Y-15737524D02*
X9675000Y-15708952D01*
X9675000Y-15708952D02*
X9684524Y-15661333D01*
X9684524Y-15661333D02*
X9684524Y-15623238D01*
X9684524Y-15623238D02*
X9675000Y-15575619D01*
X9675000Y-15575619D02*
X9665476Y-15547048D01*
X9665476Y-15547048D02*
X9655953Y-15528000D01*
X9655953Y-15528000D02*
X9636905Y-15499428D01*
X9636905Y-15499428D02*
X9627381Y-15489905D01*
D13*
X4995000Y-15909000D02*
G75*
G03*
X4995000Y-15909000I-25000J0D01*
G01*
D11*
X5280714Y-15782476D02*
X5299762Y-15782476D01*
X5299762Y-15782476D02*
X5318810Y-15792000D01*
X5318810Y-15792000D02*
X5328333Y-15801524D01*
X5328333Y-15801524D02*
X5337857Y-15820571D01*
X5337857Y-15820571D02*
X5347381Y-15858667D01*
X5347381Y-15858667D02*
X5347381Y-15906286D01*
X5347381Y-15906286D02*
X5337857Y-15944381D01*
X5337857Y-15944381D02*
X5328333Y-15963428D01*
X5328333Y-15963428D02*
X5318810Y-15972952D01*
X5318810Y-15972952D02*
X5299762Y-15982476D01*
X5299762Y-15982476D02*
X5280714Y-15982476D01*
X5280714Y-15982476D02*
X5261667Y-15972952D01*
X5261667Y-15972952D02*
X5252143Y-15963428D01*
X5252143Y-15963428D02*
X5242619Y-15944381D01*
X5242619Y-15944381D02*
X5233095Y-15906286D01*
X5233095Y-15906286D02*
X5233095Y-15858667D01*
X5233095Y-15858667D02*
X5242619Y-15820571D01*
X5242619Y-15820571D02*
X5252143Y-15801524D01*
X5252143Y-15801524D02*
X5261667Y-15792000D01*
X5261667Y-15792000D02*
X5280714Y-15782476D01*
X5433095Y-15963428D02*
X5442619Y-15972952D01*
X5442619Y-15972952D02*
X5433095Y-15982476D01*
X5433095Y-15982476D02*
X5423571Y-15972952D01*
X5423571Y-15972952D02*
X5433095Y-15963428D01*
X5433095Y-15963428D02*
X5433095Y-15982476D01*
X5623571Y-15782476D02*
X5528333Y-15782476D01*
X5528333Y-15782476D02*
X5518810Y-15877714D01*
X5518810Y-15877714D02*
X5528333Y-15868190D01*
X5528333Y-15868190D02*
X5547381Y-15858667D01*
X5547381Y-15858667D02*
X5595000Y-15858667D01*
X5595000Y-15858667D02*
X5614048Y-15868190D01*
X5614048Y-15868190D02*
X5623571Y-15877714D01*
X5623571Y-15877714D02*
X5633095Y-15896762D01*
X5633095Y-15896762D02*
X5633095Y-15944381D01*
X5633095Y-15944381D02*
X5623571Y-15963428D01*
X5623571Y-15963428D02*
X5614048Y-15972952D01*
X5614048Y-15972952D02*
X5595000Y-15982476D01*
X5595000Y-15982476D02*
X5547381Y-15982476D01*
X5547381Y-15982476D02*
X5528333Y-15972952D01*
X5528333Y-15972952D02*
X5518810Y-15963428D01*
X5756905Y-15782476D02*
X5775952Y-15782476D01*
X5775952Y-15782476D02*
X5795000Y-15792000D01*
X5795000Y-15792000D02*
X5804524Y-15801524D01*
X5804524Y-15801524D02*
X5814048Y-15820571D01*
X5814048Y-15820571D02*
X5823571Y-15858667D01*
X5823571Y-15858667D02*
X5823571Y-15906286D01*
X5823571Y-15906286D02*
X5814048Y-15944381D01*
X5814048Y-15944381D02*
X5804524Y-15963428D01*
X5804524Y-15963428D02*
X5795000Y-15972952D01*
X5795000Y-15972952D02*
X5775952Y-15982476D01*
X5775952Y-15982476D02*
X5756905Y-15982476D01*
X5756905Y-15982476D02*
X5737857Y-15972952D01*
X5737857Y-15972952D02*
X5728333Y-15963428D01*
X5728333Y-15963428D02*
X5718809Y-15944381D01*
X5718809Y-15944381D02*
X5709286Y-15906286D01*
X5709286Y-15906286D02*
X5709286Y-15858667D01*
X5709286Y-15858667D02*
X5718809Y-15820571D01*
X5718809Y-15820571D02*
X5728333Y-15801524D01*
X5728333Y-15801524D02*
X5737857Y-15792000D01*
X5737857Y-15792000D02*
X5756905Y-15782476D01*
X5947381Y-15782476D02*
X5966429Y-15782476D01*
X5966429Y-15782476D02*
X5985476Y-15792000D01*
X5985476Y-15792000D02*
X5995000Y-15801524D01*
X5995000Y-15801524D02*
X6004524Y-15820571D01*
X6004524Y-15820571D02*
X6014048Y-15858667D01*
X6014048Y-15858667D02*
X6014048Y-15906286D01*
X6014048Y-15906286D02*
X6004524Y-15944381D01*
X6004524Y-15944381D02*
X5995000Y-15963428D01*
X5995000Y-15963428D02*
X5985476Y-15972952D01*
X5985476Y-15972952D02*
X5966429Y-15982476D01*
X5966429Y-15982476D02*
X5947381Y-15982476D01*
X5947381Y-15982476D02*
X5928333Y-15972952D01*
X5928333Y-15972952D02*
X5918809Y-15963428D01*
X5918809Y-15963428D02*
X5909286Y-15944381D01*
X5909286Y-15944381D02*
X5899762Y-15906286D01*
X5899762Y-15906286D02*
X5899762Y-15858667D01*
X5899762Y-15858667D02*
X5909286Y-15820571D01*
X5909286Y-15820571D02*
X5918809Y-15801524D01*
X5918809Y-15801524D02*
X5928333Y-15792000D01*
X5928333Y-15792000D02*
X5947381Y-15782476D01*
X6099762Y-15982476D02*
X6099762Y-15849143D01*
X6099762Y-15868190D02*
X6109286Y-15858667D01*
X6109286Y-15858667D02*
X6128333Y-15849143D01*
X6128333Y-15849143D02*
X6156905Y-15849143D01*
X6156905Y-15849143D02*
X6175952Y-15858667D01*
X6175952Y-15858667D02*
X6185476Y-15877714D01*
X6185476Y-15877714D02*
X6185476Y-15982476D01*
X6185476Y-15877714D02*
X6195000Y-15858667D01*
X6195000Y-15858667D02*
X6214048Y-15849143D01*
X6214048Y-15849143D02*
X6242619Y-15849143D01*
X6242619Y-15849143D02*
X6261667Y-15858667D01*
X6261667Y-15858667D02*
X6271190Y-15877714D01*
X6271190Y-15877714D02*
X6271190Y-15982476D01*
X6366429Y-15982476D02*
X6366429Y-15849143D01*
X6366429Y-15868190D02*
X6375952Y-15858667D01*
X6375952Y-15858667D02*
X6395000Y-15849143D01*
X6395000Y-15849143D02*
X6423571Y-15849143D01*
X6423571Y-15849143D02*
X6442619Y-15858667D01*
X6442619Y-15858667D02*
X6452143Y-15877714D01*
X6452143Y-15877714D02*
X6452143Y-15982476D01*
X6452143Y-15877714D02*
X6461667Y-15858667D01*
X6461667Y-15858667D02*
X6480714Y-15849143D01*
X6480714Y-15849143D02*
X6509286Y-15849143D01*
X6509286Y-15849143D02*
X6528333Y-15858667D01*
X6528333Y-15858667D02*
X6537857Y-15877714D01*
X6537857Y-15877714D02*
X6537857Y-15982476D01*
X6895952Y-15772952D02*
X6724524Y-16030095D01*
X7120714Y-15782476D02*
X7139762Y-15782476D01*
X7139762Y-15782476D02*
X7158810Y-15792000D01*
X7158810Y-15792000D02*
X7168333Y-15801524D01*
X7168333Y-15801524D02*
X7177857Y-15820571D01*
X7177857Y-15820571D02*
X7187381Y-15858667D01*
X7187381Y-15858667D02*
X7187381Y-15906286D01*
X7187381Y-15906286D02*
X7177857Y-15944381D01*
X7177857Y-15944381D02*
X7168333Y-15963428D01*
X7168333Y-15963428D02*
X7158810Y-15972952D01*
X7158810Y-15972952D02*
X7139762Y-15982476D01*
X7139762Y-15982476D02*
X7120714Y-15982476D01*
X7120714Y-15982476D02*
X7101667Y-15972952D01*
X7101667Y-15972952D02*
X7092143Y-15963428D01*
X7092143Y-15963428D02*
X7082619Y-15944381D01*
X7082619Y-15944381D02*
X7073095Y-15906286D01*
X7073095Y-15906286D02*
X7073095Y-15858667D01*
X7073095Y-15858667D02*
X7082619Y-15820571D01*
X7082619Y-15820571D02*
X7092143Y-15801524D01*
X7092143Y-15801524D02*
X7101667Y-15792000D01*
X7101667Y-15792000D02*
X7120714Y-15782476D01*
X7273095Y-15963428D02*
X7282619Y-15972952D01*
X7282619Y-15972952D02*
X7273095Y-15982476D01*
X7273095Y-15982476D02*
X7263571Y-15972952D01*
X7263571Y-15972952D02*
X7273095Y-15963428D01*
X7273095Y-15963428D02*
X7273095Y-15982476D01*
X7406429Y-15782476D02*
X7425476Y-15782476D01*
X7425476Y-15782476D02*
X7444524Y-15792000D01*
X7444524Y-15792000D02*
X7454048Y-15801524D01*
X7454048Y-15801524D02*
X7463571Y-15820571D01*
X7463571Y-15820571D02*
X7473095Y-15858667D01*
X7473095Y-15858667D02*
X7473095Y-15906286D01*
X7473095Y-15906286D02*
X7463571Y-15944381D01*
X7463571Y-15944381D02*
X7454048Y-15963428D01*
X7454048Y-15963428D02*
X7444524Y-15972952D01*
X7444524Y-15972952D02*
X7425476Y-15982476D01*
X7425476Y-15982476D02*
X7406429Y-15982476D01*
X7406429Y-15982476D02*
X7387381Y-15972952D01*
X7387381Y-15972952D02*
X7377857Y-15963428D01*
X7377857Y-15963428D02*
X7368333Y-15944381D01*
X7368333Y-15944381D02*
X7358810Y-15906286D01*
X7358810Y-15906286D02*
X7358810Y-15858667D01*
X7358810Y-15858667D02*
X7368333Y-15820571D01*
X7368333Y-15820571D02*
X7377857Y-15801524D01*
X7377857Y-15801524D02*
X7387381Y-15792000D01*
X7387381Y-15792000D02*
X7406429Y-15782476D01*
X7663571Y-15982476D02*
X7549286Y-15982476D01*
X7606429Y-15982476D02*
X7606429Y-15782476D01*
X7606429Y-15782476D02*
X7587381Y-15811048D01*
X7587381Y-15811048D02*
X7568333Y-15830095D01*
X7568333Y-15830095D02*
X7549286Y-15839619D01*
X7758810Y-15982476D02*
X7796905Y-15982476D01*
X7796905Y-15982476D02*
X7815952Y-15972952D01*
X7815952Y-15972952D02*
X7825476Y-15963428D01*
X7825476Y-15963428D02*
X7844524Y-15934857D01*
X7844524Y-15934857D02*
X7854048Y-15896762D01*
X7854048Y-15896762D02*
X7854048Y-15820571D01*
X7854048Y-15820571D02*
X7844524Y-15801524D01*
X7844524Y-15801524D02*
X7835000Y-15792000D01*
X7835000Y-15792000D02*
X7815952Y-15782476D01*
X7815952Y-15782476D02*
X7777857Y-15782476D01*
X7777857Y-15782476D02*
X7758810Y-15792000D01*
X7758810Y-15792000D02*
X7749286Y-15801524D01*
X7749286Y-15801524D02*
X7739762Y-15820571D01*
X7739762Y-15820571D02*
X7739762Y-15868190D01*
X7739762Y-15868190D02*
X7749286Y-15887238D01*
X7749286Y-15887238D02*
X7758810Y-15896762D01*
X7758810Y-15896762D02*
X7777857Y-15906286D01*
X7777857Y-15906286D02*
X7815952Y-15906286D01*
X7815952Y-15906286D02*
X7835000Y-15896762D01*
X7835000Y-15896762D02*
X7844524Y-15887238D01*
X7844524Y-15887238D02*
X7854048Y-15868190D01*
X7920714Y-15782476D02*
X8054048Y-15782476D01*
X8054048Y-15782476D02*
X7968333Y-15982476D01*
X8120714Y-15782476D02*
X8120714Y-15820571D01*
X8196905Y-15782476D02*
X8196905Y-15820571D01*
X8459762Y-16058667D02*
X8450238Y-16049143D01*
X8450238Y-16049143D02*
X8431191Y-16020571D01*
X8431191Y-16020571D02*
X8421667Y-16001524D01*
X8421667Y-16001524D02*
X8412143Y-15972952D01*
X8412143Y-15972952D02*
X8402619Y-15925333D01*
X8402619Y-15925333D02*
X8402619Y-15887238D01*
X8402619Y-15887238D02*
X8412143Y-15839619D01*
X8412143Y-15839619D02*
X8421667Y-15811048D01*
X8421667Y-15811048D02*
X8431191Y-15792000D01*
X8431191Y-15792000D02*
X8450238Y-15763428D01*
X8450238Y-15763428D02*
X8459762Y-15753905D01*
X8621667Y-15849143D02*
X8621667Y-15982476D01*
X8574048Y-15772952D02*
X8526429Y-15915809D01*
X8526429Y-15915809D02*
X8650238Y-15915809D01*
X8812143Y-15849143D02*
X8812143Y-15982476D01*
X8764524Y-15772952D02*
X8716905Y-15915809D01*
X8716905Y-15915809D02*
X8840714Y-15915809D01*
X9036905Y-15982476D02*
X9036905Y-15782476D01*
X9122619Y-15982476D02*
X9122619Y-15877714D01*
X9122619Y-15877714D02*
X9113095Y-15858667D01*
X9113095Y-15858667D02*
X9094048Y-15849143D01*
X9094048Y-15849143D02*
X9065476Y-15849143D01*
X9065476Y-15849143D02*
X9046429Y-15858667D01*
X9046429Y-15858667D02*
X9036905Y-15868190D01*
X9246429Y-15982476D02*
X9227381Y-15972952D01*
X9227381Y-15972952D02*
X9217857Y-15963428D01*
X9217857Y-15963428D02*
X9208334Y-15944381D01*
X9208334Y-15944381D02*
X9208334Y-15887238D01*
X9208334Y-15887238D02*
X9217857Y-15868190D01*
X9217857Y-15868190D02*
X9227381Y-15858667D01*
X9227381Y-15858667D02*
X9246429Y-15849143D01*
X9246429Y-15849143D02*
X9275000Y-15849143D01*
X9275000Y-15849143D02*
X9294048Y-15858667D01*
X9294048Y-15858667D02*
X9303572Y-15868190D01*
X9303572Y-15868190D02*
X9313095Y-15887238D01*
X9313095Y-15887238D02*
X9313095Y-15944381D01*
X9313095Y-15944381D02*
X9303572Y-15963428D01*
X9303572Y-15963428D02*
X9294048Y-15972952D01*
X9294048Y-15972952D02*
X9275000Y-15982476D01*
X9275000Y-15982476D02*
X9246429Y-15982476D01*
X9427381Y-15982476D02*
X9408334Y-15972952D01*
X9408334Y-15972952D02*
X9398810Y-15953905D01*
X9398810Y-15953905D02*
X9398810Y-15782476D01*
X9579762Y-15972952D02*
X9560715Y-15982476D01*
X9560715Y-15982476D02*
X9522619Y-15982476D01*
X9522619Y-15982476D02*
X9503572Y-15972952D01*
X9503572Y-15972952D02*
X9494048Y-15953905D01*
X9494048Y-15953905D02*
X9494048Y-15877714D01*
X9494048Y-15877714D02*
X9503572Y-15858667D01*
X9503572Y-15858667D02*
X9522619Y-15849143D01*
X9522619Y-15849143D02*
X9560715Y-15849143D01*
X9560715Y-15849143D02*
X9579762Y-15858667D01*
X9579762Y-15858667D02*
X9589286Y-15877714D01*
X9589286Y-15877714D02*
X9589286Y-15896762D01*
X9589286Y-15896762D02*
X9494048Y-15915809D01*
X9665476Y-15972952D02*
X9684524Y-15982476D01*
X9684524Y-15982476D02*
X9722619Y-15982476D01*
X9722619Y-15982476D02*
X9741667Y-15972952D01*
X9741667Y-15972952D02*
X9751191Y-15953905D01*
X9751191Y-15953905D02*
X9751191Y-15944381D01*
X9751191Y-15944381D02*
X9741667Y-15925333D01*
X9741667Y-15925333D02*
X9722619Y-15915809D01*
X9722619Y-15915809D02*
X9694048Y-15915809D01*
X9694048Y-15915809D02*
X9675000Y-15906286D01*
X9675000Y-15906286D02*
X9665476Y-15887238D01*
X9665476Y-15887238D02*
X9665476Y-15877714D01*
X9665476Y-15877714D02*
X9675000Y-15858667D01*
X9675000Y-15858667D02*
X9694048Y-15849143D01*
X9694048Y-15849143D02*
X9722619Y-15849143D01*
X9722619Y-15849143D02*
X9741667Y-15858667D01*
X9817857Y-16058667D02*
X9827381Y-16049143D01*
X9827381Y-16049143D02*
X9846429Y-16020571D01*
X9846429Y-16020571D02*
X9855953Y-16001524D01*
X9855953Y-16001524D02*
X9865476Y-15972952D01*
X9865476Y-15972952D02*
X9875000Y-15925333D01*
X9875000Y-15925333D02*
X9875000Y-15887238D01*
X9875000Y-15887238D02*
X9865476Y-15839619D01*
X9865476Y-15839619D02*
X9855953Y-15811048D01*
X9855953Y-15811048D02*
X9846429Y-15792000D01*
X9846429Y-15792000D02*
X9827381Y-15763428D01*
X9827381Y-15763428D02*
X9817857Y-15753905D01*
D13*
X4970000Y-16148000D02*
X4970000Y-16198000D01*
X4945000Y-16173000D02*
X4995000Y-16173000D01*
D11*
X5280714Y-16046476D02*
X5299762Y-16046476D01*
X5299762Y-16046476D02*
X5318810Y-16056000D01*
X5318810Y-16056000D02*
X5328333Y-16065524D01*
X5328333Y-16065524D02*
X5337857Y-16084571D01*
X5337857Y-16084571D02*
X5347381Y-16122667D01*
X5347381Y-16122667D02*
X5347381Y-16170286D01*
X5347381Y-16170286D02*
X5337857Y-16208381D01*
X5337857Y-16208381D02*
X5328333Y-16227428D01*
X5328333Y-16227428D02*
X5318810Y-16236952D01*
X5318810Y-16236952D02*
X5299762Y-16246476D01*
X5299762Y-16246476D02*
X5280714Y-16246476D01*
X5280714Y-16246476D02*
X5261667Y-16236952D01*
X5261667Y-16236952D02*
X5252143Y-16227428D01*
X5252143Y-16227428D02*
X5242619Y-16208381D01*
X5242619Y-16208381D02*
X5233095Y-16170286D01*
X5233095Y-16170286D02*
X5233095Y-16122667D01*
X5233095Y-16122667D02*
X5242619Y-16084571D01*
X5242619Y-16084571D02*
X5252143Y-16065524D01*
X5252143Y-16065524D02*
X5261667Y-16056000D01*
X5261667Y-16056000D02*
X5280714Y-16046476D01*
X5433095Y-16227428D02*
X5442619Y-16236952D01*
X5442619Y-16236952D02*
X5433095Y-16246476D01*
X5433095Y-16246476D02*
X5423571Y-16236952D01*
X5423571Y-16236952D02*
X5433095Y-16227428D01*
X5433095Y-16227428D02*
X5433095Y-16246476D01*
X5623571Y-16046476D02*
X5528333Y-16046476D01*
X5528333Y-16046476D02*
X5518810Y-16141714D01*
X5518810Y-16141714D02*
X5528333Y-16132190D01*
X5528333Y-16132190D02*
X5547381Y-16122667D01*
X5547381Y-16122667D02*
X5595000Y-16122667D01*
X5595000Y-16122667D02*
X5614048Y-16132190D01*
X5614048Y-16132190D02*
X5623571Y-16141714D01*
X5623571Y-16141714D02*
X5633095Y-16160762D01*
X5633095Y-16160762D02*
X5633095Y-16208381D01*
X5633095Y-16208381D02*
X5623571Y-16227428D01*
X5623571Y-16227428D02*
X5614048Y-16236952D01*
X5614048Y-16236952D02*
X5595000Y-16246476D01*
X5595000Y-16246476D02*
X5547381Y-16246476D01*
X5547381Y-16246476D02*
X5528333Y-16236952D01*
X5528333Y-16236952D02*
X5518810Y-16227428D01*
X5756905Y-16046476D02*
X5775952Y-16046476D01*
X5775952Y-16046476D02*
X5795000Y-16056000D01*
X5795000Y-16056000D02*
X5804524Y-16065524D01*
X5804524Y-16065524D02*
X5814048Y-16084571D01*
X5814048Y-16084571D02*
X5823571Y-16122667D01*
X5823571Y-16122667D02*
X5823571Y-16170286D01*
X5823571Y-16170286D02*
X5814048Y-16208381D01*
X5814048Y-16208381D02*
X5804524Y-16227428D01*
X5804524Y-16227428D02*
X5795000Y-16236952D01*
X5795000Y-16236952D02*
X5775952Y-16246476D01*
X5775952Y-16246476D02*
X5756905Y-16246476D01*
X5756905Y-16246476D02*
X5737857Y-16236952D01*
X5737857Y-16236952D02*
X5728333Y-16227428D01*
X5728333Y-16227428D02*
X5718809Y-16208381D01*
X5718809Y-16208381D02*
X5709286Y-16170286D01*
X5709286Y-16170286D02*
X5709286Y-16122667D01*
X5709286Y-16122667D02*
X5718809Y-16084571D01*
X5718809Y-16084571D02*
X5728333Y-16065524D01*
X5728333Y-16065524D02*
X5737857Y-16056000D01*
X5737857Y-16056000D02*
X5756905Y-16046476D01*
X5947381Y-16046476D02*
X5966429Y-16046476D01*
X5966429Y-16046476D02*
X5985476Y-16056000D01*
X5985476Y-16056000D02*
X5995000Y-16065524D01*
X5995000Y-16065524D02*
X6004524Y-16084571D01*
X6004524Y-16084571D02*
X6014048Y-16122667D01*
X6014048Y-16122667D02*
X6014048Y-16170286D01*
X6014048Y-16170286D02*
X6004524Y-16208381D01*
X6004524Y-16208381D02*
X5995000Y-16227428D01*
X5995000Y-16227428D02*
X5985476Y-16236952D01*
X5985476Y-16236952D02*
X5966429Y-16246476D01*
X5966429Y-16246476D02*
X5947381Y-16246476D01*
X5947381Y-16246476D02*
X5928333Y-16236952D01*
X5928333Y-16236952D02*
X5918809Y-16227428D01*
X5918809Y-16227428D02*
X5909286Y-16208381D01*
X5909286Y-16208381D02*
X5899762Y-16170286D01*
X5899762Y-16170286D02*
X5899762Y-16122667D01*
X5899762Y-16122667D02*
X5909286Y-16084571D01*
X5909286Y-16084571D02*
X5918809Y-16065524D01*
X5918809Y-16065524D02*
X5928333Y-16056000D01*
X5928333Y-16056000D02*
X5947381Y-16046476D01*
X6099762Y-16246476D02*
X6099762Y-16113143D01*
X6099762Y-16132190D02*
X6109286Y-16122667D01*
X6109286Y-16122667D02*
X6128333Y-16113143D01*
X6128333Y-16113143D02*
X6156905Y-16113143D01*
X6156905Y-16113143D02*
X6175952Y-16122667D01*
X6175952Y-16122667D02*
X6185476Y-16141714D01*
X6185476Y-16141714D02*
X6185476Y-16246476D01*
X6185476Y-16141714D02*
X6195000Y-16122667D01*
X6195000Y-16122667D02*
X6214048Y-16113143D01*
X6214048Y-16113143D02*
X6242619Y-16113143D01*
X6242619Y-16113143D02*
X6261667Y-16122667D01*
X6261667Y-16122667D02*
X6271190Y-16141714D01*
X6271190Y-16141714D02*
X6271190Y-16246476D01*
X6366429Y-16246476D02*
X6366429Y-16113143D01*
X6366429Y-16132190D02*
X6375952Y-16122667D01*
X6375952Y-16122667D02*
X6395000Y-16113143D01*
X6395000Y-16113143D02*
X6423571Y-16113143D01*
X6423571Y-16113143D02*
X6442619Y-16122667D01*
X6442619Y-16122667D02*
X6452143Y-16141714D01*
X6452143Y-16141714D02*
X6452143Y-16246476D01*
X6452143Y-16141714D02*
X6461667Y-16122667D01*
X6461667Y-16122667D02*
X6480714Y-16113143D01*
X6480714Y-16113143D02*
X6509286Y-16113143D01*
X6509286Y-16113143D02*
X6528333Y-16122667D01*
X6528333Y-16122667D02*
X6537857Y-16141714D01*
X6537857Y-16141714D02*
X6537857Y-16246476D01*
X6895952Y-16036952D02*
X6724524Y-16294095D01*
X7120714Y-16046476D02*
X7139762Y-16046476D01*
X7139762Y-16046476D02*
X7158810Y-16056000D01*
X7158810Y-16056000D02*
X7168333Y-16065524D01*
X7168333Y-16065524D02*
X7177857Y-16084571D01*
X7177857Y-16084571D02*
X7187381Y-16122667D01*
X7187381Y-16122667D02*
X7187381Y-16170286D01*
X7187381Y-16170286D02*
X7177857Y-16208381D01*
X7177857Y-16208381D02*
X7168333Y-16227428D01*
X7168333Y-16227428D02*
X7158810Y-16236952D01*
X7158810Y-16236952D02*
X7139762Y-16246476D01*
X7139762Y-16246476D02*
X7120714Y-16246476D01*
X7120714Y-16246476D02*
X7101667Y-16236952D01*
X7101667Y-16236952D02*
X7092143Y-16227428D01*
X7092143Y-16227428D02*
X7082619Y-16208381D01*
X7082619Y-16208381D02*
X7073095Y-16170286D01*
X7073095Y-16170286D02*
X7073095Y-16122667D01*
X7073095Y-16122667D02*
X7082619Y-16084571D01*
X7082619Y-16084571D02*
X7092143Y-16065524D01*
X7092143Y-16065524D02*
X7101667Y-16056000D01*
X7101667Y-16056000D02*
X7120714Y-16046476D01*
X7273095Y-16227428D02*
X7282619Y-16236952D01*
X7282619Y-16236952D02*
X7273095Y-16246476D01*
X7273095Y-16246476D02*
X7263571Y-16236952D01*
X7263571Y-16236952D02*
X7273095Y-16227428D01*
X7273095Y-16227428D02*
X7273095Y-16246476D01*
X7406429Y-16046476D02*
X7425476Y-16046476D01*
X7425476Y-16046476D02*
X7444524Y-16056000D01*
X7444524Y-16056000D02*
X7454048Y-16065524D01*
X7454048Y-16065524D02*
X7463571Y-16084571D01*
X7463571Y-16084571D02*
X7473095Y-16122667D01*
X7473095Y-16122667D02*
X7473095Y-16170286D01*
X7473095Y-16170286D02*
X7463571Y-16208381D01*
X7463571Y-16208381D02*
X7454048Y-16227428D01*
X7454048Y-16227428D02*
X7444524Y-16236952D01*
X7444524Y-16236952D02*
X7425476Y-16246476D01*
X7425476Y-16246476D02*
X7406429Y-16246476D01*
X7406429Y-16246476D02*
X7387381Y-16236952D01*
X7387381Y-16236952D02*
X7377857Y-16227428D01*
X7377857Y-16227428D02*
X7368333Y-16208381D01*
X7368333Y-16208381D02*
X7358810Y-16170286D01*
X7358810Y-16170286D02*
X7358810Y-16122667D01*
X7358810Y-16122667D02*
X7368333Y-16084571D01*
X7368333Y-16084571D02*
X7377857Y-16065524D01*
X7377857Y-16065524D02*
X7387381Y-16056000D01*
X7387381Y-16056000D02*
X7406429Y-16046476D01*
X7663571Y-16246476D02*
X7549286Y-16246476D01*
X7606429Y-16246476D02*
X7606429Y-16046476D01*
X7606429Y-16046476D02*
X7587381Y-16075048D01*
X7587381Y-16075048D02*
X7568333Y-16094095D01*
X7568333Y-16094095D02*
X7549286Y-16103619D01*
X7758810Y-16246476D02*
X7796905Y-16246476D01*
X7796905Y-16246476D02*
X7815952Y-16236952D01*
X7815952Y-16236952D02*
X7825476Y-16227428D01*
X7825476Y-16227428D02*
X7844524Y-16198857D01*
X7844524Y-16198857D02*
X7854048Y-16160762D01*
X7854048Y-16160762D02*
X7854048Y-16084571D01*
X7854048Y-16084571D02*
X7844524Y-16065524D01*
X7844524Y-16065524D02*
X7835000Y-16056000D01*
X7835000Y-16056000D02*
X7815952Y-16046476D01*
X7815952Y-16046476D02*
X7777857Y-16046476D01*
X7777857Y-16046476D02*
X7758810Y-16056000D01*
X7758810Y-16056000D02*
X7749286Y-16065524D01*
X7749286Y-16065524D02*
X7739762Y-16084571D01*
X7739762Y-16084571D02*
X7739762Y-16132190D01*
X7739762Y-16132190D02*
X7749286Y-16151238D01*
X7749286Y-16151238D02*
X7758810Y-16160762D01*
X7758810Y-16160762D02*
X7777857Y-16170286D01*
X7777857Y-16170286D02*
X7815952Y-16170286D01*
X7815952Y-16170286D02*
X7835000Y-16160762D01*
X7835000Y-16160762D02*
X7844524Y-16151238D01*
X7844524Y-16151238D02*
X7854048Y-16132190D01*
X7920714Y-16046476D02*
X8054048Y-16046476D01*
X8054048Y-16046476D02*
X7968333Y-16246476D01*
X8120714Y-16046476D02*
X8120714Y-16084571D01*
X8196905Y-16046476D02*
X8196905Y-16084571D01*
X8459762Y-16322667D02*
X8450238Y-16313143D01*
X8450238Y-16313143D02*
X8431191Y-16284571D01*
X8431191Y-16284571D02*
X8421667Y-16265524D01*
X8421667Y-16265524D02*
X8412143Y-16236952D01*
X8412143Y-16236952D02*
X8402619Y-16189333D01*
X8402619Y-16189333D02*
X8402619Y-16151238D01*
X8402619Y-16151238D02*
X8412143Y-16103619D01*
X8412143Y-16103619D02*
X8421667Y-16075048D01*
X8421667Y-16075048D02*
X8431191Y-16056000D01*
X8431191Y-16056000D02*
X8450238Y-16027428D01*
X8450238Y-16027428D02*
X8459762Y-16017905D01*
X8574048Y-16046476D02*
X8593095Y-16046476D01*
X8593095Y-16046476D02*
X8612143Y-16056000D01*
X8612143Y-16056000D02*
X8621667Y-16065524D01*
X8621667Y-16065524D02*
X8631191Y-16084571D01*
X8631191Y-16084571D02*
X8640714Y-16122667D01*
X8640714Y-16122667D02*
X8640714Y-16170286D01*
X8640714Y-16170286D02*
X8631191Y-16208381D01*
X8631191Y-16208381D02*
X8621667Y-16227428D01*
X8621667Y-16227428D02*
X8612143Y-16236952D01*
X8612143Y-16236952D02*
X8593095Y-16246476D01*
X8593095Y-16246476D02*
X8574048Y-16246476D01*
X8574048Y-16246476D02*
X8555000Y-16236952D01*
X8555000Y-16236952D02*
X8545476Y-16227428D01*
X8545476Y-16227428D02*
X8535953Y-16208381D01*
X8535953Y-16208381D02*
X8526429Y-16170286D01*
X8526429Y-16170286D02*
X8526429Y-16122667D01*
X8526429Y-16122667D02*
X8535953Y-16084571D01*
X8535953Y-16084571D02*
X8545476Y-16065524D01*
X8545476Y-16065524D02*
X8555000Y-16056000D01*
X8555000Y-16056000D02*
X8574048Y-16046476D01*
X8846429Y-16246476D02*
X8846429Y-16046476D01*
X8932143Y-16246476D02*
X8932143Y-16141714D01*
X8932143Y-16141714D02*
X8922619Y-16122667D01*
X8922619Y-16122667D02*
X8903572Y-16113143D01*
X8903572Y-16113143D02*
X8875000Y-16113143D01*
X8875000Y-16113143D02*
X8855953Y-16122667D01*
X8855953Y-16122667D02*
X8846429Y-16132190D01*
X9055953Y-16246476D02*
X9036905Y-16236952D01*
X9036905Y-16236952D02*
X9027381Y-16227428D01*
X9027381Y-16227428D02*
X9017857Y-16208381D01*
X9017857Y-16208381D02*
X9017857Y-16151238D01*
X9017857Y-16151238D02*
X9027381Y-16132190D01*
X9027381Y-16132190D02*
X9036905Y-16122667D01*
X9036905Y-16122667D02*
X9055953Y-16113143D01*
X9055953Y-16113143D02*
X9084524Y-16113143D01*
X9084524Y-16113143D02*
X9103572Y-16122667D01*
X9103572Y-16122667D02*
X9113095Y-16132190D01*
X9113095Y-16132190D02*
X9122619Y-16151238D01*
X9122619Y-16151238D02*
X9122619Y-16208381D01*
X9122619Y-16208381D02*
X9113095Y-16227428D01*
X9113095Y-16227428D02*
X9103572Y-16236952D01*
X9103572Y-16236952D02*
X9084524Y-16246476D01*
X9084524Y-16246476D02*
X9055953Y-16246476D01*
X9236905Y-16246476D02*
X9217857Y-16236952D01*
X9217857Y-16236952D02*
X9208334Y-16217905D01*
X9208334Y-16217905D02*
X9208334Y-16046476D01*
X9389286Y-16236952D02*
X9370238Y-16246476D01*
X9370238Y-16246476D02*
X9332143Y-16246476D01*
X9332143Y-16246476D02*
X9313095Y-16236952D01*
X9313095Y-16236952D02*
X9303572Y-16217905D01*
X9303572Y-16217905D02*
X9303572Y-16141714D01*
X9303572Y-16141714D02*
X9313095Y-16122667D01*
X9313095Y-16122667D02*
X9332143Y-16113143D01*
X9332143Y-16113143D02*
X9370238Y-16113143D01*
X9370238Y-16113143D02*
X9389286Y-16122667D01*
X9389286Y-16122667D02*
X9398810Y-16141714D01*
X9398810Y-16141714D02*
X9398810Y-16160762D01*
X9398810Y-16160762D02*
X9303572Y-16179809D01*
X9475000Y-16236952D02*
X9494048Y-16246476D01*
X9494048Y-16246476D02*
X9532143Y-16246476D01*
X9532143Y-16246476D02*
X9551191Y-16236952D01*
X9551191Y-16236952D02*
X9560715Y-16217905D01*
X9560715Y-16217905D02*
X9560715Y-16208381D01*
X9560715Y-16208381D02*
X9551191Y-16189333D01*
X9551191Y-16189333D02*
X9532143Y-16179809D01*
X9532143Y-16179809D02*
X9503572Y-16179809D01*
X9503572Y-16179809D02*
X9484524Y-16170286D01*
X9484524Y-16170286D02*
X9475000Y-16151238D01*
X9475000Y-16151238D02*
X9475000Y-16141714D01*
X9475000Y-16141714D02*
X9484524Y-16122667D01*
X9484524Y-16122667D02*
X9503572Y-16113143D01*
X9503572Y-16113143D02*
X9532143Y-16113143D01*
X9532143Y-16113143D02*
X9551191Y-16122667D01*
X9766429Y-16170286D02*
X9918810Y-16170286D01*
X9842619Y-16246476D02*
X9842619Y-16094095D01*
X10124524Y-16065524D02*
X10134048Y-16056000D01*
X10134048Y-16056000D02*
X10153095Y-16046476D01*
X10153095Y-16046476D02*
X10200715Y-16046476D01*
X10200715Y-16046476D02*
X10219762Y-16056000D01*
X10219762Y-16056000D02*
X10229286Y-16065524D01*
X10229286Y-16065524D02*
X10238810Y-16084571D01*
X10238810Y-16084571D02*
X10238810Y-16103619D01*
X10238810Y-16103619D02*
X10229286Y-16132190D01*
X10229286Y-16132190D02*
X10115000Y-16246476D01*
X10115000Y-16246476D02*
X10238810Y-16246476D01*
X10435000Y-16236952D02*
X10454048Y-16246476D01*
X10454048Y-16246476D02*
X10492143Y-16246476D01*
X10492143Y-16246476D02*
X10511191Y-16236952D01*
X10511191Y-16236952D02*
X10520715Y-16217905D01*
X10520715Y-16217905D02*
X10520715Y-16208381D01*
X10520715Y-16208381D02*
X10511191Y-16189333D01*
X10511191Y-16189333D02*
X10492143Y-16179809D01*
X10492143Y-16179809D02*
X10463572Y-16179809D01*
X10463572Y-16179809D02*
X10444524Y-16170286D01*
X10444524Y-16170286D02*
X10435000Y-16151238D01*
X10435000Y-16151238D02*
X10435000Y-16141714D01*
X10435000Y-16141714D02*
X10444524Y-16122667D01*
X10444524Y-16122667D02*
X10463572Y-16113143D01*
X10463572Y-16113143D02*
X10492143Y-16113143D01*
X10492143Y-16113143D02*
X10511191Y-16122667D01*
X10635000Y-16246476D02*
X10615953Y-16236952D01*
X10615953Y-16236952D02*
X10606429Y-16217905D01*
X10606429Y-16217905D02*
X10606429Y-16046476D01*
X10739762Y-16246476D02*
X10720715Y-16236952D01*
X10720715Y-16236952D02*
X10711191Y-16227428D01*
X10711191Y-16227428D02*
X10701667Y-16208381D01*
X10701667Y-16208381D02*
X10701667Y-16151238D01*
X10701667Y-16151238D02*
X10711191Y-16132190D01*
X10711191Y-16132190D02*
X10720715Y-16122667D01*
X10720715Y-16122667D02*
X10739762Y-16113143D01*
X10739762Y-16113143D02*
X10768334Y-16113143D01*
X10768334Y-16113143D02*
X10787381Y-16122667D01*
X10787381Y-16122667D02*
X10796905Y-16132190D01*
X10796905Y-16132190D02*
X10806429Y-16151238D01*
X10806429Y-16151238D02*
X10806429Y-16208381D01*
X10806429Y-16208381D02*
X10796905Y-16227428D01*
X10796905Y-16227428D02*
X10787381Y-16236952D01*
X10787381Y-16236952D02*
X10768334Y-16246476D01*
X10768334Y-16246476D02*
X10739762Y-16246476D01*
X10863572Y-16113143D02*
X10939762Y-16113143D01*
X10892143Y-16046476D02*
X10892143Y-16217905D01*
X10892143Y-16217905D02*
X10901667Y-16236952D01*
X10901667Y-16236952D02*
X10920715Y-16246476D01*
X10920715Y-16246476D02*
X10939762Y-16246476D01*
X10996905Y-16236952D02*
X11015953Y-16246476D01*
X11015953Y-16246476D02*
X11054048Y-16246476D01*
X11054048Y-16246476D02*
X11073096Y-16236952D01*
X11073096Y-16236952D02*
X11082619Y-16217905D01*
X11082619Y-16217905D02*
X11082619Y-16208381D01*
X11082619Y-16208381D02*
X11073096Y-16189333D01*
X11073096Y-16189333D02*
X11054048Y-16179809D01*
X11054048Y-16179809D02*
X11025476Y-16179809D01*
X11025476Y-16179809D02*
X11006429Y-16170286D01*
X11006429Y-16170286D02*
X10996905Y-16151238D01*
X10996905Y-16151238D02*
X10996905Y-16141714D01*
X10996905Y-16141714D02*
X11006429Y-16122667D01*
X11006429Y-16122667D02*
X11025476Y-16113143D01*
X11025476Y-16113143D02*
X11054048Y-16113143D01*
X11054048Y-16113143D02*
X11073096Y-16122667D01*
X11149286Y-16322667D02*
X11158810Y-16313143D01*
X11158810Y-16313143D02*
X11177857Y-16284571D01*
X11177857Y-16284571D02*
X11187381Y-16265524D01*
X11187381Y-16265524D02*
X11196905Y-16236952D01*
X11196905Y-16236952D02*
X11206429Y-16189333D01*
X11206429Y-16189333D02*
X11206429Y-16151238D01*
X11206429Y-16151238D02*
X11196905Y-16103619D01*
X11196905Y-16103619D02*
X11187381Y-16075048D01*
X11187381Y-16075048D02*
X11177857Y-16056000D01*
X11177857Y-16056000D02*
X11158810Y-16027428D01*
X11158810Y-16027428D02*
X11149286Y-16017905D01*
D14*
X4984749Y-16461749D02*
X4984749Y-16412251D01*
X4935251Y-16412251D01*
X4935251Y-16461749D01*
X4984749Y-16461749D01*
D11*
X5280714Y-16310476D02*
X5299762Y-16310476D01*
X5299762Y-16310476D02*
X5318810Y-16320000D01*
X5318810Y-16320000D02*
X5328333Y-16329524D01*
X5328333Y-16329524D02*
X5337857Y-16348571D01*
X5337857Y-16348571D02*
X5347381Y-16386667D01*
X5347381Y-16386667D02*
X5347381Y-16434286D01*
X5347381Y-16434286D02*
X5337857Y-16472381D01*
X5337857Y-16472381D02*
X5328333Y-16491428D01*
X5328333Y-16491428D02*
X5318810Y-16500952D01*
X5318810Y-16500952D02*
X5299762Y-16510476D01*
X5299762Y-16510476D02*
X5280714Y-16510476D01*
X5280714Y-16510476D02*
X5261667Y-16500952D01*
X5261667Y-16500952D02*
X5252143Y-16491428D01*
X5252143Y-16491428D02*
X5242619Y-16472381D01*
X5242619Y-16472381D02*
X5233095Y-16434286D01*
X5233095Y-16434286D02*
X5233095Y-16386667D01*
X5233095Y-16386667D02*
X5242619Y-16348571D01*
X5242619Y-16348571D02*
X5252143Y-16329524D01*
X5252143Y-16329524D02*
X5261667Y-16320000D01*
X5261667Y-16320000D02*
X5280714Y-16310476D01*
X5433095Y-16491428D02*
X5442619Y-16500952D01*
X5442619Y-16500952D02*
X5433095Y-16510476D01*
X5433095Y-16510476D02*
X5423571Y-16500952D01*
X5423571Y-16500952D02*
X5433095Y-16491428D01*
X5433095Y-16491428D02*
X5433095Y-16510476D01*
X5509286Y-16310476D02*
X5642619Y-16310476D01*
X5642619Y-16310476D02*
X5556905Y-16510476D01*
X5756905Y-16310476D02*
X5775952Y-16310476D01*
X5775952Y-16310476D02*
X5795000Y-16320000D01*
X5795000Y-16320000D02*
X5804524Y-16329524D01*
X5804524Y-16329524D02*
X5814048Y-16348571D01*
X5814048Y-16348571D02*
X5823571Y-16386667D01*
X5823571Y-16386667D02*
X5823571Y-16434286D01*
X5823571Y-16434286D02*
X5814048Y-16472381D01*
X5814048Y-16472381D02*
X5804524Y-16491428D01*
X5804524Y-16491428D02*
X5795000Y-16500952D01*
X5795000Y-16500952D02*
X5775952Y-16510476D01*
X5775952Y-16510476D02*
X5756905Y-16510476D01*
X5756905Y-16510476D02*
X5737857Y-16500952D01*
X5737857Y-16500952D02*
X5728333Y-16491428D01*
X5728333Y-16491428D02*
X5718809Y-16472381D01*
X5718809Y-16472381D02*
X5709286Y-16434286D01*
X5709286Y-16434286D02*
X5709286Y-16386667D01*
X5709286Y-16386667D02*
X5718809Y-16348571D01*
X5718809Y-16348571D02*
X5728333Y-16329524D01*
X5728333Y-16329524D02*
X5737857Y-16320000D01*
X5737857Y-16320000D02*
X5756905Y-16310476D01*
X5947381Y-16310476D02*
X5966429Y-16310476D01*
X5966429Y-16310476D02*
X5985476Y-16320000D01*
X5985476Y-16320000D02*
X5995000Y-16329524D01*
X5995000Y-16329524D02*
X6004524Y-16348571D01*
X6004524Y-16348571D02*
X6014048Y-16386667D01*
X6014048Y-16386667D02*
X6014048Y-16434286D01*
X6014048Y-16434286D02*
X6004524Y-16472381D01*
X6004524Y-16472381D02*
X5995000Y-16491428D01*
X5995000Y-16491428D02*
X5985476Y-16500952D01*
X5985476Y-16500952D02*
X5966429Y-16510476D01*
X5966429Y-16510476D02*
X5947381Y-16510476D01*
X5947381Y-16510476D02*
X5928333Y-16500952D01*
X5928333Y-16500952D02*
X5918809Y-16491428D01*
X5918809Y-16491428D02*
X5909286Y-16472381D01*
X5909286Y-16472381D02*
X5899762Y-16434286D01*
X5899762Y-16434286D02*
X5899762Y-16386667D01*
X5899762Y-16386667D02*
X5909286Y-16348571D01*
X5909286Y-16348571D02*
X5918809Y-16329524D01*
X5918809Y-16329524D02*
X5928333Y-16320000D01*
X5928333Y-16320000D02*
X5947381Y-16310476D01*
X6099762Y-16510476D02*
X6099762Y-16377143D01*
X6099762Y-16396190D02*
X6109286Y-16386667D01*
X6109286Y-16386667D02*
X6128333Y-16377143D01*
X6128333Y-16377143D02*
X6156905Y-16377143D01*
X6156905Y-16377143D02*
X6175952Y-16386667D01*
X6175952Y-16386667D02*
X6185476Y-16405714D01*
X6185476Y-16405714D02*
X6185476Y-16510476D01*
X6185476Y-16405714D02*
X6195000Y-16386667D01*
X6195000Y-16386667D02*
X6214048Y-16377143D01*
X6214048Y-16377143D02*
X6242619Y-16377143D01*
X6242619Y-16377143D02*
X6261667Y-16386667D01*
X6261667Y-16386667D02*
X6271190Y-16405714D01*
X6271190Y-16405714D02*
X6271190Y-16510476D01*
X6366429Y-16510476D02*
X6366429Y-16377143D01*
X6366429Y-16396190D02*
X6375952Y-16386667D01*
X6375952Y-16386667D02*
X6395000Y-16377143D01*
X6395000Y-16377143D02*
X6423571Y-16377143D01*
X6423571Y-16377143D02*
X6442619Y-16386667D01*
X6442619Y-16386667D02*
X6452143Y-16405714D01*
X6452143Y-16405714D02*
X6452143Y-16510476D01*
X6452143Y-16405714D02*
X6461667Y-16386667D01*
X6461667Y-16386667D02*
X6480714Y-16377143D01*
X6480714Y-16377143D02*
X6509286Y-16377143D01*
X6509286Y-16377143D02*
X6528333Y-16386667D01*
X6528333Y-16386667D02*
X6537857Y-16405714D01*
X6537857Y-16405714D02*
X6537857Y-16510476D01*
X6895952Y-16300952D02*
X6724524Y-16558095D01*
X7120714Y-16310476D02*
X7139762Y-16310476D01*
X7139762Y-16310476D02*
X7158810Y-16320000D01*
X7158810Y-16320000D02*
X7168333Y-16329524D01*
X7168333Y-16329524D02*
X7177857Y-16348571D01*
X7177857Y-16348571D02*
X7187381Y-16386667D01*
X7187381Y-16386667D02*
X7187381Y-16434286D01*
X7187381Y-16434286D02*
X7177857Y-16472381D01*
X7177857Y-16472381D02*
X7168333Y-16491428D01*
X7168333Y-16491428D02*
X7158810Y-16500952D01*
X7158810Y-16500952D02*
X7139762Y-16510476D01*
X7139762Y-16510476D02*
X7120714Y-16510476D01*
X7120714Y-16510476D02*
X7101667Y-16500952D01*
X7101667Y-16500952D02*
X7092143Y-16491428D01*
X7092143Y-16491428D02*
X7082619Y-16472381D01*
X7082619Y-16472381D02*
X7073095Y-16434286D01*
X7073095Y-16434286D02*
X7073095Y-16386667D01*
X7073095Y-16386667D02*
X7082619Y-16348571D01*
X7082619Y-16348571D02*
X7092143Y-16329524D01*
X7092143Y-16329524D02*
X7101667Y-16320000D01*
X7101667Y-16320000D02*
X7120714Y-16310476D01*
X7273095Y-16491428D02*
X7282619Y-16500952D01*
X7282619Y-16500952D02*
X7273095Y-16510476D01*
X7273095Y-16510476D02*
X7263571Y-16500952D01*
X7263571Y-16500952D02*
X7273095Y-16491428D01*
X7273095Y-16491428D02*
X7273095Y-16510476D01*
X7406429Y-16310476D02*
X7425476Y-16310476D01*
X7425476Y-16310476D02*
X7444524Y-16320000D01*
X7444524Y-16320000D02*
X7454048Y-16329524D01*
X7454048Y-16329524D02*
X7463571Y-16348571D01*
X7463571Y-16348571D02*
X7473095Y-16386667D01*
X7473095Y-16386667D02*
X7473095Y-16434286D01*
X7473095Y-16434286D02*
X7463571Y-16472381D01*
X7463571Y-16472381D02*
X7454048Y-16491428D01*
X7454048Y-16491428D02*
X7444524Y-16500952D01*
X7444524Y-16500952D02*
X7425476Y-16510476D01*
X7425476Y-16510476D02*
X7406429Y-16510476D01*
X7406429Y-16510476D02*
X7387381Y-16500952D01*
X7387381Y-16500952D02*
X7377857Y-16491428D01*
X7377857Y-16491428D02*
X7368333Y-16472381D01*
X7368333Y-16472381D02*
X7358810Y-16434286D01*
X7358810Y-16434286D02*
X7358810Y-16386667D01*
X7358810Y-16386667D02*
X7368333Y-16348571D01*
X7368333Y-16348571D02*
X7377857Y-16329524D01*
X7377857Y-16329524D02*
X7387381Y-16320000D01*
X7387381Y-16320000D02*
X7406429Y-16310476D01*
X7549286Y-16329524D02*
X7558810Y-16320000D01*
X7558810Y-16320000D02*
X7577857Y-16310476D01*
X7577857Y-16310476D02*
X7625476Y-16310476D01*
X7625476Y-16310476D02*
X7644524Y-16320000D01*
X7644524Y-16320000D02*
X7654048Y-16329524D01*
X7654048Y-16329524D02*
X7663571Y-16348571D01*
X7663571Y-16348571D02*
X7663571Y-16367619D01*
X7663571Y-16367619D02*
X7654048Y-16396190D01*
X7654048Y-16396190D02*
X7539762Y-16510476D01*
X7539762Y-16510476D02*
X7663571Y-16510476D01*
X7730238Y-16310476D02*
X7863571Y-16310476D01*
X7863571Y-16310476D02*
X7777857Y-16510476D01*
X8025476Y-16310476D02*
X7987381Y-16310476D01*
X7987381Y-16310476D02*
X7968333Y-16320000D01*
X7968333Y-16320000D02*
X7958810Y-16329524D01*
X7958810Y-16329524D02*
X7939762Y-16358095D01*
X7939762Y-16358095D02*
X7930238Y-16396190D01*
X7930238Y-16396190D02*
X7930238Y-16472381D01*
X7930238Y-16472381D02*
X7939762Y-16491428D01*
X7939762Y-16491428D02*
X7949286Y-16500952D01*
X7949286Y-16500952D02*
X7968333Y-16510476D01*
X7968333Y-16510476D02*
X8006429Y-16510476D01*
X8006429Y-16510476D02*
X8025476Y-16500952D01*
X8025476Y-16500952D02*
X8035000Y-16491428D01*
X8035000Y-16491428D02*
X8044524Y-16472381D01*
X8044524Y-16472381D02*
X8044524Y-16424762D01*
X8044524Y-16424762D02*
X8035000Y-16405714D01*
X8035000Y-16405714D02*
X8025476Y-16396190D01*
X8025476Y-16396190D02*
X8006429Y-16386667D01*
X8006429Y-16386667D02*
X7968333Y-16386667D01*
X7968333Y-16386667D02*
X7949286Y-16396190D01*
X7949286Y-16396190D02*
X7939762Y-16405714D01*
X7939762Y-16405714D02*
X7930238Y-16424762D01*
X8120714Y-16310476D02*
X8120714Y-16348571D01*
X8196905Y-16310476D02*
X8196905Y-16348571D01*
X8459762Y-16586667D02*
X8450238Y-16577143D01*
X8450238Y-16577143D02*
X8431191Y-16548571D01*
X8431191Y-16548571D02*
X8421667Y-16529524D01*
X8421667Y-16529524D02*
X8412143Y-16500952D01*
X8412143Y-16500952D02*
X8402619Y-16453333D01*
X8402619Y-16453333D02*
X8402619Y-16415238D01*
X8402619Y-16415238D02*
X8412143Y-16367619D01*
X8412143Y-16367619D02*
X8421667Y-16339048D01*
X8421667Y-16339048D02*
X8431191Y-16320000D01*
X8431191Y-16320000D02*
X8450238Y-16291428D01*
X8450238Y-16291428D02*
X8459762Y-16281905D01*
X8526429Y-16329524D02*
X8535953Y-16320000D01*
X8535953Y-16320000D02*
X8555000Y-16310476D01*
X8555000Y-16310476D02*
X8602619Y-16310476D01*
X8602619Y-16310476D02*
X8621667Y-16320000D01*
X8621667Y-16320000D02*
X8631191Y-16329524D01*
X8631191Y-16329524D02*
X8640714Y-16348571D01*
X8640714Y-16348571D02*
X8640714Y-16367619D01*
X8640714Y-16367619D02*
X8631191Y-16396190D01*
X8631191Y-16396190D02*
X8516905Y-16510476D01*
X8516905Y-16510476D02*
X8640714Y-16510476D01*
X8846429Y-16510476D02*
X8846429Y-16310476D01*
X8932143Y-16510476D02*
X8932143Y-16405714D01*
X8932143Y-16405714D02*
X8922619Y-16386667D01*
X8922619Y-16386667D02*
X8903572Y-16377143D01*
X8903572Y-16377143D02*
X8875000Y-16377143D01*
X8875000Y-16377143D02*
X8855953Y-16386667D01*
X8855953Y-16386667D02*
X8846429Y-16396190D01*
X9055953Y-16510476D02*
X9036905Y-16500952D01*
X9036905Y-16500952D02*
X9027381Y-16491428D01*
X9027381Y-16491428D02*
X9017857Y-16472381D01*
X9017857Y-16472381D02*
X9017857Y-16415238D01*
X9017857Y-16415238D02*
X9027381Y-16396190D01*
X9027381Y-16396190D02*
X9036905Y-16386667D01*
X9036905Y-16386667D02*
X9055953Y-16377143D01*
X9055953Y-16377143D02*
X9084524Y-16377143D01*
X9084524Y-16377143D02*
X9103572Y-16386667D01*
X9103572Y-16386667D02*
X9113095Y-16396190D01*
X9113095Y-16396190D02*
X9122619Y-16415238D01*
X9122619Y-16415238D02*
X9122619Y-16472381D01*
X9122619Y-16472381D02*
X9113095Y-16491428D01*
X9113095Y-16491428D02*
X9103572Y-16500952D01*
X9103572Y-16500952D02*
X9084524Y-16510476D01*
X9084524Y-16510476D02*
X9055953Y-16510476D01*
X9236905Y-16510476D02*
X9217857Y-16500952D01*
X9217857Y-16500952D02*
X9208334Y-16481905D01*
X9208334Y-16481905D02*
X9208334Y-16310476D01*
X9389286Y-16500952D02*
X9370238Y-16510476D01*
X9370238Y-16510476D02*
X9332143Y-16510476D01*
X9332143Y-16510476D02*
X9313095Y-16500952D01*
X9313095Y-16500952D02*
X9303572Y-16481905D01*
X9303572Y-16481905D02*
X9303572Y-16405714D01*
X9303572Y-16405714D02*
X9313095Y-16386667D01*
X9313095Y-16386667D02*
X9332143Y-16377143D01*
X9332143Y-16377143D02*
X9370238Y-16377143D01*
X9370238Y-16377143D02*
X9389286Y-16386667D01*
X9389286Y-16386667D02*
X9398810Y-16405714D01*
X9398810Y-16405714D02*
X9398810Y-16424762D01*
X9398810Y-16424762D02*
X9303572Y-16443809D01*
X9475000Y-16500952D02*
X9494048Y-16510476D01*
X9494048Y-16510476D02*
X9532143Y-16510476D01*
X9532143Y-16510476D02*
X9551191Y-16500952D01*
X9551191Y-16500952D02*
X9560715Y-16481905D01*
X9560715Y-16481905D02*
X9560715Y-16472381D01*
X9560715Y-16472381D02*
X9551191Y-16453333D01*
X9551191Y-16453333D02*
X9532143Y-16443809D01*
X9532143Y-16443809D02*
X9503572Y-16443809D01*
X9503572Y-16443809D02*
X9484524Y-16434286D01*
X9484524Y-16434286D02*
X9475000Y-16415238D01*
X9475000Y-16415238D02*
X9475000Y-16405714D01*
X9475000Y-16405714D02*
X9484524Y-16386667D01*
X9484524Y-16386667D02*
X9503572Y-16377143D01*
X9503572Y-16377143D02*
X9532143Y-16377143D01*
X9532143Y-16377143D02*
X9551191Y-16386667D01*
X9627381Y-16586667D02*
X9636905Y-16577143D01*
X9636905Y-16577143D02*
X9655953Y-16548571D01*
X9655953Y-16548571D02*
X9665476Y-16529524D01*
X9665476Y-16529524D02*
X9675000Y-16500952D01*
X9675000Y-16500952D02*
X9684524Y-16453333D01*
X9684524Y-16453333D02*
X9684524Y-16415238D01*
X9684524Y-16415238D02*
X9675000Y-16367619D01*
X9675000Y-16367619D02*
X9665476Y-16339048D01*
X9665476Y-16339048D02*
X9655953Y-16320000D01*
X9655953Y-16320000D02*
X9636905Y-16291428D01*
X9636905Y-16291428D02*
X9627381Y-16281905D01*
D15*
X4956900Y-16739100D02*
X4995000Y-16701000D01*
X4956900Y-16662900D01*
X4918800Y-16701000D01*
X4956900Y-16739100D01*
D11*
X5280714Y-16574476D02*
X5299762Y-16574476D01*
X5299762Y-16574476D02*
X5318810Y-16584000D01*
X5318810Y-16584000D02*
X5328333Y-16593524D01*
X5328333Y-16593524D02*
X5337857Y-16612571D01*
X5337857Y-16612571D02*
X5347381Y-16650667D01*
X5347381Y-16650667D02*
X5347381Y-16698286D01*
X5347381Y-16698286D02*
X5337857Y-16736381D01*
X5337857Y-16736381D02*
X5328333Y-16755428D01*
X5328333Y-16755428D02*
X5318810Y-16764952D01*
X5318810Y-16764952D02*
X5299762Y-16774476D01*
X5299762Y-16774476D02*
X5280714Y-16774476D01*
X5280714Y-16774476D02*
X5261667Y-16764952D01*
X5261667Y-16764952D02*
X5252143Y-16755428D01*
X5252143Y-16755428D02*
X5242619Y-16736381D01*
X5242619Y-16736381D02*
X5233095Y-16698286D01*
X5233095Y-16698286D02*
X5233095Y-16650667D01*
X5233095Y-16650667D02*
X5242619Y-16612571D01*
X5242619Y-16612571D02*
X5252143Y-16593524D01*
X5252143Y-16593524D02*
X5261667Y-16584000D01*
X5261667Y-16584000D02*
X5280714Y-16574476D01*
X5433095Y-16755428D02*
X5442619Y-16764952D01*
X5442619Y-16764952D02*
X5433095Y-16774476D01*
X5433095Y-16774476D02*
X5423571Y-16764952D01*
X5423571Y-16764952D02*
X5433095Y-16755428D01*
X5433095Y-16755428D02*
X5433095Y-16774476D01*
X5509286Y-16574476D02*
X5642619Y-16574476D01*
X5642619Y-16574476D02*
X5556905Y-16774476D01*
X5804524Y-16574476D02*
X5766428Y-16574476D01*
X5766428Y-16574476D02*
X5747381Y-16584000D01*
X5747381Y-16584000D02*
X5737857Y-16593524D01*
X5737857Y-16593524D02*
X5718809Y-16622095D01*
X5718809Y-16622095D02*
X5709286Y-16660190D01*
X5709286Y-16660190D02*
X5709286Y-16736381D01*
X5709286Y-16736381D02*
X5718809Y-16755428D01*
X5718809Y-16755428D02*
X5728333Y-16764952D01*
X5728333Y-16764952D02*
X5747381Y-16774476D01*
X5747381Y-16774476D02*
X5785476Y-16774476D01*
X5785476Y-16774476D02*
X5804524Y-16764952D01*
X5804524Y-16764952D02*
X5814048Y-16755428D01*
X5814048Y-16755428D02*
X5823571Y-16736381D01*
X5823571Y-16736381D02*
X5823571Y-16688762D01*
X5823571Y-16688762D02*
X5814048Y-16669714D01*
X5814048Y-16669714D02*
X5804524Y-16660190D01*
X5804524Y-16660190D02*
X5785476Y-16650667D01*
X5785476Y-16650667D02*
X5747381Y-16650667D01*
X5747381Y-16650667D02*
X5728333Y-16660190D01*
X5728333Y-16660190D02*
X5718809Y-16669714D01*
X5718809Y-16669714D02*
X5709286Y-16688762D01*
X5899762Y-16593524D02*
X5909286Y-16584000D01*
X5909286Y-16584000D02*
X5928333Y-16574476D01*
X5928333Y-16574476D02*
X5975952Y-16574476D01*
X5975952Y-16574476D02*
X5995000Y-16584000D01*
X5995000Y-16584000D02*
X6004524Y-16593524D01*
X6004524Y-16593524D02*
X6014048Y-16612571D01*
X6014048Y-16612571D02*
X6014048Y-16631619D01*
X6014048Y-16631619D02*
X6004524Y-16660190D01*
X6004524Y-16660190D02*
X5890238Y-16774476D01*
X5890238Y-16774476D02*
X6014048Y-16774476D01*
X6099762Y-16774476D02*
X6099762Y-16641143D01*
X6099762Y-16660190D02*
X6109286Y-16650667D01*
X6109286Y-16650667D02*
X6128333Y-16641143D01*
X6128333Y-16641143D02*
X6156905Y-16641143D01*
X6156905Y-16641143D02*
X6175952Y-16650667D01*
X6175952Y-16650667D02*
X6185476Y-16669714D01*
X6185476Y-16669714D02*
X6185476Y-16774476D01*
X6185476Y-16669714D02*
X6195000Y-16650667D01*
X6195000Y-16650667D02*
X6214048Y-16641143D01*
X6214048Y-16641143D02*
X6242619Y-16641143D01*
X6242619Y-16641143D02*
X6261667Y-16650667D01*
X6261667Y-16650667D02*
X6271190Y-16669714D01*
X6271190Y-16669714D02*
X6271190Y-16774476D01*
X6366429Y-16774476D02*
X6366429Y-16641143D01*
X6366429Y-16660190D02*
X6375952Y-16650667D01*
X6375952Y-16650667D02*
X6395000Y-16641143D01*
X6395000Y-16641143D02*
X6423571Y-16641143D01*
X6423571Y-16641143D02*
X6442619Y-16650667D01*
X6442619Y-16650667D02*
X6452143Y-16669714D01*
X6452143Y-16669714D02*
X6452143Y-16774476D01*
X6452143Y-16669714D02*
X6461667Y-16650667D01*
X6461667Y-16650667D02*
X6480714Y-16641143D01*
X6480714Y-16641143D02*
X6509286Y-16641143D01*
X6509286Y-16641143D02*
X6528333Y-16650667D01*
X6528333Y-16650667D02*
X6537857Y-16669714D01*
X6537857Y-16669714D02*
X6537857Y-16774476D01*
X6895952Y-16564952D02*
X6724524Y-16822095D01*
X7120714Y-16574476D02*
X7139762Y-16574476D01*
X7139762Y-16574476D02*
X7158810Y-16584000D01*
X7158810Y-16584000D02*
X7168333Y-16593524D01*
X7168333Y-16593524D02*
X7177857Y-16612571D01*
X7177857Y-16612571D02*
X7187381Y-16650667D01*
X7187381Y-16650667D02*
X7187381Y-16698286D01*
X7187381Y-16698286D02*
X7177857Y-16736381D01*
X7177857Y-16736381D02*
X7168333Y-16755428D01*
X7168333Y-16755428D02*
X7158810Y-16764952D01*
X7158810Y-16764952D02*
X7139762Y-16774476D01*
X7139762Y-16774476D02*
X7120714Y-16774476D01*
X7120714Y-16774476D02*
X7101667Y-16764952D01*
X7101667Y-16764952D02*
X7092143Y-16755428D01*
X7092143Y-16755428D02*
X7082619Y-16736381D01*
X7082619Y-16736381D02*
X7073095Y-16698286D01*
X7073095Y-16698286D02*
X7073095Y-16650667D01*
X7073095Y-16650667D02*
X7082619Y-16612571D01*
X7082619Y-16612571D02*
X7092143Y-16593524D01*
X7092143Y-16593524D02*
X7101667Y-16584000D01*
X7101667Y-16584000D02*
X7120714Y-16574476D01*
X7273095Y-16755428D02*
X7282619Y-16764952D01*
X7282619Y-16764952D02*
X7273095Y-16774476D01*
X7273095Y-16774476D02*
X7263571Y-16764952D01*
X7263571Y-16764952D02*
X7273095Y-16755428D01*
X7273095Y-16755428D02*
X7273095Y-16774476D01*
X7406429Y-16574476D02*
X7425476Y-16574476D01*
X7425476Y-16574476D02*
X7444524Y-16584000D01*
X7444524Y-16584000D02*
X7454048Y-16593524D01*
X7454048Y-16593524D02*
X7463571Y-16612571D01*
X7463571Y-16612571D02*
X7473095Y-16650667D01*
X7473095Y-16650667D02*
X7473095Y-16698286D01*
X7473095Y-16698286D02*
X7463571Y-16736381D01*
X7463571Y-16736381D02*
X7454048Y-16755428D01*
X7454048Y-16755428D02*
X7444524Y-16764952D01*
X7444524Y-16764952D02*
X7425476Y-16774476D01*
X7425476Y-16774476D02*
X7406429Y-16774476D01*
X7406429Y-16774476D02*
X7387381Y-16764952D01*
X7387381Y-16764952D02*
X7377857Y-16755428D01*
X7377857Y-16755428D02*
X7368333Y-16736381D01*
X7368333Y-16736381D02*
X7358810Y-16698286D01*
X7358810Y-16698286D02*
X7358810Y-16650667D01*
X7358810Y-16650667D02*
X7368333Y-16612571D01*
X7368333Y-16612571D02*
X7377857Y-16593524D01*
X7377857Y-16593524D02*
X7387381Y-16584000D01*
X7387381Y-16584000D02*
X7406429Y-16574476D01*
X7539762Y-16574476D02*
X7663571Y-16574476D01*
X7663571Y-16574476D02*
X7596905Y-16650667D01*
X7596905Y-16650667D02*
X7625476Y-16650667D01*
X7625476Y-16650667D02*
X7644524Y-16660190D01*
X7644524Y-16660190D02*
X7654048Y-16669714D01*
X7654048Y-16669714D02*
X7663571Y-16688762D01*
X7663571Y-16688762D02*
X7663571Y-16736381D01*
X7663571Y-16736381D02*
X7654048Y-16755428D01*
X7654048Y-16755428D02*
X7644524Y-16764952D01*
X7644524Y-16764952D02*
X7625476Y-16774476D01*
X7625476Y-16774476D02*
X7568333Y-16774476D01*
X7568333Y-16774476D02*
X7549286Y-16764952D01*
X7549286Y-16764952D02*
X7539762Y-16755428D01*
X7787381Y-16574476D02*
X7806429Y-16574476D01*
X7806429Y-16574476D02*
X7825476Y-16584000D01*
X7825476Y-16584000D02*
X7835000Y-16593524D01*
X7835000Y-16593524D02*
X7844524Y-16612571D01*
X7844524Y-16612571D02*
X7854048Y-16650667D01*
X7854048Y-16650667D02*
X7854048Y-16698286D01*
X7854048Y-16698286D02*
X7844524Y-16736381D01*
X7844524Y-16736381D02*
X7835000Y-16755428D01*
X7835000Y-16755428D02*
X7825476Y-16764952D01*
X7825476Y-16764952D02*
X7806429Y-16774476D01*
X7806429Y-16774476D02*
X7787381Y-16774476D01*
X7787381Y-16774476D02*
X7768333Y-16764952D01*
X7768333Y-16764952D02*
X7758810Y-16755428D01*
X7758810Y-16755428D02*
X7749286Y-16736381D01*
X7749286Y-16736381D02*
X7739762Y-16698286D01*
X7739762Y-16698286D02*
X7739762Y-16650667D01*
X7739762Y-16650667D02*
X7749286Y-16612571D01*
X7749286Y-16612571D02*
X7758810Y-16593524D01*
X7758810Y-16593524D02*
X7768333Y-16584000D01*
X7768333Y-16584000D02*
X7787381Y-16574476D01*
X7977857Y-16574476D02*
X7996905Y-16574476D01*
X7996905Y-16574476D02*
X8015952Y-16584000D01*
X8015952Y-16584000D02*
X8025476Y-16593524D01*
X8025476Y-16593524D02*
X8035000Y-16612571D01*
X8035000Y-16612571D02*
X8044524Y-16650667D01*
X8044524Y-16650667D02*
X8044524Y-16698286D01*
X8044524Y-16698286D02*
X8035000Y-16736381D01*
X8035000Y-16736381D02*
X8025476Y-16755428D01*
X8025476Y-16755428D02*
X8015952Y-16764952D01*
X8015952Y-16764952D02*
X7996905Y-16774476D01*
X7996905Y-16774476D02*
X7977857Y-16774476D01*
X7977857Y-16774476D02*
X7958810Y-16764952D01*
X7958810Y-16764952D02*
X7949286Y-16755428D01*
X7949286Y-16755428D02*
X7939762Y-16736381D01*
X7939762Y-16736381D02*
X7930238Y-16698286D01*
X7930238Y-16698286D02*
X7930238Y-16650667D01*
X7930238Y-16650667D02*
X7939762Y-16612571D01*
X7939762Y-16612571D02*
X7949286Y-16593524D01*
X7949286Y-16593524D02*
X7958810Y-16584000D01*
X7958810Y-16584000D02*
X7977857Y-16574476D01*
X8120714Y-16574476D02*
X8120714Y-16612571D01*
X8196905Y-16574476D02*
X8196905Y-16612571D01*
X8459762Y-16850667D02*
X8450238Y-16841143D01*
X8450238Y-16841143D02*
X8431191Y-16812571D01*
X8431191Y-16812571D02*
X8421667Y-16793524D01*
X8421667Y-16793524D02*
X8412143Y-16764952D01*
X8412143Y-16764952D02*
X8402619Y-16717333D01*
X8402619Y-16717333D02*
X8402619Y-16679238D01*
X8402619Y-16679238D02*
X8412143Y-16631619D01*
X8412143Y-16631619D02*
X8421667Y-16603048D01*
X8421667Y-16603048D02*
X8431191Y-16584000D01*
X8431191Y-16584000D02*
X8450238Y-16555428D01*
X8450238Y-16555428D02*
X8459762Y-16545905D01*
X8621667Y-16641143D02*
X8621667Y-16774476D01*
X8574048Y-16564952D02*
X8526429Y-16707809D01*
X8526429Y-16707809D02*
X8650238Y-16707809D01*
X8755000Y-16660190D02*
X8735953Y-16650667D01*
X8735953Y-16650667D02*
X8726429Y-16641143D01*
X8726429Y-16641143D02*
X8716905Y-16622095D01*
X8716905Y-16622095D02*
X8716905Y-16612571D01*
X8716905Y-16612571D02*
X8726429Y-16593524D01*
X8726429Y-16593524D02*
X8735953Y-16584000D01*
X8735953Y-16584000D02*
X8755000Y-16574476D01*
X8755000Y-16574476D02*
X8793095Y-16574476D01*
X8793095Y-16574476D02*
X8812143Y-16584000D01*
X8812143Y-16584000D02*
X8821667Y-16593524D01*
X8821667Y-16593524D02*
X8831191Y-16612571D01*
X8831191Y-16612571D02*
X8831191Y-16622095D01*
X8831191Y-16622095D02*
X8821667Y-16641143D01*
X8821667Y-16641143D02*
X8812143Y-16650667D01*
X8812143Y-16650667D02*
X8793095Y-16660190D01*
X8793095Y-16660190D02*
X8755000Y-16660190D01*
X8755000Y-16660190D02*
X8735953Y-16669714D01*
X8735953Y-16669714D02*
X8726429Y-16679238D01*
X8726429Y-16679238D02*
X8716905Y-16698286D01*
X8716905Y-16698286D02*
X8716905Y-16736381D01*
X8716905Y-16736381D02*
X8726429Y-16755428D01*
X8726429Y-16755428D02*
X8735953Y-16764952D01*
X8735953Y-16764952D02*
X8755000Y-16774476D01*
X8755000Y-16774476D02*
X8793095Y-16774476D01*
X8793095Y-16774476D02*
X8812143Y-16764952D01*
X8812143Y-16764952D02*
X8821667Y-16755428D01*
X8821667Y-16755428D02*
X8831191Y-16736381D01*
X8831191Y-16736381D02*
X8831191Y-16698286D01*
X8831191Y-16698286D02*
X8821667Y-16679238D01*
X8821667Y-16679238D02*
X8812143Y-16669714D01*
X8812143Y-16669714D02*
X8793095Y-16660190D01*
X9036905Y-16774476D02*
X9036905Y-16574476D01*
X9122619Y-16774476D02*
X9122619Y-16669714D01*
X9122619Y-16669714D02*
X9113095Y-16650667D01*
X9113095Y-16650667D02*
X9094048Y-16641143D01*
X9094048Y-16641143D02*
X9065476Y-16641143D01*
X9065476Y-16641143D02*
X9046429Y-16650667D01*
X9046429Y-16650667D02*
X9036905Y-16660190D01*
X9246429Y-16774476D02*
X9227381Y-16764952D01*
X9227381Y-16764952D02*
X9217857Y-16755428D01*
X9217857Y-16755428D02*
X9208334Y-16736381D01*
X9208334Y-16736381D02*
X9208334Y-16679238D01*
X9208334Y-16679238D02*
X9217857Y-16660190D01*
X9217857Y-16660190D02*
X9227381Y-16650667D01*
X9227381Y-16650667D02*
X9246429Y-16641143D01*
X9246429Y-16641143D02*
X9275000Y-16641143D01*
X9275000Y-16641143D02*
X9294048Y-16650667D01*
X9294048Y-16650667D02*
X9303572Y-16660190D01*
X9303572Y-16660190D02*
X9313095Y-16679238D01*
X9313095Y-16679238D02*
X9313095Y-16736381D01*
X9313095Y-16736381D02*
X9303572Y-16755428D01*
X9303572Y-16755428D02*
X9294048Y-16764952D01*
X9294048Y-16764952D02*
X9275000Y-16774476D01*
X9275000Y-16774476D02*
X9246429Y-16774476D01*
X9427381Y-16774476D02*
X9408334Y-16764952D01*
X9408334Y-16764952D02*
X9398810Y-16745905D01*
X9398810Y-16745905D02*
X9398810Y-16574476D01*
X9579762Y-16764952D02*
X9560715Y-16774476D01*
X9560715Y-16774476D02*
X9522619Y-16774476D01*
X9522619Y-16774476D02*
X9503572Y-16764952D01*
X9503572Y-16764952D02*
X9494048Y-16745905D01*
X9494048Y-16745905D02*
X9494048Y-16669714D01*
X9494048Y-16669714D02*
X9503572Y-16650667D01*
X9503572Y-16650667D02*
X9522619Y-16641143D01*
X9522619Y-16641143D02*
X9560715Y-16641143D01*
X9560715Y-16641143D02*
X9579762Y-16650667D01*
X9579762Y-16650667D02*
X9589286Y-16669714D01*
X9589286Y-16669714D02*
X9589286Y-16688762D01*
X9589286Y-16688762D02*
X9494048Y-16707809D01*
X9665476Y-16764952D02*
X9684524Y-16774476D01*
X9684524Y-16774476D02*
X9722619Y-16774476D01*
X9722619Y-16774476D02*
X9741667Y-16764952D01*
X9741667Y-16764952D02*
X9751191Y-16745905D01*
X9751191Y-16745905D02*
X9751191Y-16736381D01*
X9751191Y-16736381D02*
X9741667Y-16717333D01*
X9741667Y-16717333D02*
X9722619Y-16707809D01*
X9722619Y-16707809D02*
X9694048Y-16707809D01*
X9694048Y-16707809D02*
X9675000Y-16698286D01*
X9675000Y-16698286D02*
X9665476Y-16679238D01*
X9665476Y-16679238D02*
X9665476Y-16669714D01*
X9665476Y-16669714D02*
X9675000Y-16650667D01*
X9675000Y-16650667D02*
X9694048Y-16641143D01*
X9694048Y-16641143D02*
X9722619Y-16641143D01*
X9722619Y-16641143D02*
X9741667Y-16650667D01*
X9817857Y-16850667D02*
X9827381Y-16841143D01*
X9827381Y-16841143D02*
X9846429Y-16812571D01*
X9846429Y-16812571D02*
X9855953Y-16793524D01*
X9855953Y-16793524D02*
X9865476Y-16764952D01*
X9865476Y-16764952D02*
X9875000Y-16717333D01*
X9875000Y-16717333D02*
X9875000Y-16679238D01*
X9875000Y-16679238D02*
X9865476Y-16631619D01*
X9865476Y-16631619D02*
X9855953Y-16603048D01*
X9855953Y-16603048D02*
X9846429Y-16584000D01*
X9846429Y-16584000D02*
X9827381Y-16555428D01*
X9827381Y-16555428D02*
X9817857Y-16545905D01*
D16*
X4915000Y-16925000D02*
X4995000Y-17005000D01*
X4995000Y-16925000D02*
X4915000Y-17005000D01*
X4995000Y-16965000D02*
G75*
G03*
X4995000Y-16965000I-40000J0D01*
G01*
D11*
X5280714Y-16838476D02*
X5299762Y-16838476D01*
X5299762Y-16838476D02*
X5318810Y-16848000D01*
X5318810Y-16848000D02*
X5328333Y-16857524D01*
X5328333Y-16857524D02*
X5337857Y-16876571D01*
X5337857Y-16876571D02*
X5347381Y-16914667D01*
X5347381Y-16914667D02*
X5347381Y-16962286D01*
X5347381Y-16962286D02*
X5337857Y-17000381D01*
X5337857Y-17000381D02*
X5328333Y-17019429D01*
X5328333Y-17019429D02*
X5318810Y-17028952D01*
X5318810Y-17028952D02*
X5299762Y-17038476D01*
X5299762Y-17038476D02*
X5280714Y-17038476D01*
X5280714Y-17038476D02*
X5261667Y-17028952D01*
X5261667Y-17028952D02*
X5252143Y-17019429D01*
X5252143Y-17019429D02*
X5242619Y-17000381D01*
X5242619Y-17000381D02*
X5233095Y-16962286D01*
X5233095Y-16962286D02*
X5233095Y-16914667D01*
X5233095Y-16914667D02*
X5242619Y-16876571D01*
X5242619Y-16876571D02*
X5252143Y-16857524D01*
X5252143Y-16857524D02*
X5261667Y-16848000D01*
X5261667Y-16848000D02*
X5280714Y-16838476D01*
X5433095Y-17019429D02*
X5442619Y-17028952D01*
X5442619Y-17028952D02*
X5433095Y-17038476D01*
X5433095Y-17038476D02*
X5423571Y-17028952D01*
X5423571Y-17028952D02*
X5433095Y-17019429D01*
X5433095Y-17019429D02*
X5433095Y-17038476D01*
X5556905Y-16924190D02*
X5537857Y-16914667D01*
X5537857Y-16914667D02*
X5528333Y-16905143D01*
X5528333Y-16905143D02*
X5518810Y-16886095D01*
X5518810Y-16886095D02*
X5518810Y-16876571D01*
X5518810Y-16876571D02*
X5528333Y-16857524D01*
X5528333Y-16857524D02*
X5537857Y-16848000D01*
X5537857Y-16848000D02*
X5556905Y-16838476D01*
X5556905Y-16838476D02*
X5595000Y-16838476D01*
X5595000Y-16838476D02*
X5614048Y-16848000D01*
X5614048Y-16848000D02*
X5623571Y-16857524D01*
X5623571Y-16857524D02*
X5633095Y-16876571D01*
X5633095Y-16876571D02*
X5633095Y-16886095D01*
X5633095Y-16886095D02*
X5623571Y-16905143D01*
X5623571Y-16905143D02*
X5614048Y-16914667D01*
X5614048Y-16914667D02*
X5595000Y-16924190D01*
X5595000Y-16924190D02*
X5556905Y-16924190D01*
X5556905Y-16924190D02*
X5537857Y-16933714D01*
X5537857Y-16933714D02*
X5528333Y-16943238D01*
X5528333Y-16943238D02*
X5518810Y-16962286D01*
X5518810Y-16962286D02*
X5518810Y-17000381D01*
X5518810Y-17000381D02*
X5528333Y-17019429D01*
X5528333Y-17019429D02*
X5537857Y-17028952D01*
X5537857Y-17028952D02*
X5556905Y-17038476D01*
X5556905Y-17038476D02*
X5595000Y-17038476D01*
X5595000Y-17038476D02*
X5614048Y-17028952D01*
X5614048Y-17028952D02*
X5623571Y-17019429D01*
X5623571Y-17019429D02*
X5633095Y-17000381D01*
X5633095Y-17000381D02*
X5633095Y-16962286D01*
X5633095Y-16962286D02*
X5623571Y-16943238D01*
X5623571Y-16943238D02*
X5614048Y-16933714D01*
X5614048Y-16933714D02*
X5595000Y-16924190D01*
X5756905Y-16838476D02*
X5775952Y-16838476D01*
X5775952Y-16838476D02*
X5795000Y-16848000D01*
X5795000Y-16848000D02*
X5804524Y-16857524D01*
X5804524Y-16857524D02*
X5814048Y-16876571D01*
X5814048Y-16876571D02*
X5823571Y-16914667D01*
X5823571Y-16914667D02*
X5823571Y-16962286D01*
X5823571Y-16962286D02*
X5814048Y-17000381D01*
X5814048Y-17000381D02*
X5804524Y-17019429D01*
X5804524Y-17019429D02*
X5795000Y-17028952D01*
X5795000Y-17028952D02*
X5775952Y-17038476D01*
X5775952Y-17038476D02*
X5756905Y-17038476D01*
X5756905Y-17038476D02*
X5737857Y-17028952D01*
X5737857Y-17028952D02*
X5728333Y-17019429D01*
X5728333Y-17019429D02*
X5718809Y-17000381D01*
X5718809Y-17000381D02*
X5709286Y-16962286D01*
X5709286Y-16962286D02*
X5709286Y-16914667D01*
X5709286Y-16914667D02*
X5718809Y-16876571D01*
X5718809Y-16876571D02*
X5728333Y-16857524D01*
X5728333Y-16857524D02*
X5737857Y-16848000D01*
X5737857Y-16848000D02*
X5756905Y-16838476D01*
X5947381Y-16838476D02*
X5966429Y-16838476D01*
X5966429Y-16838476D02*
X5985476Y-16848000D01*
X5985476Y-16848000D02*
X5995000Y-16857524D01*
X5995000Y-16857524D02*
X6004524Y-16876571D01*
X6004524Y-16876571D02*
X6014048Y-16914667D01*
X6014048Y-16914667D02*
X6014048Y-16962286D01*
X6014048Y-16962286D02*
X6004524Y-17000381D01*
X6004524Y-17000381D02*
X5995000Y-17019429D01*
X5995000Y-17019429D02*
X5985476Y-17028952D01*
X5985476Y-17028952D02*
X5966429Y-17038476D01*
X5966429Y-17038476D02*
X5947381Y-17038476D01*
X5947381Y-17038476D02*
X5928333Y-17028952D01*
X5928333Y-17028952D02*
X5918809Y-17019429D01*
X5918809Y-17019429D02*
X5909286Y-17000381D01*
X5909286Y-17000381D02*
X5899762Y-16962286D01*
X5899762Y-16962286D02*
X5899762Y-16914667D01*
X5899762Y-16914667D02*
X5909286Y-16876571D01*
X5909286Y-16876571D02*
X5918809Y-16857524D01*
X5918809Y-16857524D02*
X5928333Y-16848000D01*
X5928333Y-16848000D02*
X5947381Y-16838476D01*
X6099762Y-17038476D02*
X6099762Y-16905143D01*
X6099762Y-16924190D02*
X6109286Y-16914667D01*
X6109286Y-16914667D02*
X6128333Y-16905143D01*
X6128333Y-16905143D02*
X6156905Y-16905143D01*
X6156905Y-16905143D02*
X6175952Y-16914667D01*
X6175952Y-16914667D02*
X6185476Y-16933714D01*
X6185476Y-16933714D02*
X6185476Y-17038476D01*
X6185476Y-16933714D02*
X6195000Y-16914667D01*
X6195000Y-16914667D02*
X6214048Y-16905143D01*
X6214048Y-16905143D02*
X6242619Y-16905143D01*
X6242619Y-16905143D02*
X6261667Y-16914667D01*
X6261667Y-16914667D02*
X6271190Y-16933714D01*
X6271190Y-16933714D02*
X6271190Y-17038476D01*
X6366429Y-17038476D02*
X6366429Y-16905143D01*
X6366429Y-16924190D02*
X6375952Y-16914667D01*
X6375952Y-16914667D02*
X6395000Y-16905143D01*
X6395000Y-16905143D02*
X6423571Y-16905143D01*
X6423571Y-16905143D02*
X6442619Y-16914667D01*
X6442619Y-16914667D02*
X6452143Y-16933714D01*
X6452143Y-16933714D02*
X6452143Y-17038476D01*
X6452143Y-16933714D02*
X6461667Y-16914667D01*
X6461667Y-16914667D02*
X6480714Y-16905143D01*
X6480714Y-16905143D02*
X6509286Y-16905143D01*
X6509286Y-16905143D02*
X6528333Y-16914667D01*
X6528333Y-16914667D02*
X6537857Y-16933714D01*
X6537857Y-16933714D02*
X6537857Y-17038476D01*
X6895952Y-16828952D02*
X6724524Y-17086095D01*
X7120714Y-16838476D02*
X7139762Y-16838476D01*
X7139762Y-16838476D02*
X7158810Y-16848000D01*
X7158810Y-16848000D02*
X7168333Y-16857524D01*
X7168333Y-16857524D02*
X7177857Y-16876571D01*
X7177857Y-16876571D02*
X7187381Y-16914667D01*
X7187381Y-16914667D02*
X7187381Y-16962286D01*
X7187381Y-16962286D02*
X7177857Y-17000381D01*
X7177857Y-17000381D02*
X7168333Y-17019429D01*
X7168333Y-17019429D02*
X7158810Y-17028952D01*
X7158810Y-17028952D02*
X7139762Y-17038476D01*
X7139762Y-17038476D02*
X7120714Y-17038476D01*
X7120714Y-17038476D02*
X7101667Y-17028952D01*
X7101667Y-17028952D02*
X7092143Y-17019429D01*
X7092143Y-17019429D02*
X7082619Y-17000381D01*
X7082619Y-17000381D02*
X7073095Y-16962286D01*
X7073095Y-16962286D02*
X7073095Y-16914667D01*
X7073095Y-16914667D02*
X7082619Y-16876571D01*
X7082619Y-16876571D02*
X7092143Y-16857524D01*
X7092143Y-16857524D02*
X7101667Y-16848000D01*
X7101667Y-16848000D02*
X7120714Y-16838476D01*
X7273095Y-17019429D02*
X7282619Y-17028952D01*
X7282619Y-17028952D02*
X7273095Y-17038476D01*
X7273095Y-17038476D02*
X7263571Y-17028952D01*
X7263571Y-17028952D02*
X7273095Y-17019429D01*
X7273095Y-17019429D02*
X7273095Y-17038476D01*
X7406429Y-16838476D02*
X7425476Y-16838476D01*
X7425476Y-16838476D02*
X7444524Y-16848000D01*
X7444524Y-16848000D02*
X7454048Y-16857524D01*
X7454048Y-16857524D02*
X7463571Y-16876571D01*
X7463571Y-16876571D02*
X7473095Y-16914667D01*
X7473095Y-16914667D02*
X7473095Y-16962286D01*
X7473095Y-16962286D02*
X7463571Y-17000381D01*
X7463571Y-17000381D02*
X7454048Y-17019429D01*
X7454048Y-17019429D02*
X7444524Y-17028952D01*
X7444524Y-17028952D02*
X7425476Y-17038476D01*
X7425476Y-17038476D02*
X7406429Y-17038476D01*
X7406429Y-17038476D02*
X7387381Y-17028952D01*
X7387381Y-17028952D02*
X7377857Y-17019429D01*
X7377857Y-17019429D02*
X7368333Y-17000381D01*
X7368333Y-17000381D02*
X7358810Y-16962286D01*
X7358810Y-16962286D02*
X7358810Y-16914667D01*
X7358810Y-16914667D02*
X7368333Y-16876571D01*
X7368333Y-16876571D02*
X7377857Y-16857524D01*
X7377857Y-16857524D02*
X7387381Y-16848000D01*
X7387381Y-16848000D02*
X7406429Y-16838476D01*
X7539762Y-16838476D02*
X7663571Y-16838476D01*
X7663571Y-16838476D02*
X7596905Y-16914667D01*
X7596905Y-16914667D02*
X7625476Y-16914667D01*
X7625476Y-16914667D02*
X7644524Y-16924190D01*
X7644524Y-16924190D02*
X7654048Y-16933714D01*
X7654048Y-16933714D02*
X7663571Y-16952762D01*
X7663571Y-16952762D02*
X7663571Y-17000381D01*
X7663571Y-17000381D02*
X7654048Y-17019429D01*
X7654048Y-17019429D02*
X7644524Y-17028952D01*
X7644524Y-17028952D02*
X7625476Y-17038476D01*
X7625476Y-17038476D02*
X7568333Y-17038476D01*
X7568333Y-17038476D02*
X7549286Y-17028952D01*
X7549286Y-17028952D02*
X7539762Y-17019429D01*
X7854048Y-17038476D02*
X7739762Y-17038476D01*
X7796905Y-17038476D02*
X7796905Y-16838476D01*
X7796905Y-16838476D02*
X7777857Y-16867048D01*
X7777857Y-16867048D02*
X7758810Y-16886095D01*
X7758810Y-16886095D02*
X7739762Y-16895619D01*
X8035000Y-16838476D02*
X7939762Y-16838476D01*
X7939762Y-16838476D02*
X7930238Y-16933714D01*
X7930238Y-16933714D02*
X7939762Y-16924190D01*
X7939762Y-16924190D02*
X7958810Y-16914667D01*
X7958810Y-16914667D02*
X8006429Y-16914667D01*
X8006429Y-16914667D02*
X8025476Y-16924190D01*
X8025476Y-16924190D02*
X8035000Y-16933714D01*
X8035000Y-16933714D02*
X8044524Y-16952762D01*
X8044524Y-16952762D02*
X8044524Y-17000381D01*
X8044524Y-17000381D02*
X8035000Y-17019429D01*
X8035000Y-17019429D02*
X8025476Y-17028952D01*
X8025476Y-17028952D02*
X8006429Y-17038476D01*
X8006429Y-17038476D02*
X7958810Y-17038476D01*
X7958810Y-17038476D02*
X7939762Y-17028952D01*
X7939762Y-17028952D02*
X7930238Y-17019429D01*
X8120714Y-16838476D02*
X8120714Y-16876571D01*
X8196905Y-16838476D02*
X8196905Y-16876571D01*
X8459762Y-17114667D02*
X8450238Y-17105143D01*
X8450238Y-17105143D02*
X8431191Y-17076571D01*
X8431191Y-17076571D02*
X8421667Y-17057524D01*
X8421667Y-17057524D02*
X8412143Y-17028952D01*
X8412143Y-17028952D02*
X8402619Y-16981333D01*
X8402619Y-16981333D02*
X8402619Y-16943238D01*
X8402619Y-16943238D02*
X8412143Y-16895619D01*
X8412143Y-16895619D02*
X8421667Y-16867048D01*
X8421667Y-16867048D02*
X8431191Y-16848000D01*
X8431191Y-16848000D02*
X8450238Y-16819429D01*
X8450238Y-16819429D02*
X8459762Y-16809905D01*
X8564524Y-16924190D02*
X8545476Y-16914667D01*
X8545476Y-16914667D02*
X8535953Y-16905143D01*
X8535953Y-16905143D02*
X8526429Y-16886095D01*
X8526429Y-16886095D02*
X8526429Y-16876571D01*
X8526429Y-16876571D02*
X8535953Y-16857524D01*
X8535953Y-16857524D02*
X8545476Y-16848000D01*
X8545476Y-16848000D02*
X8564524Y-16838476D01*
X8564524Y-16838476D02*
X8602619Y-16838476D01*
X8602619Y-16838476D02*
X8621667Y-16848000D01*
X8621667Y-16848000D02*
X8631191Y-16857524D01*
X8631191Y-16857524D02*
X8640714Y-16876571D01*
X8640714Y-16876571D02*
X8640714Y-16886095D01*
X8640714Y-16886095D02*
X8631191Y-16905143D01*
X8631191Y-16905143D02*
X8621667Y-16914667D01*
X8621667Y-16914667D02*
X8602619Y-16924190D01*
X8602619Y-16924190D02*
X8564524Y-16924190D01*
X8564524Y-16924190D02*
X8545476Y-16933714D01*
X8545476Y-16933714D02*
X8535953Y-16943238D01*
X8535953Y-16943238D02*
X8526429Y-16962286D01*
X8526429Y-16962286D02*
X8526429Y-17000381D01*
X8526429Y-17000381D02*
X8535953Y-17019429D01*
X8535953Y-17019429D02*
X8545476Y-17028952D01*
X8545476Y-17028952D02*
X8564524Y-17038476D01*
X8564524Y-17038476D02*
X8602619Y-17038476D01*
X8602619Y-17038476D02*
X8621667Y-17028952D01*
X8621667Y-17028952D02*
X8631191Y-17019429D01*
X8631191Y-17019429D02*
X8640714Y-17000381D01*
X8640714Y-17000381D02*
X8640714Y-16962286D01*
X8640714Y-16962286D02*
X8631191Y-16943238D01*
X8631191Y-16943238D02*
X8621667Y-16933714D01*
X8621667Y-16933714D02*
X8602619Y-16924190D01*
X8846429Y-17038476D02*
X8846429Y-16838476D01*
X8932143Y-17038476D02*
X8932143Y-16933714D01*
X8932143Y-16933714D02*
X8922619Y-16914667D01*
X8922619Y-16914667D02*
X8903572Y-16905143D01*
X8903572Y-16905143D02*
X8875000Y-16905143D01*
X8875000Y-16905143D02*
X8855953Y-16914667D01*
X8855953Y-16914667D02*
X8846429Y-16924190D01*
X9055953Y-17038476D02*
X9036905Y-17028952D01*
X9036905Y-17028952D02*
X9027381Y-17019429D01*
X9027381Y-17019429D02*
X9017857Y-17000381D01*
X9017857Y-17000381D02*
X9017857Y-16943238D01*
X9017857Y-16943238D02*
X9027381Y-16924190D01*
X9027381Y-16924190D02*
X9036905Y-16914667D01*
X9036905Y-16914667D02*
X9055953Y-16905143D01*
X9055953Y-16905143D02*
X9084524Y-16905143D01*
X9084524Y-16905143D02*
X9103572Y-16914667D01*
X9103572Y-16914667D02*
X9113095Y-16924190D01*
X9113095Y-16924190D02*
X9122619Y-16943238D01*
X9122619Y-16943238D02*
X9122619Y-17000381D01*
X9122619Y-17000381D02*
X9113095Y-17019429D01*
X9113095Y-17019429D02*
X9103572Y-17028952D01*
X9103572Y-17028952D02*
X9084524Y-17038476D01*
X9084524Y-17038476D02*
X9055953Y-17038476D01*
X9236905Y-17038476D02*
X9217857Y-17028952D01*
X9217857Y-17028952D02*
X9208334Y-17009905D01*
X9208334Y-17009905D02*
X9208334Y-16838476D01*
X9389286Y-17028952D02*
X9370238Y-17038476D01*
X9370238Y-17038476D02*
X9332143Y-17038476D01*
X9332143Y-17038476D02*
X9313095Y-17028952D01*
X9313095Y-17028952D02*
X9303572Y-17009905D01*
X9303572Y-17009905D02*
X9303572Y-16933714D01*
X9303572Y-16933714D02*
X9313095Y-16914667D01*
X9313095Y-16914667D02*
X9332143Y-16905143D01*
X9332143Y-16905143D02*
X9370238Y-16905143D01*
X9370238Y-16905143D02*
X9389286Y-16914667D01*
X9389286Y-16914667D02*
X9398810Y-16933714D01*
X9398810Y-16933714D02*
X9398810Y-16952762D01*
X9398810Y-16952762D02*
X9303572Y-16971810D01*
X9475000Y-17028952D02*
X9494048Y-17038476D01*
X9494048Y-17038476D02*
X9532143Y-17038476D01*
X9532143Y-17038476D02*
X9551191Y-17028952D01*
X9551191Y-17028952D02*
X9560715Y-17009905D01*
X9560715Y-17009905D02*
X9560715Y-17000381D01*
X9560715Y-17000381D02*
X9551191Y-16981333D01*
X9551191Y-16981333D02*
X9532143Y-16971810D01*
X9532143Y-16971810D02*
X9503572Y-16971810D01*
X9503572Y-16971810D02*
X9484524Y-16962286D01*
X9484524Y-16962286D02*
X9475000Y-16943238D01*
X9475000Y-16943238D02*
X9475000Y-16933714D01*
X9475000Y-16933714D02*
X9484524Y-16914667D01*
X9484524Y-16914667D02*
X9503572Y-16905143D01*
X9503572Y-16905143D02*
X9532143Y-16905143D01*
X9532143Y-16905143D02*
X9551191Y-16914667D01*
X9627381Y-17114667D02*
X9636905Y-17105143D01*
X9636905Y-17105143D02*
X9655953Y-17076571D01*
X9655953Y-17076571D02*
X9665476Y-17057524D01*
X9665476Y-17057524D02*
X9675000Y-17028952D01*
X9675000Y-17028952D02*
X9684524Y-16981333D01*
X9684524Y-16981333D02*
X9684524Y-16943238D01*
X9684524Y-16943238D02*
X9675000Y-16895619D01*
X9675000Y-16895619D02*
X9665476Y-16867048D01*
X9665476Y-16867048D02*
X9655953Y-16848000D01*
X9655953Y-16848000D02*
X9636905Y-16819429D01*
X9636905Y-16819429D02*
X9627381Y-16809905D01*
D17*
X4857000Y-17160000D02*
X4995000Y-17298000D01*
X4995000Y-17160000D02*
X4857000Y-17298000D01*
X4926000Y-17160000D02*
X4926000Y-17298000D01*
X4857000Y-17229000D02*
X4995000Y-17229000D01*
D11*
X5347381Y-17302476D02*
X5233095Y-17302476D01*
X5290238Y-17302476D02*
X5290238Y-17102476D01*
X5290238Y-17102476D02*
X5271190Y-17131048D01*
X5271190Y-17131048D02*
X5252143Y-17150095D01*
X5252143Y-17150095D02*
X5233095Y-17159619D01*
X5433095Y-17283429D02*
X5442619Y-17292952D01*
X5442619Y-17292952D02*
X5433095Y-17302476D01*
X5433095Y-17302476D02*
X5423571Y-17292952D01*
X5423571Y-17292952D02*
X5433095Y-17283429D01*
X5433095Y-17283429D02*
X5433095Y-17302476D01*
X5509286Y-17102476D02*
X5633095Y-17102476D01*
X5633095Y-17102476D02*
X5566429Y-17178667D01*
X5566429Y-17178667D02*
X5595000Y-17178667D01*
X5595000Y-17178667D02*
X5614048Y-17188190D01*
X5614048Y-17188190D02*
X5623571Y-17197714D01*
X5623571Y-17197714D02*
X5633095Y-17216762D01*
X5633095Y-17216762D02*
X5633095Y-17264381D01*
X5633095Y-17264381D02*
X5623571Y-17283429D01*
X5623571Y-17283429D02*
X5614048Y-17292952D01*
X5614048Y-17292952D02*
X5595000Y-17302476D01*
X5595000Y-17302476D02*
X5537857Y-17302476D01*
X5537857Y-17302476D02*
X5518810Y-17292952D01*
X5518810Y-17292952D02*
X5509286Y-17283429D01*
X5747381Y-17188190D02*
X5728333Y-17178667D01*
X5728333Y-17178667D02*
X5718809Y-17169143D01*
X5718809Y-17169143D02*
X5709286Y-17150095D01*
X5709286Y-17150095D02*
X5709286Y-17140571D01*
X5709286Y-17140571D02*
X5718809Y-17121524D01*
X5718809Y-17121524D02*
X5728333Y-17112000D01*
X5728333Y-17112000D02*
X5747381Y-17102476D01*
X5747381Y-17102476D02*
X5785476Y-17102476D01*
X5785476Y-17102476D02*
X5804524Y-17112000D01*
X5804524Y-17112000D02*
X5814048Y-17121524D01*
X5814048Y-17121524D02*
X5823571Y-17140571D01*
X5823571Y-17140571D02*
X5823571Y-17150095D01*
X5823571Y-17150095D02*
X5814048Y-17169143D01*
X5814048Y-17169143D02*
X5804524Y-17178667D01*
X5804524Y-17178667D02*
X5785476Y-17188190D01*
X5785476Y-17188190D02*
X5747381Y-17188190D01*
X5747381Y-17188190D02*
X5728333Y-17197714D01*
X5728333Y-17197714D02*
X5718809Y-17207238D01*
X5718809Y-17207238D02*
X5709286Y-17226286D01*
X5709286Y-17226286D02*
X5709286Y-17264381D01*
X5709286Y-17264381D02*
X5718809Y-17283429D01*
X5718809Y-17283429D02*
X5728333Y-17292952D01*
X5728333Y-17292952D02*
X5747381Y-17302476D01*
X5747381Y-17302476D02*
X5785476Y-17302476D01*
X5785476Y-17302476D02*
X5804524Y-17292952D01*
X5804524Y-17292952D02*
X5814048Y-17283429D01*
X5814048Y-17283429D02*
X5823571Y-17264381D01*
X5823571Y-17264381D02*
X5823571Y-17226286D01*
X5823571Y-17226286D02*
X5814048Y-17207238D01*
X5814048Y-17207238D02*
X5804524Y-17197714D01*
X5804524Y-17197714D02*
X5785476Y-17188190D01*
X5947381Y-17102476D02*
X5966429Y-17102476D01*
X5966429Y-17102476D02*
X5985476Y-17112000D01*
X5985476Y-17112000D02*
X5995000Y-17121524D01*
X5995000Y-17121524D02*
X6004524Y-17140571D01*
X6004524Y-17140571D02*
X6014048Y-17178667D01*
X6014048Y-17178667D02*
X6014048Y-17226286D01*
X6014048Y-17226286D02*
X6004524Y-17264381D01*
X6004524Y-17264381D02*
X5995000Y-17283429D01*
X5995000Y-17283429D02*
X5985476Y-17292952D01*
X5985476Y-17292952D02*
X5966429Y-17302476D01*
X5966429Y-17302476D02*
X5947381Y-17302476D01*
X5947381Y-17302476D02*
X5928333Y-17292952D01*
X5928333Y-17292952D02*
X5918809Y-17283429D01*
X5918809Y-17283429D02*
X5909286Y-17264381D01*
X5909286Y-17264381D02*
X5899762Y-17226286D01*
X5899762Y-17226286D02*
X5899762Y-17178667D01*
X5899762Y-17178667D02*
X5909286Y-17140571D01*
X5909286Y-17140571D02*
X5918809Y-17121524D01*
X5918809Y-17121524D02*
X5928333Y-17112000D01*
X5928333Y-17112000D02*
X5947381Y-17102476D01*
X6099762Y-17302476D02*
X6099762Y-17169143D01*
X6099762Y-17188190D02*
X6109286Y-17178667D01*
X6109286Y-17178667D02*
X6128333Y-17169143D01*
X6128333Y-17169143D02*
X6156905Y-17169143D01*
X6156905Y-17169143D02*
X6175952Y-17178667D01*
X6175952Y-17178667D02*
X6185476Y-17197714D01*
X6185476Y-17197714D02*
X6185476Y-17302476D01*
X6185476Y-17197714D02*
X6195000Y-17178667D01*
X6195000Y-17178667D02*
X6214048Y-17169143D01*
X6214048Y-17169143D02*
X6242619Y-17169143D01*
X6242619Y-17169143D02*
X6261667Y-17178667D01*
X6261667Y-17178667D02*
X6271190Y-17197714D01*
X6271190Y-17197714D02*
X6271190Y-17302476D01*
X6366429Y-17302476D02*
X6366429Y-17169143D01*
X6366429Y-17188190D02*
X6375952Y-17178667D01*
X6375952Y-17178667D02*
X6395000Y-17169143D01*
X6395000Y-17169143D02*
X6423571Y-17169143D01*
X6423571Y-17169143D02*
X6442619Y-17178667D01*
X6442619Y-17178667D02*
X6452143Y-17197714D01*
X6452143Y-17197714D02*
X6452143Y-17302476D01*
X6452143Y-17197714D02*
X6461667Y-17178667D01*
X6461667Y-17178667D02*
X6480714Y-17169143D01*
X6480714Y-17169143D02*
X6509286Y-17169143D01*
X6509286Y-17169143D02*
X6528333Y-17178667D01*
X6528333Y-17178667D02*
X6537857Y-17197714D01*
X6537857Y-17197714D02*
X6537857Y-17302476D01*
X6895952Y-17092952D02*
X6724524Y-17350095D01*
X7120714Y-17102476D02*
X7139762Y-17102476D01*
X7139762Y-17102476D02*
X7158810Y-17112000D01*
X7158810Y-17112000D02*
X7168333Y-17121524D01*
X7168333Y-17121524D02*
X7177857Y-17140571D01*
X7177857Y-17140571D02*
X7187381Y-17178667D01*
X7187381Y-17178667D02*
X7187381Y-17226286D01*
X7187381Y-17226286D02*
X7177857Y-17264381D01*
X7177857Y-17264381D02*
X7168333Y-17283429D01*
X7168333Y-17283429D02*
X7158810Y-17292952D01*
X7158810Y-17292952D02*
X7139762Y-17302476D01*
X7139762Y-17302476D02*
X7120714Y-17302476D01*
X7120714Y-17302476D02*
X7101667Y-17292952D01*
X7101667Y-17292952D02*
X7092143Y-17283429D01*
X7092143Y-17283429D02*
X7082619Y-17264381D01*
X7082619Y-17264381D02*
X7073095Y-17226286D01*
X7073095Y-17226286D02*
X7073095Y-17178667D01*
X7073095Y-17178667D02*
X7082619Y-17140571D01*
X7082619Y-17140571D02*
X7092143Y-17121524D01*
X7092143Y-17121524D02*
X7101667Y-17112000D01*
X7101667Y-17112000D02*
X7120714Y-17102476D01*
X7273095Y-17283429D02*
X7282619Y-17292952D01*
X7282619Y-17292952D02*
X7273095Y-17302476D01*
X7273095Y-17302476D02*
X7263571Y-17292952D01*
X7263571Y-17292952D02*
X7273095Y-17283429D01*
X7273095Y-17283429D02*
X7273095Y-17302476D01*
X7406429Y-17102476D02*
X7425476Y-17102476D01*
X7425476Y-17102476D02*
X7444524Y-17112000D01*
X7444524Y-17112000D02*
X7454048Y-17121524D01*
X7454048Y-17121524D02*
X7463571Y-17140571D01*
X7463571Y-17140571D02*
X7473095Y-17178667D01*
X7473095Y-17178667D02*
X7473095Y-17226286D01*
X7473095Y-17226286D02*
X7463571Y-17264381D01*
X7463571Y-17264381D02*
X7454048Y-17283429D01*
X7454048Y-17283429D02*
X7444524Y-17292952D01*
X7444524Y-17292952D02*
X7425476Y-17302476D01*
X7425476Y-17302476D02*
X7406429Y-17302476D01*
X7406429Y-17302476D02*
X7387381Y-17292952D01*
X7387381Y-17292952D02*
X7377857Y-17283429D01*
X7377857Y-17283429D02*
X7368333Y-17264381D01*
X7368333Y-17264381D02*
X7358810Y-17226286D01*
X7358810Y-17226286D02*
X7358810Y-17178667D01*
X7358810Y-17178667D02*
X7368333Y-17140571D01*
X7368333Y-17140571D02*
X7377857Y-17121524D01*
X7377857Y-17121524D02*
X7387381Y-17112000D01*
X7387381Y-17112000D02*
X7406429Y-17102476D01*
X7654048Y-17102476D02*
X7558810Y-17102476D01*
X7558810Y-17102476D02*
X7549286Y-17197714D01*
X7549286Y-17197714D02*
X7558810Y-17188190D01*
X7558810Y-17188190D02*
X7577857Y-17178667D01*
X7577857Y-17178667D02*
X7625476Y-17178667D01*
X7625476Y-17178667D02*
X7644524Y-17188190D01*
X7644524Y-17188190D02*
X7654048Y-17197714D01*
X7654048Y-17197714D02*
X7663571Y-17216762D01*
X7663571Y-17216762D02*
X7663571Y-17264381D01*
X7663571Y-17264381D02*
X7654048Y-17283429D01*
X7654048Y-17283429D02*
X7644524Y-17292952D01*
X7644524Y-17292952D02*
X7625476Y-17302476D01*
X7625476Y-17302476D02*
X7577857Y-17302476D01*
X7577857Y-17302476D02*
X7558810Y-17292952D01*
X7558810Y-17292952D02*
X7549286Y-17283429D01*
X7835000Y-17169143D02*
X7835000Y-17302476D01*
X7787381Y-17092952D02*
X7739762Y-17235810D01*
X7739762Y-17235810D02*
X7863571Y-17235810D01*
X7920714Y-17102476D02*
X8044524Y-17102476D01*
X8044524Y-17102476D02*
X7977857Y-17178667D01*
X7977857Y-17178667D02*
X8006429Y-17178667D01*
X8006429Y-17178667D02*
X8025476Y-17188190D01*
X8025476Y-17188190D02*
X8035000Y-17197714D01*
X8035000Y-17197714D02*
X8044524Y-17216762D01*
X8044524Y-17216762D02*
X8044524Y-17264381D01*
X8044524Y-17264381D02*
X8035000Y-17283429D01*
X8035000Y-17283429D02*
X8025476Y-17292952D01*
X8025476Y-17292952D02*
X8006429Y-17302476D01*
X8006429Y-17302476D02*
X7949286Y-17302476D01*
X7949286Y-17302476D02*
X7930238Y-17292952D01*
X7930238Y-17292952D02*
X7920714Y-17283429D01*
X8120714Y-17102476D02*
X8120714Y-17140571D01*
X8196905Y-17102476D02*
X8196905Y-17140571D01*
X8459762Y-17378667D02*
X8450238Y-17369143D01*
X8450238Y-17369143D02*
X8431191Y-17340571D01*
X8431191Y-17340571D02*
X8421667Y-17321524D01*
X8421667Y-17321524D02*
X8412143Y-17292952D01*
X8412143Y-17292952D02*
X8402619Y-17245333D01*
X8402619Y-17245333D02*
X8402619Y-17207238D01*
X8402619Y-17207238D02*
X8412143Y-17159619D01*
X8412143Y-17159619D02*
X8421667Y-17131048D01*
X8421667Y-17131048D02*
X8431191Y-17112000D01*
X8431191Y-17112000D02*
X8450238Y-17083429D01*
X8450238Y-17083429D02*
X8459762Y-17073905D01*
X8574048Y-17102476D02*
X8593095Y-17102476D01*
X8593095Y-17102476D02*
X8612143Y-17112000D01*
X8612143Y-17112000D02*
X8621667Y-17121524D01*
X8621667Y-17121524D02*
X8631191Y-17140571D01*
X8631191Y-17140571D02*
X8640714Y-17178667D01*
X8640714Y-17178667D02*
X8640714Y-17226286D01*
X8640714Y-17226286D02*
X8631191Y-17264381D01*
X8631191Y-17264381D02*
X8621667Y-17283429D01*
X8621667Y-17283429D02*
X8612143Y-17292952D01*
X8612143Y-17292952D02*
X8593095Y-17302476D01*
X8593095Y-17302476D02*
X8574048Y-17302476D01*
X8574048Y-17302476D02*
X8555000Y-17292952D01*
X8555000Y-17292952D02*
X8545476Y-17283429D01*
X8545476Y-17283429D02*
X8535953Y-17264381D01*
X8535953Y-17264381D02*
X8526429Y-17226286D01*
X8526429Y-17226286D02*
X8526429Y-17178667D01*
X8526429Y-17178667D02*
X8535953Y-17140571D01*
X8535953Y-17140571D02*
X8545476Y-17121524D01*
X8545476Y-17121524D02*
X8555000Y-17112000D01*
X8555000Y-17112000D02*
X8574048Y-17102476D01*
X8846429Y-17302476D02*
X8846429Y-17102476D01*
X8932143Y-17302476D02*
X8932143Y-17197714D01*
X8932143Y-17197714D02*
X8922619Y-17178667D01*
X8922619Y-17178667D02*
X8903572Y-17169143D01*
X8903572Y-17169143D02*
X8875000Y-17169143D01*
X8875000Y-17169143D02*
X8855953Y-17178667D01*
X8855953Y-17178667D02*
X8846429Y-17188190D01*
X9055953Y-17302476D02*
X9036905Y-17292952D01*
X9036905Y-17292952D02*
X9027381Y-17283429D01*
X9027381Y-17283429D02*
X9017857Y-17264381D01*
X9017857Y-17264381D02*
X9017857Y-17207238D01*
X9017857Y-17207238D02*
X9027381Y-17188190D01*
X9027381Y-17188190D02*
X9036905Y-17178667D01*
X9036905Y-17178667D02*
X9055953Y-17169143D01*
X9055953Y-17169143D02*
X9084524Y-17169143D01*
X9084524Y-17169143D02*
X9103572Y-17178667D01*
X9103572Y-17178667D02*
X9113095Y-17188190D01*
X9113095Y-17188190D02*
X9122619Y-17207238D01*
X9122619Y-17207238D02*
X9122619Y-17264381D01*
X9122619Y-17264381D02*
X9113095Y-17283429D01*
X9113095Y-17283429D02*
X9103572Y-17292952D01*
X9103572Y-17292952D02*
X9084524Y-17302476D01*
X9084524Y-17302476D02*
X9055953Y-17302476D01*
X9236905Y-17302476D02*
X9217857Y-17292952D01*
X9217857Y-17292952D02*
X9208334Y-17273905D01*
X9208334Y-17273905D02*
X9208334Y-17102476D01*
X9389286Y-17292952D02*
X9370238Y-17302476D01*
X9370238Y-17302476D02*
X9332143Y-17302476D01*
X9332143Y-17302476D02*
X9313095Y-17292952D01*
X9313095Y-17292952D02*
X9303572Y-17273905D01*
X9303572Y-17273905D02*
X9303572Y-17197714D01*
X9303572Y-17197714D02*
X9313095Y-17178667D01*
X9313095Y-17178667D02*
X9332143Y-17169143D01*
X9332143Y-17169143D02*
X9370238Y-17169143D01*
X9370238Y-17169143D02*
X9389286Y-17178667D01*
X9389286Y-17178667D02*
X9398810Y-17197714D01*
X9398810Y-17197714D02*
X9398810Y-17216762D01*
X9398810Y-17216762D02*
X9303572Y-17235810D01*
X9475000Y-17292952D02*
X9494048Y-17302476D01*
X9494048Y-17302476D02*
X9532143Y-17302476D01*
X9532143Y-17302476D02*
X9551191Y-17292952D01*
X9551191Y-17292952D02*
X9560715Y-17273905D01*
X9560715Y-17273905D02*
X9560715Y-17264381D01*
X9560715Y-17264381D02*
X9551191Y-17245333D01*
X9551191Y-17245333D02*
X9532143Y-17235810D01*
X9532143Y-17235810D02*
X9503572Y-17235810D01*
X9503572Y-17235810D02*
X9484524Y-17226286D01*
X9484524Y-17226286D02*
X9475000Y-17207238D01*
X9475000Y-17207238D02*
X9475000Y-17197714D01*
X9475000Y-17197714D02*
X9484524Y-17178667D01*
X9484524Y-17178667D02*
X9503572Y-17169143D01*
X9503572Y-17169143D02*
X9532143Y-17169143D01*
X9532143Y-17169143D02*
X9551191Y-17178667D01*
X9766429Y-17226286D02*
X9918810Y-17226286D01*
X9842619Y-17302476D02*
X9842619Y-17150095D01*
X10124524Y-17121524D02*
X10134048Y-17112000D01*
X10134048Y-17112000D02*
X10153095Y-17102476D01*
X10153095Y-17102476D02*
X10200715Y-17102476D01*
X10200715Y-17102476D02*
X10219762Y-17112000D01*
X10219762Y-17112000D02*
X10229286Y-17121524D01*
X10229286Y-17121524D02*
X10238810Y-17140571D01*
X10238810Y-17140571D02*
X10238810Y-17159619D01*
X10238810Y-17159619D02*
X10229286Y-17188190D01*
X10229286Y-17188190D02*
X10115000Y-17302476D01*
X10115000Y-17302476D02*
X10238810Y-17302476D01*
X10435000Y-17292952D02*
X10454048Y-17302476D01*
X10454048Y-17302476D02*
X10492143Y-17302476D01*
X10492143Y-17302476D02*
X10511191Y-17292952D01*
X10511191Y-17292952D02*
X10520715Y-17273905D01*
X10520715Y-17273905D02*
X10520715Y-17264381D01*
X10520715Y-17264381D02*
X10511191Y-17245333D01*
X10511191Y-17245333D02*
X10492143Y-17235810D01*
X10492143Y-17235810D02*
X10463572Y-17235810D01*
X10463572Y-17235810D02*
X10444524Y-17226286D01*
X10444524Y-17226286D02*
X10435000Y-17207238D01*
X10435000Y-17207238D02*
X10435000Y-17197714D01*
X10435000Y-17197714D02*
X10444524Y-17178667D01*
X10444524Y-17178667D02*
X10463572Y-17169143D01*
X10463572Y-17169143D02*
X10492143Y-17169143D01*
X10492143Y-17169143D02*
X10511191Y-17178667D01*
X10635000Y-17302476D02*
X10615953Y-17292952D01*
X10615953Y-17292952D02*
X10606429Y-17273905D01*
X10606429Y-17273905D02*
X10606429Y-17102476D01*
X10739762Y-17302476D02*
X10720715Y-17292952D01*
X10720715Y-17292952D02*
X10711191Y-17283429D01*
X10711191Y-17283429D02*
X10701667Y-17264381D01*
X10701667Y-17264381D02*
X10701667Y-17207238D01*
X10701667Y-17207238D02*
X10711191Y-17188190D01*
X10711191Y-17188190D02*
X10720715Y-17178667D01*
X10720715Y-17178667D02*
X10739762Y-17169143D01*
X10739762Y-17169143D02*
X10768334Y-17169143D01*
X10768334Y-17169143D02*
X10787381Y-17178667D01*
X10787381Y-17178667D02*
X10796905Y-17188190D01*
X10796905Y-17188190D02*
X10806429Y-17207238D01*
X10806429Y-17207238D02*
X10806429Y-17264381D01*
X10806429Y-17264381D02*
X10796905Y-17283429D01*
X10796905Y-17283429D02*
X10787381Y-17292952D01*
X10787381Y-17292952D02*
X10768334Y-17302476D01*
X10768334Y-17302476D02*
X10739762Y-17302476D01*
X10863572Y-17169143D02*
X10939762Y-17169143D01*
X10892143Y-17102476D02*
X10892143Y-17273905D01*
X10892143Y-17273905D02*
X10901667Y-17292952D01*
X10901667Y-17292952D02*
X10920715Y-17302476D01*
X10920715Y-17302476D02*
X10939762Y-17302476D01*
X10996905Y-17292952D02*
X11015953Y-17302476D01*
X11015953Y-17302476D02*
X11054048Y-17302476D01*
X11054048Y-17302476D02*
X11073096Y-17292952D01*
X11073096Y-17292952D02*
X11082619Y-17273905D01*
X11082619Y-17273905D02*
X11082619Y-17264381D01*
X11082619Y-17264381D02*
X11073096Y-17245333D01*
X11073096Y-17245333D02*
X11054048Y-17235810D01*
X11054048Y-17235810D02*
X11025476Y-17235810D01*
X11025476Y-17235810D02*
X11006429Y-17226286D01*
X11006429Y-17226286D02*
X10996905Y-17207238D01*
X10996905Y-17207238D02*
X10996905Y-17197714D01*
X10996905Y-17197714D02*
X11006429Y-17178667D01*
X11006429Y-17178667D02*
X11025476Y-17169143D01*
X11025476Y-17169143D02*
X11054048Y-17169143D01*
X11054048Y-17169143D02*
X11073096Y-17178667D01*
X11149286Y-17378667D02*
X11158810Y-17369143D01*
X11158810Y-17369143D02*
X11177857Y-17340571D01*
X11177857Y-17340571D02*
X11187381Y-17321524D01*
X11187381Y-17321524D02*
X11196905Y-17292952D01*
X11196905Y-17292952D02*
X11206429Y-17245333D01*
X11206429Y-17245333D02*
X11206429Y-17207238D01*
X11206429Y-17207238D02*
X11196905Y-17159619D01*
X11196905Y-17159619D02*
X11187381Y-17131048D01*
X11187381Y-17131048D02*
X11177857Y-17112000D01*
X11177857Y-17112000D02*
X11158810Y-17083429D01*
X11158810Y-17083429D02*
X11149286Y-17073905D01*
X4795000Y-17393000D02*
X4995000Y-17593000D01*
X4995000Y-17393000D02*
X4795000Y-17593000D01*
X4965711Y-17563711D02*
X4965711Y-17422289D01*
X4824289Y-17422289D01*
X4824289Y-17563711D01*
X4965711Y-17563711D01*
X5223571Y-17366476D02*
X5347381Y-17366476D01*
X5347381Y-17366476D02*
X5280714Y-17442667D01*
X5280714Y-17442667D02*
X5309286Y-17442667D01*
X5309286Y-17442667D02*
X5328333Y-17452190D01*
X5328333Y-17452190D02*
X5337857Y-17461714D01*
X5337857Y-17461714D02*
X5347381Y-17480762D01*
X5347381Y-17480762D02*
X5347381Y-17528381D01*
X5347381Y-17528381D02*
X5337857Y-17547429D01*
X5337857Y-17547429D02*
X5328333Y-17556952D01*
X5328333Y-17556952D02*
X5309286Y-17566476D01*
X5309286Y-17566476D02*
X5252143Y-17566476D01*
X5252143Y-17566476D02*
X5233095Y-17556952D01*
X5233095Y-17556952D02*
X5223571Y-17547429D01*
X5433095Y-17547429D02*
X5442619Y-17556952D01*
X5442619Y-17556952D02*
X5433095Y-17566476D01*
X5433095Y-17566476D02*
X5423571Y-17556952D01*
X5423571Y-17556952D02*
X5433095Y-17547429D01*
X5433095Y-17547429D02*
X5433095Y-17566476D01*
X5566429Y-17366476D02*
X5585476Y-17366476D01*
X5585476Y-17366476D02*
X5604524Y-17376000D01*
X5604524Y-17376000D02*
X5614048Y-17385524D01*
X5614048Y-17385524D02*
X5623571Y-17404571D01*
X5623571Y-17404571D02*
X5633095Y-17442667D01*
X5633095Y-17442667D02*
X5633095Y-17490286D01*
X5633095Y-17490286D02*
X5623571Y-17528381D01*
X5623571Y-17528381D02*
X5614048Y-17547429D01*
X5614048Y-17547429D02*
X5604524Y-17556952D01*
X5604524Y-17556952D02*
X5585476Y-17566476D01*
X5585476Y-17566476D02*
X5566429Y-17566476D01*
X5566429Y-17566476D02*
X5547381Y-17556952D01*
X5547381Y-17556952D02*
X5537857Y-17547429D01*
X5537857Y-17547429D02*
X5528333Y-17528381D01*
X5528333Y-17528381D02*
X5518810Y-17490286D01*
X5518810Y-17490286D02*
X5518810Y-17442667D01*
X5518810Y-17442667D02*
X5528333Y-17404571D01*
X5528333Y-17404571D02*
X5537857Y-17385524D01*
X5537857Y-17385524D02*
X5547381Y-17376000D01*
X5547381Y-17376000D02*
X5566429Y-17366476D01*
X5756905Y-17366476D02*
X5775952Y-17366476D01*
X5775952Y-17366476D02*
X5795000Y-17376000D01*
X5795000Y-17376000D02*
X5804524Y-17385524D01*
X5804524Y-17385524D02*
X5814048Y-17404571D01*
X5814048Y-17404571D02*
X5823571Y-17442667D01*
X5823571Y-17442667D02*
X5823571Y-17490286D01*
X5823571Y-17490286D02*
X5814048Y-17528381D01*
X5814048Y-17528381D02*
X5804524Y-17547429D01*
X5804524Y-17547429D02*
X5795000Y-17556952D01*
X5795000Y-17556952D02*
X5775952Y-17566476D01*
X5775952Y-17566476D02*
X5756905Y-17566476D01*
X5756905Y-17566476D02*
X5737857Y-17556952D01*
X5737857Y-17556952D02*
X5728333Y-17547429D01*
X5728333Y-17547429D02*
X5718809Y-17528381D01*
X5718809Y-17528381D02*
X5709286Y-17490286D01*
X5709286Y-17490286D02*
X5709286Y-17442667D01*
X5709286Y-17442667D02*
X5718809Y-17404571D01*
X5718809Y-17404571D02*
X5728333Y-17385524D01*
X5728333Y-17385524D02*
X5737857Y-17376000D01*
X5737857Y-17376000D02*
X5756905Y-17366476D01*
X5947381Y-17366476D02*
X5966429Y-17366476D01*
X5966429Y-17366476D02*
X5985476Y-17376000D01*
X5985476Y-17376000D02*
X5995000Y-17385524D01*
X5995000Y-17385524D02*
X6004524Y-17404571D01*
X6004524Y-17404571D02*
X6014048Y-17442667D01*
X6014048Y-17442667D02*
X6014048Y-17490286D01*
X6014048Y-17490286D02*
X6004524Y-17528381D01*
X6004524Y-17528381D02*
X5995000Y-17547429D01*
X5995000Y-17547429D02*
X5985476Y-17556952D01*
X5985476Y-17556952D02*
X5966429Y-17566476D01*
X5966429Y-17566476D02*
X5947381Y-17566476D01*
X5947381Y-17566476D02*
X5928333Y-17556952D01*
X5928333Y-17556952D02*
X5918809Y-17547429D01*
X5918809Y-17547429D02*
X5909286Y-17528381D01*
X5909286Y-17528381D02*
X5899762Y-17490286D01*
X5899762Y-17490286D02*
X5899762Y-17442667D01*
X5899762Y-17442667D02*
X5909286Y-17404571D01*
X5909286Y-17404571D02*
X5918809Y-17385524D01*
X5918809Y-17385524D02*
X5928333Y-17376000D01*
X5928333Y-17376000D02*
X5947381Y-17366476D01*
X6099762Y-17566476D02*
X6099762Y-17433143D01*
X6099762Y-17452190D02*
X6109286Y-17442667D01*
X6109286Y-17442667D02*
X6128333Y-17433143D01*
X6128333Y-17433143D02*
X6156905Y-17433143D01*
X6156905Y-17433143D02*
X6175952Y-17442667D01*
X6175952Y-17442667D02*
X6185476Y-17461714D01*
X6185476Y-17461714D02*
X6185476Y-17566476D01*
X6185476Y-17461714D02*
X6195000Y-17442667D01*
X6195000Y-17442667D02*
X6214048Y-17433143D01*
X6214048Y-17433143D02*
X6242619Y-17433143D01*
X6242619Y-17433143D02*
X6261667Y-17442667D01*
X6261667Y-17442667D02*
X6271190Y-17461714D01*
X6271190Y-17461714D02*
X6271190Y-17566476D01*
X6366429Y-17566476D02*
X6366429Y-17433143D01*
X6366429Y-17452190D02*
X6375952Y-17442667D01*
X6375952Y-17442667D02*
X6395000Y-17433143D01*
X6395000Y-17433143D02*
X6423571Y-17433143D01*
X6423571Y-17433143D02*
X6442619Y-17442667D01*
X6442619Y-17442667D02*
X6452143Y-17461714D01*
X6452143Y-17461714D02*
X6452143Y-17566476D01*
X6452143Y-17461714D02*
X6461667Y-17442667D01*
X6461667Y-17442667D02*
X6480714Y-17433143D01*
X6480714Y-17433143D02*
X6509286Y-17433143D01*
X6509286Y-17433143D02*
X6528333Y-17442667D01*
X6528333Y-17442667D02*
X6537857Y-17461714D01*
X6537857Y-17461714D02*
X6537857Y-17566476D01*
X6895952Y-17356952D02*
X6724524Y-17614095D01*
X7120714Y-17366476D02*
X7139762Y-17366476D01*
X7139762Y-17366476D02*
X7158810Y-17376000D01*
X7158810Y-17376000D02*
X7168333Y-17385524D01*
X7168333Y-17385524D02*
X7177857Y-17404571D01*
X7177857Y-17404571D02*
X7187381Y-17442667D01*
X7187381Y-17442667D02*
X7187381Y-17490286D01*
X7187381Y-17490286D02*
X7177857Y-17528381D01*
X7177857Y-17528381D02*
X7168333Y-17547429D01*
X7168333Y-17547429D02*
X7158810Y-17556952D01*
X7158810Y-17556952D02*
X7139762Y-17566476D01*
X7139762Y-17566476D02*
X7120714Y-17566476D01*
X7120714Y-17566476D02*
X7101667Y-17556952D01*
X7101667Y-17556952D02*
X7092143Y-17547429D01*
X7092143Y-17547429D02*
X7082619Y-17528381D01*
X7082619Y-17528381D02*
X7073095Y-17490286D01*
X7073095Y-17490286D02*
X7073095Y-17442667D01*
X7073095Y-17442667D02*
X7082619Y-17404571D01*
X7082619Y-17404571D02*
X7092143Y-17385524D01*
X7092143Y-17385524D02*
X7101667Y-17376000D01*
X7101667Y-17376000D02*
X7120714Y-17366476D01*
X7273095Y-17547429D02*
X7282619Y-17556952D01*
X7282619Y-17556952D02*
X7273095Y-17566476D01*
X7273095Y-17566476D02*
X7263571Y-17556952D01*
X7263571Y-17556952D02*
X7273095Y-17547429D01*
X7273095Y-17547429D02*
X7273095Y-17566476D01*
X7473095Y-17566476D02*
X7358810Y-17566476D01*
X7415952Y-17566476D02*
X7415952Y-17366476D01*
X7415952Y-17366476D02*
X7396905Y-17395048D01*
X7396905Y-17395048D02*
X7377857Y-17414095D01*
X7377857Y-17414095D02*
X7358810Y-17423619D01*
X7663571Y-17566476D02*
X7549286Y-17566476D01*
X7606429Y-17566476D02*
X7606429Y-17366476D01*
X7606429Y-17366476D02*
X7587381Y-17395048D01*
X7587381Y-17395048D02*
X7568333Y-17414095D01*
X7568333Y-17414095D02*
X7549286Y-17423619D01*
X7777857Y-17452190D02*
X7758810Y-17442667D01*
X7758810Y-17442667D02*
X7749286Y-17433143D01*
X7749286Y-17433143D02*
X7739762Y-17414095D01*
X7739762Y-17414095D02*
X7739762Y-17404571D01*
X7739762Y-17404571D02*
X7749286Y-17385524D01*
X7749286Y-17385524D02*
X7758810Y-17376000D01*
X7758810Y-17376000D02*
X7777857Y-17366476D01*
X7777857Y-17366476D02*
X7815952Y-17366476D01*
X7815952Y-17366476D02*
X7835000Y-17376000D01*
X7835000Y-17376000D02*
X7844524Y-17385524D01*
X7844524Y-17385524D02*
X7854048Y-17404571D01*
X7854048Y-17404571D02*
X7854048Y-17414095D01*
X7854048Y-17414095D02*
X7844524Y-17433143D01*
X7844524Y-17433143D02*
X7835000Y-17442667D01*
X7835000Y-17442667D02*
X7815952Y-17452190D01*
X7815952Y-17452190D02*
X7777857Y-17452190D01*
X7777857Y-17452190D02*
X7758810Y-17461714D01*
X7758810Y-17461714D02*
X7749286Y-17471238D01*
X7749286Y-17471238D02*
X7739762Y-17490286D01*
X7739762Y-17490286D02*
X7739762Y-17528381D01*
X7739762Y-17528381D02*
X7749286Y-17547429D01*
X7749286Y-17547429D02*
X7758810Y-17556952D01*
X7758810Y-17556952D02*
X7777857Y-17566476D01*
X7777857Y-17566476D02*
X7815952Y-17566476D01*
X7815952Y-17566476D02*
X7835000Y-17556952D01*
X7835000Y-17556952D02*
X7844524Y-17547429D01*
X7844524Y-17547429D02*
X7854048Y-17528381D01*
X7854048Y-17528381D02*
X7854048Y-17490286D01*
X7854048Y-17490286D02*
X7844524Y-17471238D01*
X7844524Y-17471238D02*
X7835000Y-17461714D01*
X7835000Y-17461714D02*
X7815952Y-17452190D01*
X8044524Y-17566476D02*
X7930238Y-17566476D01*
X7987381Y-17566476D02*
X7987381Y-17366476D01*
X7987381Y-17366476D02*
X7968333Y-17395048D01*
X7968333Y-17395048D02*
X7949286Y-17414095D01*
X7949286Y-17414095D02*
X7930238Y-17423619D01*
X8120714Y-17366476D02*
X8120714Y-17404571D01*
X8196905Y-17366476D02*
X8196905Y-17404571D01*
X8459762Y-17642667D02*
X8450238Y-17633143D01*
X8450238Y-17633143D02*
X8431191Y-17604571D01*
X8431191Y-17604571D02*
X8421667Y-17585524D01*
X8421667Y-17585524D02*
X8412143Y-17556952D01*
X8412143Y-17556952D02*
X8402619Y-17509333D01*
X8402619Y-17509333D02*
X8402619Y-17471238D01*
X8402619Y-17471238D02*
X8412143Y-17423619D01*
X8412143Y-17423619D02*
X8421667Y-17395048D01*
X8421667Y-17395048D02*
X8431191Y-17376000D01*
X8431191Y-17376000D02*
X8450238Y-17347429D01*
X8450238Y-17347429D02*
X8459762Y-17337905D01*
X8621667Y-17433143D02*
X8621667Y-17566476D01*
X8574048Y-17356952D02*
X8526429Y-17499810D01*
X8526429Y-17499810D02*
X8650238Y-17499810D01*
X8846429Y-17566476D02*
X8846429Y-17366476D01*
X8932143Y-17566476D02*
X8932143Y-17461714D01*
X8932143Y-17461714D02*
X8922619Y-17442667D01*
X8922619Y-17442667D02*
X8903572Y-17433143D01*
X8903572Y-17433143D02*
X8875000Y-17433143D01*
X8875000Y-17433143D02*
X8855953Y-17442667D01*
X8855953Y-17442667D02*
X8846429Y-17452190D01*
X9055953Y-17566476D02*
X9036905Y-17556952D01*
X9036905Y-17556952D02*
X9027381Y-17547429D01*
X9027381Y-17547429D02*
X9017857Y-17528381D01*
X9017857Y-17528381D02*
X9017857Y-17471238D01*
X9017857Y-17471238D02*
X9027381Y-17452190D01*
X9027381Y-17452190D02*
X9036905Y-17442667D01*
X9036905Y-17442667D02*
X9055953Y-17433143D01*
X9055953Y-17433143D02*
X9084524Y-17433143D01*
X9084524Y-17433143D02*
X9103572Y-17442667D01*
X9103572Y-17442667D02*
X9113095Y-17452190D01*
X9113095Y-17452190D02*
X9122619Y-17471238D01*
X9122619Y-17471238D02*
X9122619Y-17528381D01*
X9122619Y-17528381D02*
X9113095Y-17547429D01*
X9113095Y-17547429D02*
X9103572Y-17556952D01*
X9103572Y-17556952D02*
X9084524Y-17566476D01*
X9084524Y-17566476D02*
X9055953Y-17566476D01*
X9236905Y-17566476D02*
X9217857Y-17556952D01*
X9217857Y-17556952D02*
X9208334Y-17537905D01*
X9208334Y-17537905D02*
X9208334Y-17366476D01*
X9389286Y-17556952D02*
X9370238Y-17566476D01*
X9370238Y-17566476D02*
X9332143Y-17566476D01*
X9332143Y-17566476D02*
X9313095Y-17556952D01*
X9313095Y-17556952D02*
X9303572Y-17537905D01*
X9303572Y-17537905D02*
X9303572Y-17461714D01*
X9303572Y-17461714D02*
X9313095Y-17442667D01*
X9313095Y-17442667D02*
X9332143Y-17433143D01*
X9332143Y-17433143D02*
X9370238Y-17433143D01*
X9370238Y-17433143D02*
X9389286Y-17442667D01*
X9389286Y-17442667D02*
X9398810Y-17461714D01*
X9398810Y-17461714D02*
X9398810Y-17480762D01*
X9398810Y-17480762D02*
X9303572Y-17499810D01*
X9475000Y-17556952D02*
X9494048Y-17566476D01*
X9494048Y-17566476D02*
X9532143Y-17566476D01*
X9532143Y-17566476D02*
X9551191Y-17556952D01*
X9551191Y-17556952D02*
X9560715Y-17537905D01*
X9560715Y-17537905D02*
X9560715Y-17528381D01*
X9560715Y-17528381D02*
X9551191Y-17509333D01*
X9551191Y-17509333D02*
X9532143Y-17499810D01*
X9532143Y-17499810D02*
X9503572Y-17499810D01*
X9503572Y-17499810D02*
X9484524Y-17490286D01*
X9484524Y-17490286D02*
X9475000Y-17471238D01*
X9475000Y-17471238D02*
X9475000Y-17461714D01*
X9475000Y-17461714D02*
X9484524Y-17442667D01*
X9484524Y-17442667D02*
X9503572Y-17433143D01*
X9503572Y-17433143D02*
X9532143Y-17433143D01*
X9532143Y-17433143D02*
X9551191Y-17442667D01*
X9627381Y-17642667D02*
X9636905Y-17633143D01*
X9636905Y-17633143D02*
X9655953Y-17604571D01*
X9655953Y-17604571D02*
X9665476Y-17585524D01*
X9665476Y-17585524D02*
X9675000Y-17556952D01*
X9675000Y-17556952D02*
X9684524Y-17509333D01*
X9684524Y-17509333D02*
X9684524Y-17471238D01*
X9684524Y-17471238D02*
X9675000Y-17423619D01*
X9675000Y-17423619D02*
X9665476Y-17395048D01*
X9665476Y-17395048D02*
X9655953Y-17376000D01*
X9655953Y-17376000D02*
X9636905Y-17347429D01*
X9636905Y-17347429D02*
X9627381Y-17337905D01*
M02*
