  0
SECTION
  2
HEADER
  9
$ANGBASE
  50
0.0
  9
$ANGDIR
  70
1
  9
$MEASUREMENT
  70
1
  0
ENDSEC
  0
SECTION
  2
TABLES
  0
TABLE
  2
LTYPE
  70
4
  0
LTYPE
  5
40F
  2
CONTINUOUS
  70
0
  3
Solid line
  72
65
  73
0
  40
0.0
  0
LTYPE
  5
410
  2
DASHDOT
 70
0
  3
Dash Dot ____ _ ____ _
 72
65
 73
4
 40
2.0
 49
1.25
 49
-0.25
 49
0.25
 49
-0.25
  0
LTYPE
  5
411
  2
DASHED
 70
0
  3
Dashed __ __ __ __ __
 72
65
 73
2
 40
0.75
 49
0.5
 49
-0.25
  0
LTYPE
  5
43B
  2
DOTTED
 70
0
  3
Dotted .  .  .  .
 72
65
 73
2
 40
0.2
 49
0.0
 49
-0.2
  0
ENDTAB
  0
TABLE
  2
STYLE
  70
4
  0
STYLE
  2
KICAD
  70
0
  40
0
  41
1
  42
1
  50
0
  71
0
  3
isocp.shx
  0
STYLE
  2
KICADB
  70
0
  40
0
  41
1
  42
1
  50
0
  71
0
  3
isocp.shx
  0
STYLE
  2
KICADI
  70
0
  40
0
  41
1
  42
1
  50
15
  71
0
  3
isocp.shx
  0
STYLE
  2
KICADBI
  70
0
  40
0
  41
1
  42
1
  50
15
  71
0
  3
isocp.shx
  0
ENDTAB
  0
TABLE
  2
LAYER
  70
1
  0
LAYER
  2
BLACK
  70
0
  62
7
  6
CONTINUOUS
  0
ENDTAB
  0
ENDSEC
  0
SECTION
  2
ENTITIES
0
LINE
8
BLACK
6
CONTINUOUS
10
150
20
-145
11
150
21
-55
0
ARC
8
BLACK
10
55
20
-55
40
5
50
90
51
180
0
LINE
8
BLACK
6
CONTINUOUS
10
55
20
-150
11
145
21
-150
0
LINE
8
BLACK
6
CONTINUOUS
10
120
20
-80
11
120
21
-50
0
ARC
8
BLACK
10
145
20
-55
40
5
50
-0
51
90
0
LINE
8
BLACK
6
CONTINUOUS
10
80
20
-50
11
80
21
-80
0
LINE
8
BLACK
6
CONTINUOUS
10
50
20
-55
11
50
21
-145
0
ARC
8
BLACK
10
55
20
-145
40
5
50
-180
51
-90
0
ARC
8
BLACK
10
145
20
-145
40
5
50
-90
51
-0
0
LINE
8
BLACK
6
CONTINUOUS
10
55
20
-50
11
80
21
-50
0
LINE
8
BLACK
6
CONTINUOUS
10
80
20
-80
11
120
21
-80
0
LINE
8
BLACK
6
CONTINUOUS
10
120
20
-50
11
145
21
-50
0
LINE
8
BLACK
6
CONTINUOUS
10
71.577
20
-122.606
11
74.777
21
-125.806
0
LINE
8
BLACK
6
CONTINUOUS
10
74.777
20
-122.606
11
71.577
21
-125.806
0
LINE
8
BLACK
6
CONTINUOUS
10
127.187
20
-122.606
11
130.387
21
-125.806
0
LINE
8
BLACK
6
CONTINUOUS
10
130.387
20
-122.606
11
127.187
21
-125.806
0
LINE
8
BLACK
6
CONTINUOUS
10
52.4262
20
-152.985
11
52.4262
21
-150.985
0
LINE
8
BLACK
6
CONTINUOUS
10
52.4262
20
-150.985
11
52.9024
21
-150.985
0
LINE
8
BLACK
6
CONTINUOUS
10
52.9024
20
-150.985
11
53.1881
21
-151.08
0
LINE
8
BLACK
6
CONTINUOUS
10
53.1881
20
-151.08
11
53.3786
21
-151.27
0
LINE
8
BLACK
6
CONTINUOUS
10
53.3786
20
-151.27
11
53.4738
21
-151.461
0
LINE
8
BLACK
6
CONTINUOUS
10
53.4738
20
-151.461
11
53.569
21
-151.842
0
LINE
8
BLACK
6
CONTINUOUS
10
53.569
20
-151.842
11
53.569
21
-152.128
0
LINE
8
BLACK
6
CONTINUOUS
10
53.569
20
-152.128
11
53.4738
21
-152.509
0
LINE
8
BLACK
6
CONTINUOUS
10
53.4738
20
-152.509
11
53.3786
21
-152.699
0
LINE
8
BLACK
6
CONTINUOUS
10
53.3786
20
-152.699
11
53.1881
21
-152.89
0
LINE
8
BLACK
6
CONTINUOUS
10
53.1881
20
-152.89
11
52.9024
21
-152.985
0
LINE
8
BLACK
6
CONTINUOUS
10
52.9024
20
-152.985
11
52.4262
21
-152.985
0
LINE
8
BLACK
6
CONTINUOUS
10
54.4262
20
-152.985
11
54.4262
21
-151.651
0
LINE
8
BLACK
6
CONTINUOUS
10
54.4262
20
-152.032
11
54.5214
21
-151.842
0
LINE
8
BLACK
6
CONTINUOUS
10
54.5214
20
-151.842
11
54.6167
21
-151.747
0
LINE
8
BLACK
6
CONTINUOUS
10
54.6167
20
-151.747
11
54.8071
21
-151.651
0
LINE
8
BLACK
6
CONTINUOUS
10
54.8071
20
-151.651
11
54.9976
21
-151.651
0
LINE
8
BLACK
6
CONTINUOUS
10
55.6643
20
-152.985
11
55.6643
21
-151.651
0
LINE
8
BLACK
6
CONTINUOUS
10
55.6643
20
-150.985
11
55.569
21
-151.08
0
LINE
8
BLACK
6
CONTINUOUS
10
55.569
20
-151.08
11
55.6643
21
-151.175
0
LINE
8
BLACK
6
CONTINUOUS
10
55.6643
20
-151.175
11
55.7595
21
-151.08
0
LINE
8
BLACK
6
CONTINUOUS
10
55.7595
20
-151.08
11
55.6643
21
-150.985
0
LINE
8
BLACK
6
CONTINUOUS
10
55.6643
20
-150.985
11
55.6643
21
-151.175
0
LINE
8
BLACK
6
CONTINUOUS
10
56.9024
20
-152.985
11
56.7119
21
-152.89
0
LINE
8
BLACK
6
CONTINUOUS
10
56.7119
20
-152.89
11
56.6167
21
-152.699
0
LINE
8
BLACK
6
CONTINUOUS
10
56.6167
20
-152.699
11
56.6167
21
-150.985
0
LINE
8
BLACK
6
CONTINUOUS
10
57.95
20
-152.985
11
57.7595
21
-152.89
0
LINE
8
BLACK
6
CONTINUOUS
10
57.7595
20
-152.89
11
57.6643
21
-152.699
0
LINE
8
BLACK
6
CONTINUOUS
10
57.6643
20
-152.699
11
57.6643
21
-150.985
0
LINE
8
BLACK
6
CONTINUOUS
10
59.9119
20
-152.985
11
59.9119
21
-150.985
0
LINE
8
BLACK
6
CONTINUOUS
10
59.9119
20
-150.985
11
60.5786
21
-152.413
0
LINE
8
BLACK
6
CONTINUOUS
10
60.5786
20
-152.413
11
61.2452
21
-150.985
0
LINE
8
BLACK
6
CONTINUOUS
10
61.2452
20
-150.985
11
61.2452
21
-152.985
0
LINE
8
BLACK
6
CONTINUOUS
10
63.0548
20
-152.985
11
63.0548
21
-151.937
0
LINE
8
BLACK
6
CONTINUOUS
10
63.0548
20
-151.937
11
62.9595
21
-151.747
0
LINE
8
BLACK
6
CONTINUOUS
10
62.9595
20
-151.747
11
62.769
21
-151.651
0
LINE
8
BLACK
6
CONTINUOUS
10
62.769
20
-151.651
11
62.3881
21
-151.651
0
LINE
8
BLACK
6
CONTINUOUS
10
62.3881
20
-151.651
11
62.1976
21
-151.747
0
LINE
8
BLACK
6
CONTINUOUS
10
63.0548
20
-152.89
11
62.8643
21
-152.985
0
LINE
8
BLACK
6
CONTINUOUS
10
62.8643
20
-152.985
11
62.3881
21
-152.985
0
LINE
8
BLACK
6
CONTINUOUS
10
62.3881
20
-152.985
11
62.1976
21
-152.89
0
LINE
8
BLACK
6
CONTINUOUS
10
62.1976
20
-152.89
11
62.1024
21
-152.699
0
LINE
8
BLACK
6
CONTINUOUS
10
62.1024
20
-152.699
11
62.1024
21
-152.509
0
LINE
8
BLACK
6
CONTINUOUS
10
62.1024
20
-152.509
11
62.1976
21
-152.318
0
LINE
8
BLACK
6
CONTINUOUS
10
62.1976
20
-152.318
11
62.3881
21
-152.223
0
LINE
8
BLACK
6
CONTINUOUS
10
62.3881
20
-152.223
11
62.8643
21
-152.223
0
LINE
8
BLACK
6
CONTINUOUS
10
62.8643
20
-152.223
11
63.0548
21
-152.128
0
LINE
8
BLACK
6
CONTINUOUS
10
64.0071
20
-151.651
11
64.0071
21
-153.651
0
LINE
8
BLACK
6
CONTINUOUS
10
64.0071
20
-151.747
11
64.1976
21
-151.651
0
LINE
8
BLACK
6
CONTINUOUS
10
64.1976
20
-151.651
11
64.5786
21
-151.651
0
LINE
8
BLACK
6
CONTINUOUS
10
64.5786
20
-151.651
11
64.769
21
-151.747
0
LINE
8
BLACK
6
CONTINUOUS
10
64.769
20
-151.747
11
64.8643
21
-151.842
0
LINE
8
BLACK
6
CONTINUOUS
10
64.8643
20
-151.842
11
64.9595
21
-152.032
0
LINE
8
BLACK
6
CONTINUOUS
10
64.9595
20
-152.032
11
64.9595
21
-152.604
0
LINE
8
BLACK
6
CONTINUOUS
10
64.9595
20
-152.604
11
64.8643
21
-152.794
0
LINE
8
BLACK
6
CONTINUOUS
10
64.8643
20
-152.794
11
64.769
21
-152.89
0
LINE
8
BLACK
6
CONTINUOUS
10
64.769
20
-152.89
11
64.5786
21
-152.985
0
LINE
8
BLACK
6
CONTINUOUS
10
64.5786
20
-152.985
11
64.1976
21
-152.985
0
LINE
8
BLACK
6
CONTINUOUS
10
64.1976
20
-152.985
11
64.0071
21
-152.89
0
LINE
8
BLACK
6
CONTINUOUS
10
65.8167
20
-152.794
11
65.9119
21
-152.89
0
LINE
8
BLACK
6
CONTINUOUS
10
65.9119
20
-152.89
11
65.8167
21
-152.985
0
LINE
8
BLACK
6
CONTINUOUS
10
65.8167
20
-152.985
11
65.7214
21
-152.89
0
LINE
8
BLACK
6
CONTINUOUS
10
65.7214
20
-152.89
11
65.8167
21
-152.794
0
LINE
8
BLACK
6
CONTINUOUS
10
65.8167
20
-152.794
11
65.8167
21
-152.985
0
LINE
8
BLACK
6
CONTINUOUS
10
65.8167
20
-151.747
11
65.9119
21
-151.842
0
LINE
8
BLACK
6
CONTINUOUS
10
65.9119
20
-151.842
11
65.8167
21
-151.937
0
LINE
8
BLACK
6
CONTINUOUS
10
65.8167
20
-151.937
11
65.7214
21
-151.842
0
LINE
8
BLACK
6
CONTINUOUS
10
65.7214
20
-151.842
11
65.8167
21
-151.747
0
LINE
8
BLACK
6
CONTINUOUS
10
65.8167
20
-151.747
11
65.8167
21
-151.937
0
LINE
8
BLACK
6
CONTINUOUS
10
47.95
20
-155.45
11
49.95
21
-157.45
0
LINE
8
BLACK
6
CONTINUOUS
10
49.95
20
-155.45
11
47.95
21
-157.45
0
LINE
8
BLACK
6
CONTINUOUS
10
52.2357
20
-155.185
11
53.4738
21
-155.185
0
LINE
8
BLACK
6
CONTINUOUS
10
53.4738
20
-155.185
11
52.8071
21
-155.947
0
LINE
8
BLACK
6
CONTINUOUS
10
52.8071
20
-155.947
11
53.0929
21
-155.947
0
LINE
8
BLACK
6
CONTINUOUS
10
53.0929
20
-155.947
11
53.2833
21
-156.042
0
LINE
8
BLACK
6
CONTINUOUS
10
53.2833
20
-156.042
11
53.3786
21
-156.137
0
LINE
8
BLACK
6
CONTINUOUS
10
53.3786
20
-156.137
11
53.4738
21
-156.328
0
LINE
8
BLACK
6
CONTINUOUS
10
53.4738
20
-156.328
11
53.4738
21
-156.804
0
LINE
8
BLACK
6
CONTINUOUS
10
53.4738
20
-156.804
11
53.3786
21
-156.994
0
LINE
8
BLACK
6
CONTINUOUS
10
53.3786
20
-156.994
11
53.2833
21
-157.09
0
LINE
8
BLACK
6
CONTINUOUS
10
53.2833
20
-157.09
11
53.0929
21
-157.185
0
LINE
8
BLACK
6
CONTINUOUS
10
53.0929
20
-157.185
11
52.5214
21
-157.185
0
LINE
8
BLACK
6
CONTINUOUS
10
52.5214
20
-157.185
11
52.331
21
-157.09
0
LINE
8
BLACK
6
CONTINUOUS
10
52.331
20
-157.09
11
52.2357
21
-156.994
0
LINE
8
BLACK
6
CONTINUOUS
10
54.331
20
-156.994
11
54.4262
21
-157.09
0
LINE
8
BLACK
6
CONTINUOUS
10
54.4262
20
-157.09
11
54.331
21
-157.185
0
LINE
8
BLACK
6
CONTINUOUS
10
54.331
20
-157.185
11
54.2357
21
-157.09
0
LINE
8
BLACK
6
CONTINUOUS
10
54.2357
20
-157.09
11
54.331
21
-156.994
0
LINE
8
BLACK
6
CONTINUOUS
10
54.331
20
-156.994
11
54.331
21
-157.185
0
LINE
8
BLACK
6
CONTINUOUS
10
55.1881
20
-155.375
11
55.2833
21
-155.28
0
LINE
8
BLACK
6
CONTINUOUS
10
55.2833
20
-155.28
11
55.4738
21
-155.185
0
LINE
8
BLACK
6
CONTINUOUS
10
55.4738
20
-155.185
11
55.95
21
-155.185
0
LINE
8
BLACK
6
CONTINUOUS
10
55.95
20
-155.185
11
56.1405
21
-155.28
0
LINE
8
BLACK
6
CONTINUOUS
10
56.1405
20
-155.28
11
56.2357
21
-155.375
0
LINE
8
BLACK
6
CONTINUOUS
10
56.2357
20
-155.375
11
56.331
21
-155.566
0
LINE
8
BLACK
6
CONTINUOUS
10
56.331
20
-155.566
11
56.331
21
-155.756
0
LINE
8
BLACK
6
CONTINUOUS
10
56.331
20
-155.756
11
56.2357
21
-156.042
0
LINE
8
BLACK
6
CONTINUOUS
10
56.2357
20
-156.042
11
55.0929
21
-157.185
0
LINE
8
BLACK
6
CONTINUOUS
10
55.0929
20
-157.185
11
56.331
21
-157.185
0
LINE
8
BLACK
6
CONTINUOUS
10
57.569
20
-155.185
11
57.7595
21
-155.185
0
LINE
8
BLACK
6
CONTINUOUS
10
57.7595
20
-155.185
11
57.95
21
-155.28
0
LINE
8
BLACK
6
CONTINUOUS
10
57.95
20
-155.28
11
58.0452
21
-155.375
0
LINE
8
BLACK
6
CONTINUOUS
10
58.0452
20
-155.375
11
58.1405
21
-155.566
0
LINE
8
BLACK
6
CONTINUOUS
10
58.1405
20
-155.566
11
58.2357
21
-155.947
0
LINE
8
BLACK
6
CONTINUOUS
10
58.2357
20
-155.947
11
58.2357
21
-156.423
0
LINE
8
BLACK
6
CONTINUOUS
10
58.2357
20
-156.423
11
58.1405
21
-156.804
0
LINE
8
BLACK
6
CONTINUOUS
10
58.1405
20
-156.804
11
58.0452
21
-156.994
0
LINE
8
BLACK
6
CONTINUOUS
10
58.0452
20
-156.994
11
57.95
21
-157.09
0
LINE
8
BLACK
6
CONTINUOUS
10
57.95
20
-157.09
11
57.7595
21
-157.185
0
LINE
8
BLACK
6
CONTINUOUS
10
57.7595
20
-157.185
11
57.569
21
-157.185
0
LINE
8
BLACK
6
CONTINUOUS
10
57.569
20
-157.185
11
57.3786
21
-157.09
0
LINE
8
BLACK
6
CONTINUOUS
10
57.3786
20
-157.09
11
57.2833
21
-156.994
0
LINE
8
BLACK
6
CONTINUOUS
10
57.2833
20
-156.994
11
57.1881
21
-156.804
0
LINE
8
BLACK
6
CONTINUOUS
10
57.1881
20
-156.804
11
57.0929
21
-156.423
0
LINE
8
BLACK
6
CONTINUOUS
10
57.0929
20
-156.423
11
57.0929
21
-155.947
0
LINE
8
BLACK
6
CONTINUOUS
10
57.0929
20
-155.947
11
57.1881
21
-155.566
0
LINE
8
BLACK
6
CONTINUOUS
10
57.1881
20
-155.566
11
57.2833
21
-155.375
0
LINE
8
BLACK
6
CONTINUOUS
10
57.2833
20
-155.375
11
57.3786
21
-155.28
0
LINE
8
BLACK
6
CONTINUOUS
10
57.3786
20
-155.28
11
57.569
21
-155.185
0
LINE
8
BLACK
6
CONTINUOUS
10
59.4738
20
-155.185
11
59.6643
21
-155.185
0
LINE
8
BLACK
6
CONTINUOUS
10
59.6643
20
-155.185
11
59.8548
21
-155.28
0
LINE
8
BLACK
6
CONTINUOUS
10
59.8548
20
-155.28
11
59.95
21
-155.375
0
LINE
8
BLACK
6
CONTINUOUS
10
59.95
20
-155.375
11
60.0452
21
-155.566
0
LINE
8
BLACK
6
CONTINUOUS
10
60.0452
20
-155.566
11
60.1405
21
-155.947
0
LINE
8
BLACK
6
CONTINUOUS
10
60.1405
20
-155.947
11
60.1405
21
-156.423
0
LINE
8
BLACK
6
CONTINUOUS
10
60.1405
20
-156.423
11
60.0452
21
-156.804
0
LINE
8
BLACK
6
CONTINUOUS
10
60.0452
20
-156.804
11
59.95
21
-156.994
0
LINE
8
BLACK
6
CONTINUOUS
10
59.95
20
-156.994
11
59.8548
21
-157.09
0
LINE
8
BLACK
6
CONTINUOUS
10
59.8548
20
-157.09
11
59.6643
21
-157.185
0
LINE
8
BLACK
6
CONTINUOUS
10
59.6643
20
-157.185
11
59.4738
21
-157.185
0
LINE
8
BLACK
6
CONTINUOUS
10
59.4738
20
-157.185
11
59.2833
21
-157.09
0
LINE
8
BLACK
6
CONTINUOUS
10
59.2833
20
-157.09
11
59.1881
21
-156.994
0
LINE
8
BLACK
6
CONTINUOUS
10
59.1881
20
-156.994
11
59.0929
21
-156.804
0
LINE
8
BLACK
6
CONTINUOUS
10
59.0929
20
-156.804
11
58.9976
21
-156.423
0
LINE
8
BLACK
6
CONTINUOUS
10
58.9976
20
-156.423
11
58.9976
21
-155.947
0
LINE
8
BLACK
6
CONTINUOUS
10
58.9976
20
-155.947
11
59.0929
21
-155.566
0
LINE
8
BLACK
6
CONTINUOUS
10
59.0929
20
-155.566
11
59.1881
21
-155.375
0
LINE
8
BLACK
6
CONTINUOUS
10
59.1881
20
-155.375
11
59.2833
21
-155.28
0
LINE
8
BLACK
6
CONTINUOUS
10
59.2833
20
-155.28
11
59.4738
21
-155.185
0
LINE
8
BLACK
6
CONTINUOUS
10
60.9976
20
-157.185
11
60.9976
21
-155.851
0
LINE
8
BLACK
6
CONTINUOUS
10
60.9976
20
-156.042
11
61.0929
21
-155.947
0
LINE
8
BLACK
6
CONTINUOUS
10
61.0929
20
-155.947
11
61.2833
21
-155.851
0
LINE
8
BLACK
6
CONTINUOUS
10
61.2833
20
-155.851
11
61.569
21
-155.851
0
LINE
8
BLACK
6
CONTINUOUS
10
61.569
20
-155.851
11
61.7595
21
-155.947
0
LINE
8
BLACK
6
CONTINUOUS
10
61.7595
20
-155.947
11
61.8548
21
-156.137
0
LINE
8
BLACK
6
CONTINUOUS
10
61.8548
20
-156.137
11
61.8548
21
-157.185
0
LINE
8
BLACK
6
CONTINUOUS
10
61.8548
20
-156.137
11
61.95
21
-155.947
0
LINE
8
BLACK
6
CONTINUOUS
10
61.95
20
-155.947
11
62.1405
21
-155.851
0
LINE
8
BLACK
6
CONTINUOUS
10
62.1405
20
-155.851
11
62.4262
21
-155.851
0
LINE
8
BLACK
6
CONTINUOUS
10
62.4262
20
-155.851
11
62.6167
21
-155.947
0
LINE
8
BLACK
6
CONTINUOUS
10
62.6167
20
-155.947
11
62.7119
21
-156.137
0
LINE
8
BLACK
6
CONTINUOUS
10
62.7119
20
-156.137
11
62.7119
21
-157.185
0
LINE
8
BLACK
6
CONTINUOUS
10
63.6643
20
-157.185
11
63.6643
21
-155.851
0
LINE
8
BLACK
6
CONTINUOUS
10
63.6643
20
-156.042
11
63.7595
21
-155.947
0
LINE
8
BLACK
6
CONTINUOUS
10
63.7595
20
-155.947
11
63.95
21
-155.851
0
LINE
8
BLACK
6
CONTINUOUS
10
63.95
20
-155.851
11
64.2357
21
-155.851
0
LINE
8
BLACK
6
CONTINUOUS
10
64.2357
20
-155.851
11
64.4262
21
-155.947
0
LINE
8
BLACK
6
CONTINUOUS
10
64.4262
20
-155.947
11
64.5214
21
-156.137
0
LINE
8
BLACK
6
CONTINUOUS
10
64.5214
20
-156.137
11
64.5214
21
-157.185
0
LINE
8
BLACK
6
CONTINUOUS
10
64.5214
20
-156.137
11
64.6167
21
-155.947
0
LINE
8
BLACK
6
CONTINUOUS
10
64.6167
20
-155.947
11
64.8071
21
-155.851
0
LINE
8
BLACK
6
CONTINUOUS
10
64.8071
20
-155.851
11
65.0929
21
-155.851
0
LINE
8
BLACK
6
CONTINUOUS
10
65.0929
20
-155.851
11
65.2833
21
-155.947
0
LINE
8
BLACK
6
CONTINUOUS
10
65.2833
20
-155.947
11
65.3786
21
-156.137
0
LINE
8
BLACK
6
CONTINUOUS
10
65.3786
20
-156.137
11
65.3786
21
-157.185
0
LINE
8
BLACK
6
CONTINUOUS
10
68.9595
20
-155.09
11
67.2452
21
-157.661
0
LINE
8
BLACK
6
CONTINUOUS
10
71.2071
20
-155.185
11
71.3976
21
-155.185
0
LINE
8
BLACK
6
CONTINUOUS
10
71.3976
20
-155.185
11
71.5881
21
-155.28
0
LINE
8
BLACK
6
CONTINUOUS
10
71.5881
20
-155.28
11
71.6833
21
-155.375
0
LINE
8
BLACK
6
CONTINUOUS
10
71.6833
20
-155.375
11
71.7786
21
-155.566
0
LINE
8
BLACK
6
CONTINUOUS
10
71.7786
20
-155.566
11
71.8738
21
-155.947
0
LINE
8
BLACK
6
CONTINUOUS
10
71.8738
20
-155.947
11
71.8738
21
-156.423
0
LINE
8
BLACK
6
CONTINUOUS
10
71.8738
20
-156.423
11
71.7786
21
-156.804
0
LINE
8
BLACK
6
CONTINUOUS
10
71.7786
20
-156.804
11
71.6833
21
-156.994
0
LINE
8
BLACK
6
CONTINUOUS
10
71.6833
20
-156.994
11
71.5881
21
-157.09
0
LINE
8
BLACK
6
CONTINUOUS
10
71.5881
20
-157.09
11
71.3976
21
-157.185
0
LINE
8
BLACK
6
CONTINUOUS
10
71.3976
20
-157.185
11
71.2071
21
-157.185
0
LINE
8
BLACK
6
CONTINUOUS
10
71.2071
20
-157.185
11
71.0167
21
-157.09
0
LINE
8
BLACK
6
CONTINUOUS
10
71.0167
20
-157.09
11
70.9214
21
-156.994
0
LINE
8
BLACK
6
CONTINUOUS
10
70.9214
20
-156.994
11
70.8262
21
-156.804
0
LINE
8
BLACK
6
CONTINUOUS
10
70.8262
20
-156.804
11
70.731
21
-156.423
0
LINE
8
BLACK
6
CONTINUOUS
10
70.731
20
-156.423
11
70.731
21
-155.947
0
LINE
8
BLACK
6
CONTINUOUS
10
70.731
20
-155.947
11
70.8262
21
-155.566
0
LINE
8
BLACK
6
CONTINUOUS
10
70.8262
20
-155.566
11
70.9214
21
-155.375
0
LINE
8
BLACK
6
CONTINUOUS
10
70.9214
20
-155.375
11
71.0167
21
-155.28
0
LINE
8
BLACK
6
CONTINUOUS
10
71.0167
20
-155.28
11
71.2071
21
-155.185
0
LINE
8
BLACK
6
CONTINUOUS
10
72.731
20
-156.994
11
72.8262
21
-157.09
0
LINE
8
BLACK
6
CONTINUOUS
10
72.8262
20
-157.09
11
72.731
21
-157.185
0
LINE
8
BLACK
6
CONTINUOUS
10
72.731
20
-157.185
11
72.6357
21
-157.09
0
LINE
8
BLACK
6
CONTINUOUS
10
72.6357
20
-157.09
11
72.731
21
-156.994
0
LINE
8
BLACK
6
CONTINUOUS
10
72.731
20
-156.994
11
72.731
21
-157.185
0
LINE
8
BLACK
6
CONTINUOUS
10
74.731
20
-157.185
11
73.5881
21
-157.185
0
LINE
8
BLACK
6
CONTINUOUS
10
74.1595
20
-157.185
11
74.1595
21
-155.185
0
LINE
8
BLACK
6
CONTINUOUS
10
74.1595
20
-155.185
11
73.969
21
-155.47
0
LINE
8
BLACK
6
CONTINUOUS
10
73.969
20
-155.47
11
73.7786
21
-155.661
0
LINE
8
BLACK
6
CONTINUOUS
10
73.7786
20
-155.661
11
73.5881
21
-155.756
0
LINE
8
BLACK
6
CONTINUOUS
10
75.4929
20
-155.375
11
75.5881
21
-155.28
0
LINE
8
BLACK
6
CONTINUOUS
10
75.5881
20
-155.28
11
75.7786
21
-155.185
0
LINE
8
BLACK
6
CONTINUOUS
10
75.7786
20
-155.185
11
76.2548
21
-155.185
0
LINE
8
BLACK
6
CONTINUOUS
10
76.2548
20
-155.185
11
76.4452
21
-155.28
0
LINE
8
BLACK
6
CONTINUOUS
10
76.4452
20
-155.28
11
76.5405
21
-155.375
0
LINE
8
BLACK
6
CONTINUOUS
10
76.5405
20
-155.375
11
76.6357
21
-155.566
0
LINE
8
BLACK
6
CONTINUOUS
10
76.6357
20
-155.566
11
76.6357
21
-155.756
0
LINE
8
BLACK
6
CONTINUOUS
10
76.6357
20
-155.756
11
76.5405
21
-156.042
0
LINE
8
BLACK
6
CONTINUOUS
10
76.5405
20
-156.042
11
75.3976
21
-157.185
0
LINE
8
BLACK
6
CONTINUOUS
10
75.3976
20
-157.185
11
76.6357
21
-157.185
0
LINE
8
BLACK
6
CONTINUOUS
10
78.35
20
-155.185
11
77.969
21
-155.185
0
LINE
8
BLACK
6
CONTINUOUS
10
77.969
20
-155.185
11
77.7786
21
-155.28
0
LINE
8
BLACK
6
CONTINUOUS
10
77.7786
20
-155.28
11
77.6833
21
-155.375
0
LINE
8
BLACK
6
CONTINUOUS
10
77.6833
20
-155.375
11
77.4929
21
-155.661
0
LINE
8
BLACK
6
CONTINUOUS
10
77.4929
20
-155.661
11
77.3976
21
-156.042
0
LINE
8
BLACK
6
CONTINUOUS
10
77.3976
20
-156.042
11
77.3976
21
-156.804
0
LINE
8
BLACK
6
CONTINUOUS
10
77.3976
20
-156.804
11
77.4929
21
-156.994
0
LINE
8
BLACK
6
CONTINUOUS
10
77.4929
20
-156.994
11
77.5881
21
-157.09
0
LINE
8
BLACK
6
CONTINUOUS
10
77.5881
20
-157.09
11
77.7786
21
-157.185
0
LINE
8
BLACK
6
CONTINUOUS
10
77.7786
20
-157.185
11
78.1595
21
-157.185
0
LINE
8
BLACK
6
CONTINUOUS
10
78.1595
20
-157.185
11
78.35
21
-157.09
0
LINE
8
BLACK
6
CONTINUOUS
10
78.35
20
-157.09
11
78.4452
21
-156.994
0
LINE
8
BLACK
6
CONTINUOUS
10
78.4452
20
-156.994
11
78.5405
21
-156.804
0
LINE
8
BLACK
6
CONTINUOUS
10
78.5405
20
-156.804
11
78.5405
21
-156.328
0
LINE
8
BLACK
6
CONTINUOUS
10
78.5405
20
-156.328
11
78.4452
21
-156.137
0
LINE
8
BLACK
6
CONTINUOUS
10
78.4452
20
-156.137
11
78.35
21
-156.042
0
LINE
8
BLACK
6
CONTINUOUS
10
78.35
20
-156.042
11
78.1595
21
-155.947
0
LINE
8
BLACK
6
CONTINUOUS
10
78.1595
20
-155.947
11
77.7786
21
-155.947
0
LINE
8
BLACK
6
CONTINUOUS
10
77.7786
20
-155.947
11
77.5881
21
-156.042
0
LINE
8
BLACK
6
CONTINUOUS
10
77.5881
20
-156.042
11
77.4929
21
-156.137
0
LINE
8
BLACK
6
CONTINUOUS
10
77.4929
20
-156.137
11
77.3976
21
-156.328
0
LINE
8
BLACK
6
CONTINUOUS
10
79.7786
20
-155.185
11
79.969
21
-155.185
0
LINE
8
BLACK
6
CONTINUOUS
10
79.969
20
-155.185
11
80.1595
21
-155.28
0
LINE
8
BLACK
6
CONTINUOUS
10
80.1595
20
-155.28
11
80.2548
21
-155.375
0
LINE
8
BLACK
6
CONTINUOUS
10
80.2548
20
-155.375
11
80.35
21
-155.566
0
LINE
8
BLACK
6
CONTINUOUS
10
80.35
20
-155.566
11
80.4452
21
-155.947
0
LINE
8
BLACK
6
CONTINUOUS
10
80.4452
20
-155.947
11
80.4452
21
-156.423
0
LINE
8
BLACK
6
CONTINUOUS
10
80.4452
20
-156.423
11
80.35
21
-156.804
0
LINE
8
BLACK
6
CONTINUOUS
10
80.35
20
-156.804
11
80.2548
21
-156.994
0
LINE
8
BLACK
6
CONTINUOUS
10
80.2548
20
-156.994
11
80.1595
21
-157.09
0
LINE
8
BLACK
6
CONTINUOUS
10
80.1595
20
-157.09
11
79.969
21
-157.185
0
LINE
8
BLACK
6
CONTINUOUS
10
79.969
20
-157.185
11
79.7786
21
-157.185
0
LINE
8
BLACK
6
CONTINUOUS
10
79.7786
20
-157.185
11
79.5881
21
-157.09
0
LINE
8
BLACK
6
CONTINUOUS
10
79.5881
20
-157.09
11
79.4929
21
-156.994
0
LINE
8
BLACK
6
CONTINUOUS
10
79.4929
20
-156.994
11
79.3976
21
-156.804
0
LINE
8
BLACK
6
CONTINUOUS
10
79.3976
20
-156.804
11
79.3024
21
-156.423
0
LINE
8
BLACK
6
CONTINUOUS
10
79.3024
20
-156.423
11
79.3024
21
-155.947
0
LINE
8
BLACK
6
CONTINUOUS
10
79.3024
20
-155.947
11
79.3976
21
-155.566
0
LINE
8
BLACK
6
CONTINUOUS
10
79.3976
20
-155.566
11
79.4929
21
-155.375
0
LINE
8
BLACK
6
CONTINUOUS
10
79.4929
20
-155.375
11
79.5881
21
-155.28
0
LINE
8
BLACK
6
CONTINUOUS
10
79.5881
20
-155.28
11
79.7786
21
-155.185
0
LINE
8
BLACK
6
CONTINUOUS
10
81.2071
20
-155.185
11
81.2071
21
-155.566
0
LINE
8
BLACK
6
CONTINUOUS
10
81.969
20
-155.185
11
81.969
21
-155.566
0
LINE
8
BLACK
6
CONTINUOUS
10
84.5976
20
-157.947
11
84.5024
21
-157.851
0
LINE
8
BLACK
6
CONTINUOUS
10
84.5024
20
-157.851
11
84.3119
21
-157.566
0
LINE
8
BLACK
6
CONTINUOUS
10
84.3119
20
-157.566
11
84.2167
21
-157.375
0
LINE
8
BLACK
6
CONTINUOUS
10
84.2167
20
-157.375
11
84.1214
21
-157.09
0
LINE
8
BLACK
6
CONTINUOUS
10
84.1214
20
-157.09
11
84.0262
21
-156.613
0
LINE
8
BLACK
6
CONTINUOUS
10
84.0262
20
-156.613
11
84.0262
21
-156.232
0
LINE
8
BLACK
6
CONTINUOUS
10
84.0262
20
-156.232
11
84.1214
21
-155.756
0
LINE
8
BLACK
6
CONTINUOUS
10
84.1214
20
-155.756
11
84.2167
21
-155.47
0
LINE
8
BLACK
6
CONTINUOUS
10
84.2167
20
-155.47
11
84.3119
21
-155.28
0
LINE
8
BLACK
6
CONTINUOUS
10
84.3119
20
-155.28
11
84.5024
21
-154.994
0
LINE
8
BLACK
6
CONTINUOUS
10
84.5024
20
-154.994
11
84.5976
21
-154.899
0
LINE
8
BLACK
6
CONTINUOUS
10
85.2643
20
-155.375
11
85.3595
21
-155.28
0
LINE
8
BLACK
6
CONTINUOUS
10
85.3595
20
-155.28
11
85.55
21
-155.185
0
LINE
8
BLACK
6
CONTINUOUS
10
85.55
20
-155.185
11
86.0262
21
-155.185
0
LINE
8
BLACK
6
CONTINUOUS
10
86.0262
20
-155.185
11
86.2167
21
-155.28
0
LINE
8
BLACK
6
CONTINUOUS
10
86.2167
20
-155.28
11
86.3119
21
-155.375
0
LINE
8
BLACK
6
CONTINUOUS
10
86.3119
20
-155.375
11
86.4071
21
-155.566
0
LINE
8
BLACK
6
CONTINUOUS
10
86.4071
20
-155.566
11
86.4071
21
-155.756
0
LINE
8
BLACK
6
CONTINUOUS
10
86.4071
20
-155.756
11
86.3119
21
-156.042
0
LINE
8
BLACK
6
CONTINUOUS
10
86.3119
20
-156.042
11
85.169
21
-157.185
0
LINE
8
BLACK
6
CONTINUOUS
10
85.169
20
-157.185
11
86.4071
21
-157.185
0
LINE
8
BLACK
6
CONTINUOUS
10
88.4643
20
-157.185
11
88.4643
21
-155.185
0
LINE
8
BLACK
6
CONTINUOUS
10
89.3214
20
-157.185
11
89.3214
21
-156.137
0
LINE
8
BLACK
6
CONTINUOUS
10
89.3214
20
-156.137
11
89.2262
21
-155.947
0
LINE
8
BLACK
6
CONTINUOUS
10
89.2262
20
-155.947
11
89.0357
21
-155.851
0
LINE
8
BLACK
6
CONTINUOUS
10
89.0357
20
-155.851
11
88.75
21
-155.851
0
LINE
8
BLACK
6
CONTINUOUS
10
88.75
20
-155.851
11
88.5595
21
-155.947
0
LINE
8
BLACK
6
CONTINUOUS
10
88.5595
20
-155.947
11
88.4643
21
-156.042
0
LINE
8
BLACK
6
CONTINUOUS
10
90.5595
20
-157.185
11
90.369
21
-157.09
0
LINE
8
BLACK
6
CONTINUOUS
10
90.369
20
-157.09
11
90.2738
21
-156.994
0
LINE
8
BLACK
6
CONTINUOUS
10
90.2738
20
-156.994
11
90.1786
21
-156.804
0
LINE
8
BLACK
6
CONTINUOUS
10
90.1786
20
-156.804
11
90.1786
21
-156.232
0
LINE
8
BLACK
6
CONTINUOUS
10
90.1786
20
-156.232
11
90.2738
21
-156.042
0
LINE
8
BLACK
6
CONTINUOUS
10
90.2738
20
-156.042
11
90.369
21
-155.947
0
LINE
8
BLACK
6
CONTINUOUS
10
90.369
20
-155.947
11
90.5595
21
-155.851
0
LINE
8
BLACK
6
CONTINUOUS
10
90.5595
20
-155.851
11
90.8452
21
-155.851
0
LINE
8
BLACK
6
CONTINUOUS
10
90.8452
20
-155.851
11
91.0357
21
-155.947
0
LINE
8
BLACK
6
CONTINUOUS
10
91.0357
20
-155.947
11
91.131
21
-156.042
0
LINE
8
BLACK
6
CONTINUOUS
10
91.131
20
-156.042
11
91.2262
21
-156.232
0
LINE
8
BLACK
6
CONTINUOUS
10
91.2262
20
-156.232
11
91.2262
21
-156.804
0
LINE
8
BLACK
6
CONTINUOUS
10
91.2262
20
-156.804
11
91.131
21
-156.994
0
LINE
8
BLACK
6
CONTINUOUS
10
91.131
20
-156.994
11
91.0357
21
-157.09
0
LINE
8
BLACK
6
CONTINUOUS
10
91.0357
20
-157.09
11
90.8452
21
-157.185
0
LINE
8
BLACK
6
CONTINUOUS
10
90.8452
20
-157.185
11
90.5595
21
-157.185
0
LINE
8
BLACK
6
CONTINUOUS
10
92.369
20
-157.185
11
92.1786
21
-157.09
0
LINE
8
BLACK
6
CONTINUOUS
10
92.1786
20
-157.09
11
92.0833
21
-156.899
0
LINE
8
BLACK
6
CONTINUOUS
10
92.0833
20
-156.899
11
92.0833
21
-155.185
0
LINE
8
BLACK
6
CONTINUOUS
10
93.8929
20
-157.09
11
93.7024
21
-157.185
0
LINE
8
BLACK
6
CONTINUOUS
10
93.7024
20
-157.185
11
93.3214
21
-157.185
0
LINE
8
BLACK
6
CONTINUOUS
10
93.3214
20
-157.185
11
93.131
21
-157.09
0
LINE
8
BLACK
6
CONTINUOUS
10
93.131
20
-157.09
11
93.0357
21
-156.899
0
LINE
8
BLACK
6
CONTINUOUS
10
93.0357
20
-156.899
11
93.0357
21
-156.137
0
LINE
8
BLACK
6
CONTINUOUS
10
93.0357
20
-156.137
11
93.131
21
-155.947
0
LINE
8
BLACK
6
CONTINUOUS
10
93.131
20
-155.947
11
93.3214
21
-155.851
0
LINE
8
BLACK
6
CONTINUOUS
10
93.3214
20
-155.851
11
93.7024
21
-155.851
0
LINE
8
BLACK
6
CONTINUOUS
10
93.7024
20
-155.851
11
93.8929
21
-155.947
0
LINE
8
BLACK
6
CONTINUOUS
10
93.8929
20
-155.947
11
93.9881
21
-156.137
0
LINE
8
BLACK
6
CONTINUOUS
10
93.9881
20
-156.137
11
93.9881
21
-156.328
0
LINE
8
BLACK
6
CONTINUOUS
10
93.9881
20
-156.328
11
93.0357
21
-156.518
0
LINE
8
BLACK
6
CONTINUOUS
10
94.75
20
-157.09
11
94.9405
21
-157.185
0
LINE
8
BLACK
6
CONTINUOUS
10
94.9405
20
-157.185
11
95.3214
21
-157.185
0
LINE
8
BLACK
6
CONTINUOUS
10
95.3214
20
-157.185
11
95.5119
21
-157.09
0
LINE
8
BLACK
6
CONTINUOUS
10
95.5119
20
-157.09
11
95.6071
21
-156.899
0
LINE
8
BLACK
6
CONTINUOUS
10
95.6071
20
-156.899
11
95.6071
21
-156.804
0
LINE
8
BLACK
6
CONTINUOUS
10
95.6071
20
-156.804
11
95.5119
21
-156.613
0
LINE
8
BLACK
6
CONTINUOUS
10
95.5119
20
-156.613
11
95.3214
21
-156.518
0
LINE
8
BLACK
6
CONTINUOUS
10
95.3214
20
-156.518
11
95.0357
21
-156.518
0
LINE
8
BLACK
6
CONTINUOUS
10
95.0357
20
-156.518
11
94.8452
21
-156.423
0
LINE
8
BLACK
6
CONTINUOUS
10
94.8452
20
-156.423
11
94.75
21
-156.232
0
LINE
8
BLACK
6
CONTINUOUS
10
94.75
20
-156.232
11
94.75
21
-156.137
0
LINE
8
BLACK
6
CONTINUOUS
10
94.75
20
-156.137
11
94.8452
21
-155.947
0
LINE
8
BLACK
6
CONTINUOUS
10
94.8452
20
-155.947
11
95.0357
21
-155.851
0
LINE
8
BLACK
6
CONTINUOUS
10
95.0357
20
-155.851
11
95.3214
21
-155.851
0
LINE
8
BLACK
6
CONTINUOUS
10
95.3214
20
-155.851
11
95.5119
21
-155.947
0
LINE
8
BLACK
6
CONTINUOUS
10
96.2738
20
-157.947
11
96.3691
21
-157.851
0
LINE
8
BLACK
6
CONTINUOUS
10
96.3691
20
-157.851
11
96.5595
21
-157.566
0
LINE
8
BLACK
6
CONTINUOUS
10
96.5595
20
-157.566
11
96.6548
21
-157.375
0
LINE
8
BLACK
6
CONTINUOUS
10
96.6548
20
-157.375
11
96.75
21
-157.09
0
LINE
8
BLACK
6
CONTINUOUS
10
96.75
20
-157.09
11
96.8452
21
-156.613
0
LINE
8
BLACK
6
CONTINUOUS
10
96.8452
20
-156.613
11
96.8452
21
-156.232
0
LINE
8
BLACK
6
CONTINUOUS
10
96.8452
20
-156.232
11
96.75
21
-155.756
0
LINE
8
BLACK
6
CONTINUOUS
10
96.75
20
-155.756
11
96.6548
21
-155.47
0
LINE
8
BLACK
6
CONTINUOUS
10
96.6548
20
-155.47
11
96.5595
21
-155.28
0
LINE
8
BLACK
6
CONTINUOUS
10
96.5595
20
-155.28
11
96.3691
21
-154.994
0
LINE
8
BLACK
6
CONTINUOUS
10
96.3691
20
-154.994
11
96.2738
21
-154.899
0
LINE
8
BLACK
6
CONTINUOUS
10
99.569
20
-157.947
11
99.4738
21
-157.851
0
LINE
8
BLACK
6
CONTINUOUS
10
99.4738
20
-157.851
11
99.2833
21
-157.566
0
LINE
8
BLACK
6
CONTINUOUS
10
99.2833
20
-157.566
11
99.1881
21
-157.375
0
LINE
8
BLACK
6
CONTINUOUS
10
99.1881
20
-157.375
11
99.0929
21
-157.09
0
LINE
8
BLACK
6
CONTINUOUS
10
99.0929
20
-157.09
11
98.9976
21
-156.613
0
LINE
8
BLACK
6
CONTINUOUS
10
98.9976
20
-156.613
11
98.9976
21
-156.232
0
LINE
8
BLACK
6
CONTINUOUS
10
98.9976
20
-156.232
11
99.0929
21
-155.756
0
LINE
8
BLACK
6
CONTINUOUS
10
99.0929
20
-155.756
11
99.1881
21
-155.47
0
LINE
8
BLACK
6
CONTINUOUS
10
99.1881
20
-155.47
11
99.2833
21
-155.28
0
LINE
8
BLACK
6
CONTINUOUS
10
99.2833
20
-155.28
11
99.4738
21
-154.994
0
LINE
8
BLACK
6
CONTINUOUS
10
99.4738
20
-154.994
11
99.569
21
-154.899
0
LINE
8
BLACK
6
CONTINUOUS
10
100.331
20
-155.851
11
100.331
21
-157.185
0
LINE
8
BLACK
6
CONTINUOUS
10
100.331
20
-156.042
11
100.426
21
-155.947
0
LINE
8
BLACK
6
CONTINUOUS
10
100.426
20
-155.947
11
100.617
21
-155.851
0
LINE
8
BLACK
6
CONTINUOUS
10
100.617
20
-155.851
11
100.902
21
-155.851
0
LINE
8
BLACK
6
CONTINUOUS
10
100.902
20
-155.851
11
101.093
21
-155.947
0
LINE
8
BLACK
6
CONTINUOUS
10
101.093
20
-155.947
11
101.188
21
-156.137
0
LINE
8
BLACK
6
CONTINUOUS
10
101.188
20
-156.137
11
101.188
21
-157.185
0
LINE
8
BLACK
6
CONTINUOUS
10
102.426
20
-157.185
11
102.236
21
-157.09
0
LINE
8
BLACK
6
CONTINUOUS
10
102.236
20
-157.09
11
102.14
21
-156.994
0
LINE
8
BLACK
6
CONTINUOUS
10
102.14
20
-156.994
11
102.045
21
-156.804
0
LINE
8
BLACK
6
CONTINUOUS
10
102.045
20
-156.804
11
102.045
21
-156.232
0
LINE
8
BLACK
6
CONTINUOUS
10
102.045
20
-156.232
11
102.14
21
-156.042
0
LINE
8
BLACK
6
CONTINUOUS
10
102.14
20
-156.042
11
102.236
21
-155.947
0
LINE
8
BLACK
6
CONTINUOUS
10
102.236
20
-155.947
11
102.426
21
-155.851
0
LINE
8
BLACK
6
CONTINUOUS
10
102.426
20
-155.851
11
102.712
21
-155.851
0
LINE
8
BLACK
6
CONTINUOUS
10
102.712
20
-155.851
11
102.902
21
-155.947
0
LINE
8
BLACK
6
CONTINUOUS
10
102.902
20
-155.947
11
102.998
21
-156.042
0
LINE
8
BLACK
6
CONTINUOUS
10
102.998
20
-156.042
11
103.093
21
-156.232
0
LINE
8
BLACK
6
CONTINUOUS
10
103.093
20
-156.232
11
103.093
21
-156.804
0
LINE
8
BLACK
6
CONTINUOUS
10
103.093
20
-156.804
11
102.998
21
-156.994
0
LINE
8
BLACK
6
CONTINUOUS
10
102.998
20
-156.994
11
102.902
21
-157.09
0
LINE
8
BLACK
6
CONTINUOUS
10
102.902
20
-157.09
11
102.712
21
-157.185
0
LINE
8
BLACK
6
CONTINUOUS
10
102.712
20
-157.185
11
102.426
21
-157.185
0
LINE
8
BLACK
6
CONTINUOUS
10
103.664
20
-155.851
11
104.426
21
-155.851
0
LINE
8
BLACK
6
CONTINUOUS
10
103.95
20
-155.185
11
103.95
21
-156.899
0
LINE
8
BLACK
6
CONTINUOUS
10
103.95
20
-156.899
11
104.045
21
-157.09
0
LINE
8
BLACK
6
CONTINUOUS
10
104.045
20
-157.09
11
104.236
21
-157.185
0
LINE
8
BLACK
6
CONTINUOUS
10
104.236
20
-157.185
11
104.426
21
-157.185
0
LINE
8
BLACK
6
CONTINUOUS
10
106.293
20
-155.851
11
106.293
21
-157.851
0
LINE
8
BLACK
6
CONTINUOUS
10
106.293
20
-155.947
11
106.483
21
-155.851
0
LINE
8
BLACK
6
CONTINUOUS
10
106.483
20
-155.851
11
106.864
21
-155.851
0
LINE
8
BLACK
6
CONTINUOUS
10
106.864
20
-155.851
11
107.055
21
-155.947
0
LINE
8
BLACK
6
CONTINUOUS
10
107.055
20
-155.947
11
107.15
21
-156.042
0
LINE
8
BLACK
6
CONTINUOUS
10
107.15
20
-156.042
11
107.245
21
-156.232
0
LINE
8
BLACK
6
CONTINUOUS
10
107.245
20
-156.232
11
107.245
21
-156.804
0
LINE
8
BLACK
6
CONTINUOUS
10
107.245
20
-156.804
11
107.15
21
-156.994
0
LINE
8
BLACK
6
CONTINUOUS
10
107.15
20
-156.994
11
107.055
21
-157.09
0
LINE
8
BLACK
6
CONTINUOUS
10
107.055
20
-157.09
11
106.864
21
-157.185
0
LINE
8
BLACK
6
CONTINUOUS
10
106.864
20
-157.185
11
106.483
21
-157.185
0
LINE
8
BLACK
6
CONTINUOUS
10
106.483
20
-157.185
11
106.293
21
-157.09
0
LINE
8
BLACK
6
CONTINUOUS
10
108.388
20
-157.185
11
108.198
21
-157.09
0
LINE
8
BLACK
6
CONTINUOUS
10
108.198
20
-157.09
11
108.102
21
-156.899
0
LINE
8
BLACK
6
CONTINUOUS
10
108.102
20
-156.899
11
108.102
21
-155.185
0
LINE
8
BLACK
6
CONTINUOUS
10
110.007
20
-157.185
11
110.007
21
-156.137
0
LINE
8
BLACK
6
CONTINUOUS
10
110.007
20
-156.137
11
109.912
21
-155.947
0
LINE
8
BLACK
6
CONTINUOUS
10
109.912
20
-155.947
11
109.721
21
-155.851
0
LINE
8
BLACK
6
CONTINUOUS
10
109.721
20
-155.851
11
109.34
21
-155.851
0
LINE
8
BLACK
6
CONTINUOUS
10
109.34
20
-155.851
11
109.15
21
-155.947
0
LINE
8
BLACK
6
CONTINUOUS
10
110.007
20
-157.09
11
109.817
21
-157.185
0
LINE
8
BLACK
6
CONTINUOUS
10
109.817
20
-157.185
11
109.34
21
-157.185
0
LINE
8
BLACK
6
CONTINUOUS
10
109.34
20
-157.185
11
109.15
21
-157.09
0
LINE
8
BLACK
6
CONTINUOUS
10
109.15
20
-157.09
11
109.055
21
-156.899
0
LINE
8
BLACK
6
CONTINUOUS
10
109.055
20
-156.899
11
109.055
21
-156.709
0
LINE
8
BLACK
6
CONTINUOUS
10
109.055
20
-156.709
11
109.15
21
-156.518
0
LINE
8
BLACK
6
CONTINUOUS
10
109.15
20
-156.518
11
109.34
21
-156.423
0
LINE
8
BLACK
6
CONTINUOUS
10
109.34
20
-156.423
11
109.817
21
-156.423
0
LINE
8
BLACK
6
CONTINUOUS
10
109.817
20
-156.423
11
110.007
21
-156.328
0
LINE
8
BLACK
6
CONTINUOUS
10
110.674
20
-155.851
11
111.436
21
-155.851
0
LINE
8
BLACK
6
CONTINUOUS
10
110.96
20
-155.185
11
110.96
21
-156.899
0
LINE
8
BLACK
6
CONTINUOUS
10
110.96
20
-156.899
11
111.055
21
-157.09
0
LINE
8
BLACK
6
CONTINUOUS
10
111.055
20
-157.09
11
111.245
21
-157.185
0
LINE
8
BLACK
6
CONTINUOUS
10
111.245
20
-157.185
11
111.436
21
-157.185
0
LINE
8
BLACK
6
CONTINUOUS
10
112.864
20
-157.09
11
112.674
21
-157.185
0
LINE
8
BLACK
6
CONTINUOUS
10
112.674
20
-157.185
11
112.293
21
-157.185
0
LINE
8
BLACK
6
CONTINUOUS
10
112.293
20
-157.185
11
112.102
21
-157.09
0
LINE
8
BLACK
6
CONTINUOUS
10
112.102
20
-157.09
11
112.007
21
-156.899
0
LINE
8
BLACK
6
CONTINUOUS
10
112.007
20
-156.899
11
112.007
21
-156.137
0
LINE
8
BLACK
6
CONTINUOUS
10
112.007
20
-156.137
11
112.102
21
-155.947
0
LINE
8
BLACK
6
CONTINUOUS
10
112.102
20
-155.947
11
112.293
21
-155.851
0
LINE
8
BLACK
6
CONTINUOUS
10
112.293
20
-155.851
11
112.674
21
-155.851
0
LINE
8
BLACK
6
CONTINUOUS
10
112.674
20
-155.851
11
112.864
21
-155.947
0
LINE
8
BLACK
6
CONTINUOUS
10
112.864
20
-155.947
11
112.96
21
-156.137
0
LINE
8
BLACK
6
CONTINUOUS
10
112.96
20
-156.137
11
112.96
21
-156.328
0
LINE
8
BLACK
6
CONTINUOUS
10
112.96
20
-156.328
11
112.007
21
-156.518
0
LINE
8
BLACK
6
CONTINUOUS
10
114.674
20
-157.185
11
114.674
21
-155.185
0
LINE
8
BLACK
6
CONTINUOUS
10
114.674
20
-157.09
11
114.483
21
-157.185
0
LINE
8
BLACK
6
CONTINUOUS
10
114.483
20
-157.185
11
114.102
21
-157.185
0
LINE
8
BLACK
6
CONTINUOUS
10
114.102
20
-157.185
11
113.912
21
-157.09
0
LINE
8
BLACK
6
CONTINUOUS
10
113.912
20
-157.09
11
113.817
21
-156.994
0
LINE
8
BLACK
6
CONTINUOUS
10
113.817
20
-156.994
11
113.721
21
-156.804
0
LINE
8
BLACK
6
CONTINUOUS
10
113.721
20
-156.804
11
113.721
21
-156.232
0
LINE
8
BLACK
6
CONTINUOUS
10
113.721
20
-156.232
11
113.817
21
-156.042
0
LINE
8
BLACK
6
CONTINUOUS
10
113.817
20
-156.042
11
113.912
21
-155.947
0
LINE
8
BLACK
6
CONTINUOUS
10
113.912
20
-155.947
11
114.102
21
-155.851
0
LINE
8
BLACK
6
CONTINUOUS
10
114.102
20
-155.851
11
114.483
21
-155.851
0
LINE
8
BLACK
6
CONTINUOUS
10
114.483
20
-155.851
11
114.674
21
-155.947
0
LINE
8
BLACK
6
CONTINUOUS
10
115.436
20
-157.947
11
115.531
21
-157.851
0
LINE
8
BLACK
6
CONTINUOUS
10
115.531
20
-157.851
11
115.721
21
-157.566
0
LINE
8
BLACK
6
CONTINUOUS
10
115.721
20
-157.566
11
115.817
21
-157.375
0
LINE
8
BLACK
6
CONTINUOUS
10
115.817
20
-157.375
11
115.912
21
-157.09
0
LINE
8
BLACK
6
CONTINUOUS
10
115.912
20
-157.09
11
116.007
21
-156.613
0
LINE
8
BLACK
6
CONTINUOUS
10
116.007
20
-156.613
11
116.007
21
-156.232
0
LINE
8
BLACK
6
CONTINUOUS
10
116.007
20
-156.232
11
115.912
21
-155.756
0
LINE
8
BLACK
6
CONTINUOUS
10
115.912
20
-155.756
11
115.817
21
-155.47
0
LINE
8
BLACK
6
CONTINUOUS
10
115.817
20
-155.47
11
115.721
21
-155.28
0
LINE
8
BLACK
6
CONTINUOUS
10
115.721
20
-155.28
11
115.531
21
-154.994
0
LINE
8
BLACK
6
CONTINUOUS
10
115.531
20
-154.994
11
115.436
21
-154.899
  0
ENDSEC
  0
EOF
