%TF.GenerationSoftware,KiCad,Pcbnew,(7.0.0)*%
%TF.CreationDate,2023-04-03T20:42:17+02:00*%
%TF.ProjectId,EEE3088,45454533-3038-4382-9e6b-696361645f70,Rev_0*%
%TF.SameCoordinates,Original*%
%TF.FileFunction,Drillmap*%
%TF.FilePolarity,Positive*%
%FSLAX45Y45*%
G04 Gerber Fmt 4.5, Leading zero omitted, Abs format (unit mm)*
G04 Created by KiCad (PCBNEW (7.0.0)) date 2023-04-03 20:42:17*
%MOMM*%
%LPD*%
G01*
G04 APERTURE LIST*
%ADD10C,0.100000*%
%ADD11C,0.200000*%
%ADD12C,0.320000*%
G04 APERTURE END LIST*
D10*
X15000000Y-14500000D02*
X15000000Y-5500000D01*
X5500000Y-5000000D02*
G75*
G03*
X5000000Y-5500000I0J-500000D01*
G01*
X5500000Y-15000000D02*
X14500000Y-15000000D01*
X12000000Y-8000000D02*
X12000000Y-5000000D01*
X15000000Y-5500000D02*
G75*
G03*
X14500000Y-5000000I-500000J0D01*
G01*
X8000000Y-5000000D02*
X8000000Y-8000000D01*
X5000000Y-5500000D02*
X5000000Y-14500000D01*
X5000000Y-14500000D02*
G75*
G03*
X5500000Y-15000000I500000J0D01*
G01*
X14500000Y-15000000D02*
G75*
G03*
X15000000Y-14500000I0J500000D01*
G01*
X5500000Y-5000000D02*
X8000000Y-5000000D01*
X8000000Y-8000000D02*
X12000000Y-8000000D01*
X12000000Y-5000000D02*
X14500000Y-5000000D01*
D11*
D12*
X7157700Y-12260600D02*
X7477700Y-12580600D01*
X7477700Y-12260600D02*
X7157700Y-12580600D01*
X12718700Y-12260600D02*
X13038700Y-12580600D01*
X13038700Y-12260600D02*
X12718700Y-12580600D01*
D11*
X5242619Y-15298476D02*
X5242619Y-15098476D01*
X5242619Y-15098476D02*
X5290238Y-15098476D01*
X5290238Y-15098476D02*
X5318810Y-15108000D01*
X5318810Y-15108000D02*
X5337857Y-15127048D01*
X5337857Y-15127048D02*
X5347381Y-15146095D01*
X5347381Y-15146095D02*
X5356905Y-15184190D01*
X5356905Y-15184190D02*
X5356905Y-15212762D01*
X5356905Y-15212762D02*
X5347381Y-15250857D01*
X5347381Y-15250857D02*
X5337857Y-15269905D01*
X5337857Y-15269905D02*
X5318810Y-15288952D01*
X5318810Y-15288952D02*
X5290238Y-15298476D01*
X5290238Y-15298476D02*
X5242619Y-15298476D01*
X5442619Y-15298476D02*
X5442619Y-15165143D01*
X5442619Y-15203238D02*
X5452143Y-15184190D01*
X5452143Y-15184190D02*
X5461667Y-15174667D01*
X5461667Y-15174667D02*
X5480714Y-15165143D01*
X5480714Y-15165143D02*
X5499762Y-15165143D01*
X5566429Y-15298476D02*
X5566429Y-15165143D01*
X5566429Y-15098476D02*
X5556905Y-15108000D01*
X5556905Y-15108000D02*
X5566429Y-15117524D01*
X5566429Y-15117524D02*
X5575952Y-15108000D01*
X5575952Y-15108000D02*
X5566429Y-15098476D01*
X5566429Y-15098476D02*
X5566429Y-15117524D01*
X5690238Y-15298476D02*
X5671190Y-15288952D01*
X5671190Y-15288952D02*
X5661667Y-15269905D01*
X5661667Y-15269905D02*
X5661667Y-15098476D01*
X5795000Y-15298476D02*
X5775952Y-15288952D01*
X5775952Y-15288952D02*
X5766428Y-15269905D01*
X5766428Y-15269905D02*
X5766428Y-15098476D01*
X5991190Y-15298476D02*
X5991190Y-15098476D01*
X5991190Y-15098476D02*
X6057857Y-15241333D01*
X6057857Y-15241333D02*
X6124524Y-15098476D01*
X6124524Y-15098476D02*
X6124524Y-15298476D01*
X6305476Y-15298476D02*
X6305476Y-15193714D01*
X6305476Y-15193714D02*
X6295952Y-15174667D01*
X6295952Y-15174667D02*
X6276905Y-15165143D01*
X6276905Y-15165143D02*
X6238809Y-15165143D01*
X6238809Y-15165143D02*
X6219762Y-15174667D01*
X6305476Y-15288952D02*
X6286428Y-15298476D01*
X6286428Y-15298476D02*
X6238809Y-15298476D01*
X6238809Y-15298476D02*
X6219762Y-15288952D01*
X6219762Y-15288952D02*
X6210238Y-15269905D01*
X6210238Y-15269905D02*
X6210238Y-15250857D01*
X6210238Y-15250857D02*
X6219762Y-15231809D01*
X6219762Y-15231809D02*
X6238809Y-15222286D01*
X6238809Y-15222286D02*
X6286428Y-15222286D01*
X6286428Y-15222286D02*
X6305476Y-15212762D01*
X6400714Y-15165143D02*
X6400714Y-15365143D01*
X6400714Y-15174667D02*
X6419762Y-15165143D01*
X6419762Y-15165143D02*
X6457857Y-15165143D01*
X6457857Y-15165143D02*
X6476905Y-15174667D01*
X6476905Y-15174667D02*
X6486428Y-15184190D01*
X6486428Y-15184190D02*
X6495952Y-15203238D01*
X6495952Y-15203238D02*
X6495952Y-15260381D01*
X6495952Y-15260381D02*
X6486428Y-15279428D01*
X6486428Y-15279428D02*
X6476905Y-15288952D01*
X6476905Y-15288952D02*
X6457857Y-15298476D01*
X6457857Y-15298476D02*
X6419762Y-15298476D01*
X6419762Y-15298476D02*
X6400714Y-15288952D01*
X6581667Y-15279428D02*
X6591190Y-15288952D01*
X6591190Y-15288952D02*
X6581667Y-15298476D01*
X6581667Y-15298476D02*
X6572143Y-15288952D01*
X6572143Y-15288952D02*
X6581667Y-15279428D01*
X6581667Y-15279428D02*
X6581667Y-15298476D01*
X6581667Y-15174667D02*
X6591190Y-15184190D01*
X6591190Y-15184190D02*
X6581667Y-15193714D01*
X6581667Y-15193714D02*
X6572143Y-15184190D01*
X6572143Y-15184190D02*
X6581667Y-15174667D01*
X6581667Y-15174667D02*
X6581667Y-15193714D01*
X4795000Y-15545000D02*
X4995000Y-15745000D01*
X4995000Y-15545000D02*
X4795000Y-15745000D01*
X5223571Y-15518476D02*
X5347381Y-15518476D01*
X5347381Y-15518476D02*
X5280714Y-15594667D01*
X5280714Y-15594667D02*
X5309286Y-15594667D01*
X5309286Y-15594667D02*
X5328333Y-15604190D01*
X5328333Y-15604190D02*
X5337857Y-15613714D01*
X5337857Y-15613714D02*
X5347381Y-15632762D01*
X5347381Y-15632762D02*
X5347381Y-15680381D01*
X5347381Y-15680381D02*
X5337857Y-15699428D01*
X5337857Y-15699428D02*
X5328333Y-15708952D01*
X5328333Y-15708952D02*
X5309286Y-15718476D01*
X5309286Y-15718476D02*
X5252143Y-15718476D01*
X5252143Y-15718476D02*
X5233095Y-15708952D01*
X5233095Y-15708952D02*
X5223571Y-15699428D01*
X5433095Y-15699428D02*
X5442619Y-15708952D01*
X5442619Y-15708952D02*
X5433095Y-15718476D01*
X5433095Y-15718476D02*
X5423571Y-15708952D01*
X5423571Y-15708952D02*
X5433095Y-15699428D01*
X5433095Y-15699428D02*
X5433095Y-15718476D01*
X5518810Y-15537524D02*
X5528333Y-15528000D01*
X5528333Y-15528000D02*
X5547381Y-15518476D01*
X5547381Y-15518476D02*
X5595000Y-15518476D01*
X5595000Y-15518476D02*
X5614048Y-15528000D01*
X5614048Y-15528000D02*
X5623571Y-15537524D01*
X5623571Y-15537524D02*
X5633095Y-15556571D01*
X5633095Y-15556571D02*
X5633095Y-15575619D01*
X5633095Y-15575619D02*
X5623571Y-15604190D01*
X5623571Y-15604190D02*
X5509286Y-15718476D01*
X5509286Y-15718476D02*
X5633095Y-15718476D01*
X5756905Y-15518476D02*
X5775952Y-15518476D01*
X5775952Y-15518476D02*
X5795000Y-15528000D01*
X5795000Y-15528000D02*
X5804524Y-15537524D01*
X5804524Y-15537524D02*
X5814048Y-15556571D01*
X5814048Y-15556571D02*
X5823571Y-15594667D01*
X5823571Y-15594667D02*
X5823571Y-15642286D01*
X5823571Y-15642286D02*
X5814048Y-15680381D01*
X5814048Y-15680381D02*
X5804524Y-15699428D01*
X5804524Y-15699428D02*
X5795000Y-15708952D01*
X5795000Y-15708952D02*
X5775952Y-15718476D01*
X5775952Y-15718476D02*
X5756905Y-15718476D01*
X5756905Y-15718476D02*
X5737857Y-15708952D01*
X5737857Y-15708952D02*
X5728333Y-15699428D01*
X5728333Y-15699428D02*
X5718809Y-15680381D01*
X5718809Y-15680381D02*
X5709286Y-15642286D01*
X5709286Y-15642286D02*
X5709286Y-15594667D01*
X5709286Y-15594667D02*
X5718809Y-15556571D01*
X5718809Y-15556571D02*
X5728333Y-15537524D01*
X5728333Y-15537524D02*
X5737857Y-15528000D01*
X5737857Y-15528000D02*
X5756905Y-15518476D01*
X5947381Y-15518476D02*
X5966429Y-15518476D01*
X5966429Y-15518476D02*
X5985476Y-15528000D01*
X5985476Y-15528000D02*
X5995000Y-15537524D01*
X5995000Y-15537524D02*
X6004524Y-15556571D01*
X6004524Y-15556571D02*
X6014048Y-15594667D01*
X6014048Y-15594667D02*
X6014048Y-15642286D01*
X6014048Y-15642286D02*
X6004524Y-15680381D01*
X6004524Y-15680381D02*
X5995000Y-15699428D01*
X5995000Y-15699428D02*
X5985476Y-15708952D01*
X5985476Y-15708952D02*
X5966429Y-15718476D01*
X5966429Y-15718476D02*
X5947381Y-15718476D01*
X5947381Y-15718476D02*
X5928333Y-15708952D01*
X5928333Y-15708952D02*
X5918809Y-15699428D01*
X5918809Y-15699428D02*
X5909286Y-15680381D01*
X5909286Y-15680381D02*
X5899762Y-15642286D01*
X5899762Y-15642286D02*
X5899762Y-15594667D01*
X5899762Y-15594667D02*
X5909286Y-15556571D01*
X5909286Y-15556571D02*
X5918809Y-15537524D01*
X5918809Y-15537524D02*
X5928333Y-15528000D01*
X5928333Y-15528000D02*
X5947381Y-15518476D01*
X6099762Y-15718476D02*
X6099762Y-15585143D01*
X6099762Y-15604190D02*
X6109286Y-15594667D01*
X6109286Y-15594667D02*
X6128333Y-15585143D01*
X6128333Y-15585143D02*
X6156905Y-15585143D01*
X6156905Y-15585143D02*
X6175952Y-15594667D01*
X6175952Y-15594667D02*
X6185476Y-15613714D01*
X6185476Y-15613714D02*
X6185476Y-15718476D01*
X6185476Y-15613714D02*
X6195000Y-15594667D01*
X6195000Y-15594667D02*
X6214048Y-15585143D01*
X6214048Y-15585143D02*
X6242619Y-15585143D01*
X6242619Y-15585143D02*
X6261667Y-15594667D01*
X6261667Y-15594667D02*
X6271190Y-15613714D01*
X6271190Y-15613714D02*
X6271190Y-15718476D01*
X6366429Y-15718476D02*
X6366429Y-15585143D01*
X6366429Y-15604190D02*
X6375952Y-15594667D01*
X6375952Y-15594667D02*
X6395000Y-15585143D01*
X6395000Y-15585143D02*
X6423571Y-15585143D01*
X6423571Y-15585143D02*
X6442619Y-15594667D01*
X6442619Y-15594667D02*
X6452143Y-15613714D01*
X6452143Y-15613714D02*
X6452143Y-15718476D01*
X6452143Y-15613714D02*
X6461667Y-15594667D01*
X6461667Y-15594667D02*
X6480714Y-15585143D01*
X6480714Y-15585143D02*
X6509286Y-15585143D01*
X6509286Y-15585143D02*
X6528333Y-15594667D01*
X6528333Y-15594667D02*
X6537857Y-15613714D01*
X6537857Y-15613714D02*
X6537857Y-15718476D01*
X6895952Y-15508952D02*
X6724524Y-15766095D01*
X7120714Y-15518476D02*
X7139762Y-15518476D01*
X7139762Y-15518476D02*
X7158810Y-15528000D01*
X7158810Y-15528000D02*
X7168333Y-15537524D01*
X7168333Y-15537524D02*
X7177857Y-15556571D01*
X7177857Y-15556571D02*
X7187381Y-15594667D01*
X7187381Y-15594667D02*
X7187381Y-15642286D01*
X7187381Y-15642286D02*
X7177857Y-15680381D01*
X7177857Y-15680381D02*
X7168333Y-15699428D01*
X7168333Y-15699428D02*
X7158810Y-15708952D01*
X7158810Y-15708952D02*
X7139762Y-15718476D01*
X7139762Y-15718476D02*
X7120714Y-15718476D01*
X7120714Y-15718476D02*
X7101667Y-15708952D01*
X7101667Y-15708952D02*
X7092143Y-15699428D01*
X7092143Y-15699428D02*
X7082619Y-15680381D01*
X7082619Y-15680381D02*
X7073095Y-15642286D01*
X7073095Y-15642286D02*
X7073095Y-15594667D01*
X7073095Y-15594667D02*
X7082619Y-15556571D01*
X7082619Y-15556571D02*
X7092143Y-15537524D01*
X7092143Y-15537524D02*
X7101667Y-15528000D01*
X7101667Y-15528000D02*
X7120714Y-15518476D01*
X7273095Y-15699428D02*
X7282619Y-15708952D01*
X7282619Y-15708952D02*
X7273095Y-15718476D01*
X7273095Y-15718476D02*
X7263571Y-15708952D01*
X7263571Y-15708952D02*
X7273095Y-15699428D01*
X7273095Y-15699428D02*
X7273095Y-15718476D01*
X7473095Y-15718476D02*
X7358810Y-15718476D01*
X7415952Y-15718476D02*
X7415952Y-15518476D01*
X7415952Y-15518476D02*
X7396905Y-15547048D01*
X7396905Y-15547048D02*
X7377857Y-15566095D01*
X7377857Y-15566095D02*
X7358810Y-15575619D01*
X7549286Y-15537524D02*
X7558810Y-15528000D01*
X7558810Y-15528000D02*
X7577857Y-15518476D01*
X7577857Y-15518476D02*
X7625476Y-15518476D01*
X7625476Y-15518476D02*
X7644524Y-15528000D01*
X7644524Y-15528000D02*
X7654048Y-15537524D01*
X7654048Y-15537524D02*
X7663571Y-15556571D01*
X7663571Y-15556571D02*
X7663571Y-15575619D01*
X7663571Y-15575619D02*
X7654048Y-15604190D01*
X7654048Y-15604190D02*
X7539762Y-15718476D01*
X7539762Y-15718476D02*
X7663571Y-15718476D01*
X7835000Y-15518476D02*
X7796905Y-15518476D01*
X7796905Y-15518476D02*
X7777857Y-15528000D01*
X7777857Y-15528000D02*
X7768333Y-15537524D01*
X7768333Y-15537524D02*
X7749286Y-15566095D01*
X7749286Y-15566095D02*
X7739762Y-15604190D01*
X7739762Y-15604190D02*
X7739762Y-15680381D01*
X7739762Y-15680381D02*
X7749286Y-15699428D01*
X7749286Y-15699428D02*
X7758810Y-15708952D01*
X7758810Y-15708952D02*
X7777857Y-15718476D01*
X7777857Y-15718476D02*
X7815952Y-15718476D01*
X7815952Y-15718476D02*
X7835000Y-15708952D01*
X7835000Y-15708952D02*
X7844524Y-15699428D01*
X7844524Y-15699428D02*
X7854048Y-15680381D01*
X7854048Y-15680381D02*
X7854048Y-15632762D01*
X7854048Y-15632762D02*
X7844524Y-15613714D01*
X7844524Y-15613714D02*
X7835000Y-15604190D01*
X7835000Y-15604190D02*
X7815952Y-15594667D01*
X7815952Y-15594667D02*
X7777857Y-15594667D01*
X7777857Y-15594667D02*
X7758810Y-15604190D01*
X7758810Y-15604190D02*
X7749286Y-15613714D01*
X7749286Y-15613714D02*
X7739762Y-15632762D01*
X7977857Y-15518476D02*
X7996905Y-15518476D01*
X7996905Y-15518476D02*
X8015952Y-15528000D01*
X8015952Y-15528000D02*
X8025476Y-15537524D01*
X8025476Y-15537524D02*
X8035000Y-15556571D01*
X8035000Y-15556571D02*
X8044524Y-15594667D01*
X8044524Y-15594667D02*
X8044524Y-15642286D01*
X8044524Y-15642286D02*
X8035000Y-15680381D01*
X8035000Y-15680381D02*
X8025476Y-15699428D01*
X8025476Y-15699428D02*
X8015952Y-15708952D01*
X8015952Y-15708952D02*
X7996905Y-15718476D01*
X7996905Y-15718476D02*
X7977857Y-15718476D01*
X7977857Y-15718476D02*
X7958810Y-15708952D01*
X7958810Y-15708952D02*
X7949286Y-15699428D01*
X7949286Y-15699428D02*
X7939762Y-15680381D01*
X7939762Y-15680381D02*
X7930238Y-15642286D01*
X7930238Y-15642286D02*
X7930238Y-15594667D01*
X7930238Y-15594667D02*
X7939762Y-15556571D01*
X7939762Y-15556571D02*
X7949286Y-15537524D01*
X7949286Y-15537524D02*
X7958810Y-15528000D01*
X7958810Y-15528000D02*
X7977857Y-15518476D01*
X8120714Y-15518476D02*
X8120714Y-15556571D01*
X8196905Y-15518476D02*
X8196905Y-15556571D01*
X8459762Y-15794667D02*
X8450238Y-15785143D01*
X8450238Y-15785143D02*
X8431191Y-15756571D01*
X8431191Y-15756571D02*
X8421667Y-15737524D01*
X8421667Y-15737524D02*
X8412143Y-15708952D01*
X8412143Y-15708952D02*
X8402619Y-15661333D01*
X8402619Y-15661333D02*
X8402619Y-15623238D01*
X8402619Y-15623238D02*
X8412143Y-15575619D01*
X8412143Y-15575619D02*
X8421667Y-15547048D01*
X8421667Y-15547048D02*
X8431191Y-15528000D01*
X8431191Y-15528000D02*
X8450238Y-15499428D01*
X8450238Y-15499428D02*
X8459762Y-15489905D01*
X8526429Y-15537524D02*
X8535953Y-15528000D01*
X8535953Y-15528000D02*
X8555000Y-15518476D01*
X8555000Y-15518476D02*
X8602619Y-15518476D01*
X8602619Y-15518476D02*
X8621667Y-15528000D01*
X8621667Y-15528000D02*
X8631191Y-15537524D01*
X8631191Y-15537524D02*
X8640714Y-15556571D01*
X8640714Y-15556571D02*
X8640714Y-15575619D01*
X8640714Y-15575619D02*
X8631191Y-15604190D01*
X8631191Y-15604190D02*
X8516905Y-15718476D01*
X8516905Y-15718476D02*
X8640714Y-15718476D01*
X8846429Y-15718476D02*
X8846429Y-15518476D01*
X8932143Y-15718476D02*
X8932143Y-15613714D01*
X8932143Y-15613714D02*
X8922619Y-15594667D01*
X8922619Y-15594667D02*
X8903572Y-15585143D01*
X8903572Y-15585143D02*
X8875000Y-15585143D01*
X8875000Y-15585143D02*
X8855953Y-15594667D01*
X8855953Y-15594667D02*
X8846429Y-15604190D01*
X9055953Y-15718476D02*
X9036905Y-15708952D01*
X9036905Y-15708952D02*
X9027381Y-15699428D01*
X9027381Y-15699428D02*
X9017857Y-15680381D01*
X9017857Y-15680381D02*
X9017857Y-15623238D01*
X9017857Y-15623238D02*
X9027381Y-15604190D01*
X9027381Y-15604190D02*
X9036905Y-15594667D01*
X9036905Y-15594667D02*
X9055953Y-15585143D01*
X9055953Y-15585143D02*
X9084524Y-15585143D01*
X9084524Y-15585143D02*
X9103572Y-15594667D01*
X9103572Y-15594667D02*
X9113095Y-15604190D01*
X9113095Y-15604190D02*
X9122619Y-15623238D01*
X9122619Y-15623238D02*
X9122619Y-15680381D01*
X9122619Y-15680381D02*
X9113095Y-15699428D01*
X9113095Y-15699428D02*
X9103572Y-15708952D01*
X9103572Y-15708952D02*
X9084524Y-15718476D01*
X9084524Y-15718476D02*
X9055953Y-15718476D01*
X9236905Y-15718476D02*
X9217857Y-15708952D01*
X9217857Y-15708952D02*
X9208334Y-15689905D01*
X9208334Y-15689905D02*
X9208334Y-15518476D01*
X9389286Y-15708952D02*
X9370238Y-15718476D01*
X9370238Y-15718476D02*
X9332143Y-15718476D01*
X9332143Y-15718476D02*
X9313095Y-15708952D01*
X9313095Y-15708952D02*
X9303572Y-15689905D01*
X9303572Y-15689905D02*
X9303572Y-15613714D01*
X9303572Y-15613714D02*
X9313095Y-15594667D01*
X9313095Y-15594667D02*
X9332143Y-15585143D01*
X9332143Y-15585143D02*
X9370238Y-15585143D01*
X9370238Y-15585143D02*
X9389286Y-15594667D01*
X9389286Y-15594667D02*
X9398810Y-15613714D01*
X9398810Y-15613714D02*
X9398810Y-15632762D01*
X9398810Y-15632762D02*
X9303572Y-15651809D01*
X9475000Y-15708952D02*
X9494048Y-15718476D01*
X9494048Y-15718476D02*
X9532143Y-15718476D01*
X9532143Y-15718476D02*
X9551191Y-15708952D01*
X9551191Y-15708952D02*
X9560715Y-15689905D01*
X9560715Y-15689905D02*
X9560715Y-15680381D01*
X9560715Y-15680381D02*
X9551191Y-15661333D01*
X9551191Y-15661333D02*
X9532143Y-15651809D01*
X9532143Y-15651809D02*
X9503572Y-15651809D01*
X9503572Y-15651809D02*
X9484524Y-15642286D01*
X9484524Y-15642286D02*
X9475000Y-15623238D01*
X9475000Y-15623238D02*
X9475000Y-15613714D01*
X9475000Y-15613714D02*
X9484524Y-15594667D01*
X9484524Y-15594667D02*
X9503572Y-15585143D01*
X9503572Y-15585143D02*
X9532143Y-15585143D01*
X9532143Y-15585143D02*
X9551191Y-15594667D01*
X9627381Y-15794667D02*
X9636905Y-15785143D01*
X9636905Y-15785143D02*
X9655953Y-15756571D01*
X9655953Y-15756571D02*
X9665476Y-15737524D01*
X9665476Y-15737524D02*
X9675000Y-15708952D01*
X9675000Y-15708952D02*
X9684524Y-15661333D01*
X9684524Y-15661333D02*
X9684524Y-15623238D01*
X9684524Y-15623238D02*
X9675000Y-15575619D01*
X9675000Y-15575619D02*
X9665476Y-15547048D01*
X9665476Y-15547048D02*
X9655953Y-15528000D01*
X9655953Y-15528000D02*
X9636905Y-15499428D01*
X9636905Y-15499428D02*
X9627381Y-15489905D01*
X9956905Y-15794667D02*
X9947381Y-15785143D01*
X9947381Y-15785143D02*
X9928334Y-15756571D01*
X9928334Y-15756571D02*
X9918810Y-15737524D01*
X9918810Y-15737524D02*
X9909286Y-15708952D01*
X9909286Y-15708952D02*
X9899762Y-15661333D01*
X9899762Y-15661333D02*
X9899762Y-15623238D01*
X9899762Y-15623238D02*
X9909286Y-15575619D01*
X9909286Y-15575619D02*
X9918810Y-15547048D01*
X9918810Y-15547048D02*
X9928334Y-15528000D01*
X9928334Y-15528000D02*
X9947381Y-15499428D01*
X9947381Y-15499428D02*
X9956905Y-15489905D01*
X10033095Y-15585143D02*
X10033095Y-15718476D01*
X10033095Y-15604190D02*
X10042619Y-15594667D01*
X10042619Y-15594667D02*
X10061667Y-15585143D01*
X10061667Y-15585143D02*
X10090238Y-15585143D01*
X10090238Y-15585143D02*
X10109286Y-15594667D01*
X10109286Y-15594667D02*
X10118810Y-15613714D01*
X10118810Y-15613714D02*
X10118810Y-15718476D01*
X10242619Y-15718476D02*
X10223572Y-15708952D01*
X10223572Y-15708952D02*
X10214048Y-15699428D01*
X10214048Y-15699428D02*
X10204524Y-15680381D01*
X10204524Y-15680381D02*
X10204524Y-15623238D01*
X10204524Y-15623238D02*
X10214048Y-15604190D01*
X10214048Y-15604190D02*
X10223572Y-15594667D01*
X10223572Y-15594667D02*
X10242619Y-15585143D01*
X10242619Y-15585143D02*
X10271191Y-15585143D01*
X10271191Y-15585143D02*
X10290238Y-15594667D01*
X10290238Y-15594667D02*
X10299762Y-15604190D01*
X10299762Y-15604190D02*
X10309286Y-15623238D01*
X10309286Y-15623238D02*
X10309286Y-15680381D01*
X10309286Y-15680381D02*
X10299762Y-15699428D01*
X10299762Y-15699428D02*
X10290238Y-15708952D01*
X10290238Y-15708952D02*
X10271191Y-15718476D01*
X10271191Y-15718476D02*
X10242619Y-15718476D01*
X10366429Y-15585143D02*
X10442619Y-15585143D01*
X10395000Y-15518476D02*
X10395000Y-15689905D01*
X10395000Y-15689905D02*
X10404524Y-15708952D01*
X10404524Y-15708952D02*
X10423572Y-15718476D01*
X10423572Y-15718476D02*
X10442619Y-15718476D01*
X10629286Y-15585143D02*
X10629286Y-15785143D01*
X10629286Y-15594667D02*
X10648334Y-15585143D01*
X10648334Y-15585143D02*
X10686429Y-15585143D01*
X10686429Y-15585143D02*
X10705476Y-15594667D01*
X10705476Y-15594667D02*
X10715000Y-15604190D01*
X10715000Y-15604190D02*
X10724524Y-15623238D01*
X10724524Y-15623238D02*
X10724524Y-15680381D01*
X10724524Y-15680381D02*
X10715000Y-15699428D01*
X10715000Y-15699428D02*
X10705476Y-15708952D01*
X10705476Y-15708952D02*
X10686429Y-15718476D01*
X10686429Y-15718476D02*
X10648334Y-15718476D01*
X10648334Y-15718476D02*
X10629286Y-15708952D01*
X10838810Y-15718476D02*
X10819762Y-15708952D01*
X10819762Y-15708952D02*
X10810238Y-15689905D01*
X10810238Y-15689905D02*
X10810238Y-15518476D01*
X11000715Y-15718476D02*
X11000715Y-15613714D01*
X11000715Y-15613714D02*
X10991191Y-15594667D01*
X10991191Y-15594667D02*
X10972143Y-15585143D01*
X10972143Y-15585143D02*
X10934048Y-15585143D01*
X10934048Y-15585143D02*
X10915000Y-15594667D01*
X11000715Y-15708952D02*
X10981667Y-15718476D01*
X10981667Y-15718476D02*
X10934048Y-15718476D01*
X10934048Y-15718476D02*
X10915000Y-15708952D01*
X10915000Y-15708952D02*
X10905476Y-15689905D01*
X10905476Y-15689905D02*
X10905476Y-15670857D01*
X10905476Y-15670857D02*
X10915000Y-15651809D01*
X10915000Y-15651809D02*
X10934048Y-15642286D01*
X10934048Y-15642286D02*
X10981667Y-15642286D01*
X10981667Y-15642286D02*
X11000715Y-15632762D01*
X11067381Y-15585143D02*
X11143572Y-15585143D01*
X11095953Y-15518476D02*
X11095953Y-15689905D01*
X11095953Y-15689905D02*
X11105476Y-15708952D01*
X11105476Y-15708952D02*
X11124524Y-15718476D01*
X11124524Y-15718476D02*
X11143572Y-15718476D01*
X11286429Y-15708952D02*
X11267381Y-15718476D01*
X11267381Y-15718476D02*
X11229286Y-15718476D01*
X11229286Y-15718476D02*
X11210238Y-15708952D01*
X11210238Y-15708952D02*
X11200714Y-15689905D01*
X11200714Y-15689905D02*
X11200714Y-15613714D01*
X11200714Y-15613714D02*
X11210238Y-15594667D01*
X11210238Y-15594667D02*
X11229286Y-15585143D01*
X11229286Y-15585143D02*
X11267381Y-15585143D01*
X11267381Y-15585143D02*
X11286429Y-15594667D01*
X11286429Y-15594667D02*
X11295953Y-15613714D01*
X11295953Y-15613714D02*
X11295953Y-15632762D01*
X11295953Y-15632762D02*
X11200714Y-15651809D01*
X11467381Y-15718476D02*
X11467381Y-15518476D01*
X11467381Y-15708952D02*
X11448334Y-15718476D01*
X11448334Y-15718476D02*
X11410238Y-15718476D01*
X11410238Y-15718476D02*
X11391191Y-15708952D01*
X11391191Y-15708952D02*
X11381667Y-15699428D01*
X11381667Y-15699428D02*
X11372143Y-15680381D01*
X11372143Y-15680381D02*
X11372143Y-15623238D01*
X11372143Y-15623238D02*
X11381667Y-15604190D01*
X11381667Y-15604190D02*
X11391191Y-15594667D01*
X11391191Y-15594667D02*
X11410238Y-15585143D01*
X11410238Y-15585143D02*
X11448334Y-15585143D01*
X11448334Y-15585143D02*
X11467381Y-15594667D01*
X11543572Y-15794667D02*
X11553095Y-15785143D01*
X11553095Y-15785143D02*
X11572143Y-15756571D01*
X11572143Y-15756571D02*
X11581667Y-15737524D01*
X11581667Y-15737524D02*
X11591191Y-15708952D01*
X11591191Y-15708952D02*
X11600714Y-15661333D01*
X11600714Y-15661333D02*
X11600714Y-15623238D01*
X11600714Y-15623238D02*
X11591191Y-15575619D01*
X11591191Y-15575619D02*
X11581667Y-15547048D01*
X11581667Y-15547048D02*
X11572143Y-15528000D01*
X11572143Y-15528000D02*
X11553095Y-15499428D01*
X11553095Y-15499428D02*
X11543572Y-15489905D01*
M02*
