%TF.GenerationSoftware,KiCad,Pcbnew,(7.0.0)*%
%TF.CreationDate,2023-03-21T11:43:52+02:00*%
%TF.ProjectId,EEE3088,45454533-3038-4382-9e6b-696361645f70,rev?*%
%TF.SameCoordinates,Original*%
%TF.FileFunction,Paste,Top*%
%TF.FilePolarity,Positive*%
%FSLAX46Y46*%
G04 Gerber Fmt 4.6, Leading zero omitted, Abs format (unit mm)*
G04 Created by KiCad (PCBNEW (7.0.0)) date 2023-03-21 11:43:52*
%MOMM*%
%LPD*%
G01*
G04 APERTURE LIST*
G04 Aperture macros list*
%AMRoundRect*
0 Rectangle with rounded corners*
0 $1 Rounding radius*
0 $2 $3 $4 $5 $6 $7 $8 $9 X,Y pos of 4 corners*
0 Add a 4 corners polygon primitive as box body*
4,1,4,$2,$3,$4,$5,$6,$7,$8,$9,$2,$3,0*
0 Add four circle primitives for the rounded corners*
1,1,$1+$1,$2,$3*
1,1,$1+$1,$4,$5*
1,1,$1+$1,$6,$7*
1,1,$1+$1,$8,$9*
0 Add four rect primitives between the rounded corners*
20,1,$1+$1,$2,$3,$4,$5,0*
20,1,$1+$1,$4,$5,$6,$7,0*
20,1,$1+$1,$6,$7,$8,$9,0*
20,1,$1+$1,$8,$9,$2,$3,0*%
G04 Aperture macros list end*
%ADD10C,0.010000*%
%ADD11RoundRect,0.075000X0.250000X0.075000X-0.250000X0.075000X-0.250000X-0.075000X0.250000X-0.075000X0*%
%ADD12RoundRect,0.135000X-0.135000X-0.185000X0.135000X-0.185000X0.135000X0.185000X-0.135000X0.185000X0*%
%ADD13RoundRect,0.250000X-0.475000X0.250000X-0.475000X-0.250000X0.475000X-0.250000X0.475000X0.250000X0*%
%ADD14R,0.600000X1.200000*%
%ADD15RoundRect,0.135000X0.135000X0.185000X-0.135000X0.185000X-0.135000X-0.185000X0.135000X-0.185000X0*%
%ADD16RoundRect,0.250000X-0.262500X-0.450000X0.262500X-0.450000X0.262500X0.450000X-0.262500X0.450000X0*%
%ADD17R,1.000000X1.100000*%
%ADD18R,0.900000X0.950000*%
%ADD19R,1.050000X1.750000*%
%ADD20R,1.450000X1.150000*%
%ADD21RoundRect,0.250000X0.262500X0.450000X-0.262500X0.450000X-0.262500X-0.450000X0.262500X-0.450000X0*%
%ADD22R,0.400000X1.250000*%
%ADD23R,0.600000X1.350000*%
%ADD24RoundRect,0.250000X-0.250000X-0.475000X0.250000X-0.475000X0.250000X0.475000X-0.250000X0.475000X0*%
%ADD25R,0.460000X0.820000*%
%ADD26R,0.950000X0.900000*%
%ADD27R,1.500000X0.650000*%
%ADD28RoundRect,0.042000X-0.943000X-0.258000X0.943000X-0.258000X0.943000X0.258000X-0.943000X0.258000X0*%
%ADD29R,1.200000X0.600000*%
%ADD30R,1.000000X1.450000*%
%ADD31R,0.620000X0.600000*%
%ADD32R,0.920000X0.970000*%
%ADD33RoundRect,0.075000X-0.250000X-0.075000X0.250000X-0.075000X0.250000X0.075000X-0.250000X0.075000X0*%
%ADD34RoundRect,0.135000X0.185000X-0.135000X0.185000X0.135000X-0.185000X0.135000X-0.185000X-0.135000X0*%
%ADD35R,0.600000X1.550000*%
%ADD36RoundRect,0.135000X-0.185000X0.135000X-0.185000X-0.135000X0.185000X-0.135000X0.185000X0.135000X0*%
%ADD37R,1.450000X1.000000*%
%ADD38RoundRect,0.049600X0.605400X0.260400X-0.605400X0.260400X-0.605400X-0.260400X0.605400X-0.260400X0*%
G04 APERTURE END LIST*
%TO.C,Battery-Charger1*%
G36*
X128179000Y-81084000D02*
G01*
X126889000Y-81084000D01*
X126889000Y-79444000D01*
X128179000Y-79444000D01*
X128179000Y-81084000D01*
G37*
D10*
X128179000Y-81084000D02*
X126889000Y-81084000D01*
X126889000Y-79444000D01*
X128179000Y-79444000D01*
X128179000Y-81084000D01*
%TO.C,Voltage-Regulator-2*%
G36*
X125900000Y-100143740D02*
G01*
X125097350Y-100143740D01*
X125097350Y-98740000D01*
X125900000Y-98740000D01*
X125900000Y-100143740D01*
G37*
X125900000Y-100143740D02*
X125097350Y-100143740D01*
X125097350Y-98740000D01*
X125900000Y-98740000D01*
X125900000Y-100143740D01*
G36*
X127900000Y-97460000D02*
G01*
X126099217Y-97460000D01*
X126099217Y-95260000D01*
X127900000Y-95260000D01*
X127900000Y-97460000D01*
G37*
X127900000Y-97460000D02*
X126099217Y-97460000D01*
X126099217Y-95260000D01*
X127900000Y-95260000D01*
X127900000Y-97460000D01*
G36*
X127400000Y-100142740D02*
G01*
X126599591Y-100142740D01*
X126599591Y-98740000D01*
X127400000Y-98740000D01*
X127400000Y-100142740D01*
G37*
X127400000Y-100142740D02*
X126599591Y-100142740D01*
X126599591Y-98740000D01*
X127400000Y-98740000D01*
X127400000Y-100142740D01*
G36*
X128900000Y-100141730D02*
G01*
X128100710Y-100141730D01*
X128100710Y-98740000D01*
X128900000Y-98740000D01*
X128900000Y-100141730D01*
G37*
X128900000Y-100141730D02*
X128100710Y-100141730D01*
X128100710Y-98740000D01*
X128900000Y-98740000D01*
X128900000Y-100141730D01*
%TO.C,Voltage-Regulator-1*%
G36*
X133520000Y-100143740D02*
G01*
X132717350Y-100143740D01*
X132717350Y-98740000D01*
X133520000Y-98740000D01*
X133520000Y-100143740D01*
G37*
X133520000Y-100143740D02*
X132717350Y-100143740D01*
X132717350Y-98740000D01*
X133520000Y-98740000D01*
X133520000Y-100143740D01*
G36*
X135520000Y-97460000D02*
G01*
X133719217Y-97460000D01*
X133719217Y-95260000D01*
X135520000Y-95260000D01*
X135520000Y-97460000D01*
G37*
X135520000Y-97460000D02*
X133719217Y-97460000D01*
X133719217Y-95260000D01*
X135520000Y-95260000D01*
X135520000Y-97460000D01*
G36*
X135020000Y-100142740D02*
G01*
X134219591Y-100142740D01*
X134219591Y-98740000D01*
X135020000Y-98740000D01*
X135020000Y-100142740D01*
G37*
X135020000Y-100142740D02*
X134219591Y-100142740D01*
X134219591Y-98740000D01*
X135020000Y-98740000D01*
X135020000Y-100142740D01*
G36*
X136520000Y-100141730D02*
G01*
X135720710Y-100141730D01*
X135720710Y-98740000D01*
X136520000Y-98740000D01*
X136520000Y-100141730D01*
G37*
X136520000Y-100141730D02*
X135720710Y-100141730D01*
X135720710Y-98740000D01*
X136520000Y-98740000D01*
X136520000Y-100141730D01*
%TD*%
D11*
%TO.C,U1*%
X186320000Y-80660000D03*
X186320000Y-80010000D03*
X186320000Y-79360000D03*
X184520000Y-79360000D03*
X184520000Y-80010000D03*
X184520000Y-80660000D03*
%TD*%
D12*
%TO.C,R30*%
X159254000Y-35814000D03*
X160274000Y-35814000D03*
%TD*%
D13*
%TO.C,C9*%
X146812000Y-61074000D03*
X146812000Y-62974000D03*
%TD*%
D14*
%TO.C,N-Mos1*%
X158429999Y-96519999D03*
X156529999Y-96519999D03*
X157479999Y-99019999D03*
%TD*%
D15*
%TO.C,R20*%
X181102000Y-85090000D03*
X180082000Y-85090000D03*
%TD*%
%TO.C,R8*%
X140210000Y-96520000D03*
X139190000Y-96520000D03*
%TD*%
D16*
%TO.C,R24*%
X179277000Y-82550000D03*
X181102000Y-82550000D03*
%TD*%
D17*
%TO.C,C5*%
X151891999Y-61173999D03*
X151891999Y-62873999D03*
%TD*%
D18*
%TO.C,LED2*%
X142023999Y-82803999D03*
X143523999Y-82803999D03*
%TD*%
D19*
%TO.C,R3*%
X184494999Y-99984999D03*
X181594999Y-99984999D03*
%TD*%
D20*
%TO.C,C8*%
X154431999Y-61123999D03*
X154431999Y-62923999D03*
%TD*%
D21*
%TO.C,R25*%
X98044000Y-77470000D03*
X96219000Y-77470000D03*
%TD*%
%TO.C,R27*%
X98044000Y-80264000D03*
X96219000Y-80264000D03*
%TD*%
D15*
%TO.C,R9*%
X122940000Y-104140000D03*
X121920000Y-104140000D03*
%TD*%
D22*
%TO.C,J1*%
X155007999Y-33637999D03*
X154357999Y-33637999D03*
X153707999Y-33637999D03*
X153057999Y-33637999D03*
X152407999Y-33637999D03*
D23*
X152907999Y-30987999D03*
X154507999Y-30987999D03*
%TD*%
D24*
%TO.C,C3*%
X91572000Y-84328000D03*
X93472000Y-84328000D03*
%TD*%
D21*
%TO.C,R23*%
X98044000Y-82804000D03*
X96219000Y-82804000D03*
%TD*%
D15*
%TO.C,R18*%
X97538000Y-74676000D03*
X96518000Y-74676000D03*
%TD*%
D25*
%TO.C,Z1*%
X176874999Y-101134999D03*
X176874999Y-98834999D03*
%TD*%
D26*
%TO.C,R2*%
X122453999Y-79463999D03*
X122453999Y-81063999D03*
%TD*%
D15*
%TO.C,R19*%
X97538000Y-85852000D03*
X96518000Y-85852000D03*
%TD*%
D27*
%TO.C,Op-Amp1*%
X167479999Y-97154999D03*
X167479999Y-98424999D03*
X167479999Y-99694999D03*
X167479999Y-100964999D03*
X172879999Y-100964999D03*
X172879999Y-99694999D03*
X172879999Y-98424999D03*
X172879999Y-97154999D03*
%TD*%
D28*
%TO.C,Battery-Charger1*%
X125059000Y-78359000D03*
X125059000Y-79629000D03*
X125059000Y-80899000D03*
X125059000Y-82169000D03*
X130009000Y-82169000D03*
X130009000Y-80899000D03*
X130009000Y-79629000D03*
X130009000Y-78359000D03*
%TD*%
D29*
%TO.C,P-Mos1*%
X181954999Y-105064999D03*
X181954999Y-103164999D03*
X179454999Y-104114999D03*
%TD*%
D18*
%TO.C,R32*%
X132613999Y-77723999D03*
X134213999Y-77723999D03*
%TD*%
D12*
%TO.C,R13*%
X100072000Y-31496000D03*
X101092000Y-31496000D03*
%TD*%
D13*
%TO.C,C4*%
X186055000Y-84455000D03*
X186055000Y-86355000D03*
%TD*%
D18*
%TO.C,LED1*%
X142023999Y-77723999D03*
X143523999Y-77723999D03*
%TD*%
D12*
%TO.C,R4*%
X181445000Y-110145000D03*
X182465000Y-110145000D03*
%TD*%
D30*
%TO.C,R28*%
X143504999Y-43847999D03*
X141604999Y-43847999D03*
%TD*%
%TO.C,R29*%
X130494999Y-43847999D03*
X132394999Y-43847999D03*
%TD*%
D31*
%TO.C,C7*%
X144271999Y-61563999D03*
X144271999Y-62483999D03*
%TD*%
D32*
%TO.C,C2*%
X128308999Y-85343999D03*
X126758999Y-85343999D03*
%TD*%
D33*
%TO.C,U2*%
X91545000Y-79260000D03*
X91545000Y-79910000D03*
X91545000Y-80560000D03*
X93345000Y-80560000D03*
X93345000Y-79910000D03*
X93345000Y-79260000D03*
%TD*%
D18*
%TO.C,R5*%
X136753999Y-82803999D03*
X135153999Y-82803999D03*
%TD*%
D34*
%TO.C,R11*%
X176530000Y-36068000D03*
X176530000Y-35048000D03*
%TD*%
D32*
%TO.C,C1*%
X123443999Y-85343999D03*
X124993999Y-85343999D03*
%TD*%
D35*
%TO.C,U3*%
X138937999Y-35051999D03*
X137667999Y-35051999D03*
X136397999Y-35051999D03*
X135127999Y-35051999D03*
X135127999Y-40451999D03*
X136397999Y-40451999D03*
X137667999Y-40451999D03*
X138937999Y-40451999D03*
%TD*%
D17*
%TO.C,C6*%
X149351999Y-61173999D03*
X149351999Y-62873999D03*
%TD*%
D16*
%TO.C,R22*%
X179277000Y-77470000D03*
X181102000Y-77470000D03*
%TD*%
D12*
%TO.C,R21*%
X180082000Y-74930000D03*
X181102000Y-74930000D03*
%TD*%
D36*
%TO.C,R12*%
X100076000Y-35048000D03*
X100076000Y-36068000D03*
%TD*%
D12*
%TO.C,R10*%
X157320000Y-104140000D03*
X158340000Y-104140000D03*
%TD*%
D37*
%TO.C,R7*%
X149859999Y-95569999D03*
X149859999Y-97469999D03*
%TD*%
D16*
%TO.C,R26*%
X179277000Y-80010000D03*
X181102000Y-80010000D03*
%TD*%
D15*
%TO.C,R6*%
X129544000Y-87376000D03*
X128524000Y-87376000D03*
%TD*%
D38*
%TO.C,U4*%
X155150000Y-48133000D03*
X155150000Y-46863000D03*
X155150000Y-45593000D03*
X155150000Y-44323000D03*
X155150000Y-43053000D03*
X155150000Y-41783000D03*
X155150000Y-40513000D03*
X155150000Y-39243000D03*
X149650000Y-39243000D03*
X149650000Y-40513000D03*
X149650000Y-41783000D03*
X149650000Y-43053000D03*
X149650000Y-44323000D03*
X149650000Y-45593000D03*
X149650000Y-46863000D03*
X149650000Y-48133000D03*
%TD*%
D12*
%TO.C,R31*%
X146046000Y-48260000D03*
X147066000Y-48260000D03*
%TD*%
M02*
