%TF.GenerationSoftware,KiCad,Pcbnew,(7.0.0)*%
%TF.CreationDate,2023-03-21T11:43:52+02:00*%
%TF.ProjectId,EEE3088,45454533-3038-4382-9e6b-696361645f70,rev?*%
%TF.SameCoordinates,Original*%
%TF.FileFunction,Soldermask,Bot*%
%TF.FilePolarity,Negative*%
%FSLAX46Y46*%
G04 Gerber Fmt 4.6, Leading zero omitted, Abs format (unit mm)*
G04 Created by KiCad (PCBNEW (7.0.0)) date 2023-03-21 11:43:52*
%MOMM*%
%LPD*%
G01*
G04 APERTURE LIST*
%ADD10R,0.850000X0.850000*%
%ADD11O,0.850000X0.850000*%
%ADD12O,1.070000X2.140000*%
%ADD13C,1.300000*%
%ADD14C,1.600000*%
%ADD15C,3.200000*%
%ADD16O,3.440000X6.880000*%
G04 APERTURE END LIST*
D10*
%TO.C,J2*%
X154239999Y-57403999D03*
D11*
X153239999Y-57403999D03*
X152239999Y-57403999D03*
X151239999Y-57403999D03*
X150239999Y-57403999D03*
X149239999Y-57403999D03*
X148239999Y-57403999D03*
X147239999Y-57403999D03*
X146239999Y-57403999D03*
X145239999Y-57403999D03*
X144239999Y-57403999D03*
X143239999Y-57403999D03*
X142239999Y-57403999D03*
X141239999Y-57403999D03*
X140239999Y-57403999D03*
X139239999Y-57403999D03*
X138239999Y-57403999D03*
X137239999Y-57403999D03*
X136239999Y-57403999D03*
X135239999Y-57403999D03*
X134239999Y-57403999D03*
X133239999Y-57403999D03*
X132239999Y-57403999D03*
X131239999Y-57403999D03*
%TD*%
D12*
%TO.C,J1*%
X150107999Y-31012999D03*
D13*
X151283000Y-33663000D03*
X156133000Y-33663000D03*
D12*
X157307999Y-31012999D03*
%TD*%
D14*
%TO.C,R17*%
X182880000Y-118130000D03*
X182880000Y-125730000D03*
%TD*%
D10*
%TO.C,J3*%
X154399999Y-67563999D03*
D11*
X153399999Y-67563999D03*
X152399999Y-67563999D03*
X151399999Y-67563999D03*
X150399999Y-67563999D03*
X149399999Y-67563999D03*
X148399999Y-67563999D03*
X147399999Y-67563999D03*
X146399999Y-67563999D03*
X145399999Y-67563999D03*
X144399999Y-67563999D03*
X143399999Y-67563999D03*
X142399999Y-67563999D03*
X141399999Y-67563999D03*
X140399999Y-67563999D03*
X139399999Y-67563999D03*
X138399999Y-67563999D03*
X137399999Y-67563999D03*
X136399999Y-67563999D03*
X135399999Y-67563999D03*
X134399999Y-67563999D03*
X133399999Y-67563999D03*
X132399999Y-67563999D03*
X131399999Y-67563999D03*
%TD*%
D14*
%TO.C,R15*%
X94780000Y-118120000D03*
X94780000Y-125720000D03*
%TD*%
%TO.C,R16*%
X182880000Y-31770000D03*
X182880000Y-39370000D03*
%TD*%
%TO.C,R14*%
X93980000Y-31770000D03*
X93980000Y-39370000D03*
%TD*%
D15*
%TO.C,Battery-Holder1*%
X110506000Y-80772000D03*
X166116000Y-80772000D03*
D16*
X102225999Y-80771999D03*
X175125999Y-80771999D03*
%TD*%
M02*
